<?xml version="1.0" encoding="UTF-8" standalone="no"?>
<svg
   version="1.1"
   id="Layer_1"
   x="0px"
   y="0px"
   width="100%"
   viewBox="0 0 1024 1024"
   enable-background="new 0 0 1024 1024"
   xml:space="preserve"
   sodipodi:docname="file.svg"
   inkscape:version="1.4 (e7c3feb1, 2024-10-09)"
   xmlns:inkscape="http://www.inkscape.org/namespaces/inkscape"
   xmlns:sodipodi="http://sodipodi.sourceforge.net/DTD/sodipodi-0.dtd"
   xmlns:xlink="http://www.w3.org/1999/xlink"
   xmlns="http://www.w3.org/2000/svg"
   xmlns:svg="http://www.w3.org/2000/svg"><defs
   id="defs2"><linearGradient
     id="swatch22"
     inkscape:swatch="solid"><stop
       style="stop-color:#000000;stop-opacity:1;"
       offset="0"
       id="stop22" /></linearGradient><linearGradient
     id="swatch18"
     inkscape:swatch="solid"><stop
       style="stop-color:#000000;stop-opacity:1;"
       offset="0"
       id="stop18" /></linearGradient><linearGradient
     id="swatch17"
     inkscape:swatch="solid"><stop
       style="stop-color:#000000;stop-opacity:1;"
       offset="0"
       id="stop17" /></linearGradient><linearGradient
     id="swatch16"
     inkscape:swatch="solid"><stop
       style="stop-color:#000000;stop-opacity:1;"
       offset="0"
       id="stop16" /></linearGradient><linearGradient
     id="swatch14"><stop
       style="stop-color:#000000;stop-opacity:1;"
       offset="0"
       id="stop14" /></linearGradient><linearGradient
     id="swatch3"
     inkscape:swatch="solid"><stop
       style="stop-color:#000000;stop-opacity:1;"
       offset="0"
       id="stop3" /></linearGradient><linearGradient
     inkscape:collect="always"
     xlink:href="#swatch16"
     id="linearGradient16"
     x1="-115.14934"
     y1="1060.4221"
     x2="1144.4801"
     y2="1060.4221"
     gradientUnits="userSpaceOnUse" /><linearGradient
     inkscape:collect="always"
     xlink:href="#swatch17"
     id="linearGradient17"
     x1="-115.14934"
     y1="1060.4221"
     x2="1144.4801"
     y2="1060.4221"
     gradientUnits="userSpaceOnUse" /></defs><sodipodi:namedview
   id="namedview2"
   pagecolor="#ffffff"
   bordercolor="#000000"
   borderopacity="0.25"
   inkscape:showpageshadow="2"
   inkscape:pageopacity="0.0"
   inkscape:pagecheckerboard="0"
   inkscape:deskcolor="#d1d1d1"
   inkscape:zoom="0.8125"
   inkscape:cx="520"
   inkscape:cy="579.69231"
   inkscape:window-width="2080"
   inkscape:window-height="1173"
   inkscape:window-x="1810"
   inkscape:window-y="51"
   inkscape:window-maximized="0"
   inkscape:current-layer="Layer_1" />


<path
   id="path2"
   d="M 507.23633 130.23242 C 505.80093 130.47122 505.00775 131.60135 504.65234 132.98828 C 503.66641 136.83572 502.50955 140.60835 503.30078 144.72656 C 504.47156 150.82002 506.6586 156.57008 508.91602 162.2832 C 511.42557 168.63445 512.21017 175.11998 511.57227 181.86719 C 510.55658 192.61002 509.64288 203.36192 508.63477 214.10547 C 508.13705 219.40973 507.52399 224.70454 506.96289 230.01172 C 503.85181 229.6795 502.61652 227.98618 501.46484 226.42773 C 496.41891 219.59946 491.17261 212.88165 487.19531 205.34766 C 483.5914 198.52086 482.38315 191.23473 483.98633 183.58789 C 485.48428 176.44318 487.18603 169.33267 488.38867 162.13867 C 488.88248 159.18472 488.94824 155.80128 485.44922 153.93164 C 480.62317 156.44931 482.96512 162.91054 478.41992 165.9668 C 474.6694 162.1539 473.14014 157.56575 472.32617 152.62305 C 471.82074 149.55379 470.34595 146.78261 467.04883 147.04688 C 463.14813 147.35953 463.51932 150.94466 463.72656 153.7168 C 464.15872 159.49733 466.33389 164.89809 469.60938 169.45312 C 475.58322 177.76053 474.72397 187.08739 474.86914 196.34961 C 474.91733 199.42659 473.45755 200.1703 470.71094 198.83984 C 465.70914 196.41695 461.36459 193.20966 457.54297 189.12109 C 452.20221 183.40733 450.01672 176.3641 447.9707 169.10352 C 447.04214 165.8085 445.23911 161.36069 441.20898 162.54102 C 436.85202 163.81708 438.79111 168.2361 439.47266 171.60742 C 440.08005 174.61192 442.16821 177.33795 441.43555 180.91211 C 436.14407 180.42314 432.08884 176.95796 427.13477 176.26172 C 424.74423 175.92577 422.12299 175.19238 421.06641 177.91406 C 419.95654 180.77296 422.13083 182.73453 424.4707 183.79492 C 429.16431 185.92203 434.01169 187.70967 438.79102 189.64844 C 442.48346 191.14633 446.40695 192.26797 449.19141 195.37305 C 454.40988 201.19234 460.8595 205.239 467.86133 208.50781 C 470.57996 209.77702 473.46448 210.86911 475.57227 213.05078 C 486.25281 224.10582 496.06052 235.9715 503.51562 249.38086 C 511.09497 263.0136 504.1962 277.70587 505.64844 291.53516 C 503.80719 292.43466 502.85284 291.8772 502.0957 291.33203 C 493.19235 284.92108 486.53659 276.38013 480.11523 267.67188 C 479.00861 266.17114 478.52582 263.91776 478.46094 261.98828 C 477.97168 247.44214 468.69934 237.26447 460.95508 226.32031 C 460.67526 225.92487 460.23883 225.6198 459.82812 225.3418 C 456.67975 223.2108 454.94131 224.07216 454.62891 227.83594 C 454.18344 233.20306 457.07089 237.03381 460.53516 240.52344 C 466.34027 246.37108 468.28027 253.71321 469.56055 261.52539 C 466.45776 262.39935 464.54941 260.96054 462.61719 259.74609 C 460.64587 258.50708 458.84201 256.96989 456.78906 255.90039 C 453.89456 254.39247 450.43112 252.05371 448.08984 256.18359 C 445.87692 260.0871 448.41373 262.6889 451.86523 264.55664 C 456.1257 266.86212 460.54373 268.7753 465.14844 270.26172 C 469.23926 271.58224 472.78473 273.83829 475.17773 277.36133 C 480.00095 284.46216 485.96765 290.53653 492.28711 296.18164 C 501.88226 304.75287 505.22211 315.89255 505.5 327.95703 C 505.80624 341.25235 504.96594 354.57452 504.62305 367.88477 C 504.59683 368.90198 504.52908 369.90478 503.11328 370.63672 C 500.91763 370.58005 499.79373 368.62372 498.42188 367.01367 C 492.51141 360.07684 488.6922 351.96771 485.04688 343.71094 C 482.53531 338.02203 481.85361 332.35812 482.86914 326.21484 C 483.81796 320.47488 484.3772 314.54053 480.70898 309.33008 C 479.23831 307.24115 477.17221 305.13001 474.51562 306.24219 C 471.76859 307.39227 472.73724 310.12598 473.34961 312.41016 C 474.45966 316.55035 475.47525 320.70178 474.05859 325.62695 C 470.6572 323.89493 468.72009 321.1842 466.6582 318.71094 C 459.70245 310.36746 452.65137 302.13315 454.15039 289.95312 C 454.5463 286.7366 452.92862 283.43439 451.11719 280.58594 C 450.12189 279.02087 448.74765 277.46841 446.66602 278.03125 C 444.56036 278.60055 444.12738 280.76166 444.16992 282.51367 C 444.22964 284.97403 445.14056 287.40832 445.26953 289.875 C 445.46646 293.64124 448.22598 297.43314 445.4375 301.4082 C 440.03509 300.47989 436.0509 297.80652 433.22852 293.33984 C 431.98395 291.37018 430.88077 289.2785 429.41016 287.49219 C 427.60486 285.29938 425.27768 282.77741 422.27539 284.61133 C 419.14758 286.52194 420.59222 289.67938 421.91016 292.17188 C 425.33762 298.65411 430.13001 303.94156 436.76758 307.22266 C 450.39529 313.9592 461.24493 323.71533 469.55859 336.42188 C 473.17044 341.94226 474.79953 348.11908 476.97266 354.59375 C 470.91797 355.13065 465.84058 353.81552 460.76562 352.27539 C 458.39252 351.55518 455.4632 350.61816 454.12305 353.5293 C 452.88379 356.22125 455.05334 358.24133 457.05859 359.80859 C 460.34515 362.37738 464.32309 362.8457 468.32031 363.3457 C 477.62778 364.50998 485.78802 367.37607 491.94531 375.43359 C 505.52121 393.19916 506.7561 412.95422 502.67383 433.76758 C 501.44467 440.03452 496.35983 444.95764 491.23828 445.59766 C 486.48221 446.19202 480.95535 442.34937 478.21484 436.34766 C 477.53815 434.86566 477.00018 433.17047 476.97461 431.56445 C 476.78467 419.63446 474.09433 407.76569 476.07812 395.78125 C 476.4903 393.2912 476.60199 390.78976 475.28711 388.47461 C 474.5538 387.18347 473.9003 385.60342 472.07227 385.81836 C 470.54392 385.99805 470.27811 387.52646 469.60156 388.66602 C 468.38815 390.70978 469.39697 393.76343 466.85547 395.19922 C 464.34692 394.08734 463.38327 391.84955 461.93359 390.06055 C 459.99097 387.66315 458.0582 383.88477 454.4668 386.57812 C 451.0466 389.14313 453.93243 392.26837 455.40039 394.97266 C 455.63586 395.40646 455.93576 395.85074 456.31445 396.1543 C 465.52136 403.53485 466.53278 413.9093 466.59766 424.56836 C 466.61105 426.76874 467.4451 429.20416 465.77344 431.16797 C 464.2962 431.27728 463.50797 430.33319 462.59375 429.63867 C 449.0509 419.35004 439.86319 405.69479 433.9707 390.08008 C 428.75897 376.26938 427.42282 362.21167 437.64258 349.42188 C 439.48361 347.11789 440.57697 344.21017 441.97266 341.55859 C 442.99939 339.60797 443.50561 337.53387 443.34961 335.30078 C 443.2341 333.64771 443.51288 331.7674 441.56836 331.01172 C 439.66522 330.27216 438.0249 331.00513 436.60352 332.41797 C 432.89713 336.10214 431.81024 341.09805 429.91992 345.68359 C 429.11203 347.64334 428.87051 349.89832 426.5918 351.07227 C 424.15991 349.5358 424.09778 346.84964 423.48438 344.56836 C 421.29746 336.43536 422.88855 328.40515 424.58789 320.43164 C 425.14151 317.83389 425.9657 315.33633 424.58984 312.89844 C 421.13635 311.81345 420.1127 315.67075 417.17773 316.04297 C 416.06293 314.33655 414.97681 312.49359 413.70898 310.78516 C 412.52756 309.19315 411.19418 307.21417 408.88867 308.10938 C 407.02185 308.83423 406.83057 310.96057 406.69531 312.79492 C 406.36191 317.31631 408.02243 321.35406 410.24609 325.07617 C 412.81235 329.37176 413.86716 333.86038 413.89453 338.83594 C 413.9238 344.15604 414.47394 349.51401 417.06445 354.32812 C 420.97928 361.60333 422.30704 369.34641 421.65234 377.5 C 421.52393 379.09921 422.25442 381.09811 420.49219 382.08203 C 418.45438 383.21988 417.14261 381.31439 415.69336 380.3418 C 391.6937 364.23633 385.75681 340.12738 388.86523 313.76758 C 392.11618 286.19922 405.41028 263.44041 428.81641 247.39648 C 432.34399 244.97848 435.15955 241.99033 436.71484 237.9707 C 437.58652 235.71783 438.1088 233.14065 435.81641 231.59375 C 433.19891 229.82751 431.60034 232.27818 430 233.87695 C 428.33987 235.53548 427.95837 238.4888 424.83789 239.07812 C 423.93134 236.89328 425.25513 235.37637 425.84375 233.75977 C 427.5238 229.14542 431.09286 225.68393 433.41211 221.4668 C 434.8909 218.77783 435.19855 215.51817 432.47266 213.81836 C 430.06107 212.3145 427.82724 214.58685 426.125 216.46875 C 425.23846 217.44884 424.57913 218.63161 423.7832 219.69727 C 418.47766 226.80084 416.20325 235.1431 413.87891 243.5 C 412.7316 247.62491 410.89072 251.44797 406 254.09766 C 404.97229 246.11 403.82349 239.04419 405.72656 231.78906 C 407.16721 226.29694 407.75397 220.64328 407.27734 214.96484 C 407.02667 211.9778 406.47952 208.1508 403.11133 207.8418 C 399.79413 207.53746 400.08948 211.51186 399.27734 213.89258 C 399.0639 214.51822 398.89285 215.18376 398.85352 215.83984 C 397.98016 230.40665 394.64145 244.72464 395.48438 259.50586 C 396.16257 271.39828 386.93668 279.3782 382.16797 289.27344 C 378.09259 282.26773 372.41601 276.65051 371.2793 268.73633 C 369.00033 252.86914 371.68414 237.23708 373.99805 221.65234 C 375.65268 210.5078 379.39362 199.65926 379.2207 188.25977 C 379.168 184.78609 378.93454 179.62735 374.45508 179.69727 C 370.57861 179.7578 371.27084 184.75739 370.66992 187.89258 C 370.60809 188.21516 370.69925 188.5683 370.63672 188.89062 C 369.29825 195.78862 370.03946 203.07648 367.01953 209.87109 C 364.55103 208.46916 363.63592 206.28735 362.52344 204.29102 C 359.19965 198.32655 356.14075 192.19954 352.52734 186.41797 C 350.86975 183.76576 348.34814 179.59592 344.95703 181.49414 C 341.75531 183.28636 343.55051 187.58871 344.99414 190.55469 C 349.07114 198.93098 352.91611 207.44548 358.60938 214.9375 C 360.51425 217.44423 362.50113 220.05507 362.60352 223.39453 C 362.93445 234.19052 361.33246 244.84494 360.49805 256.89453 C 351.03592 247.55771 341.1395 240.36025 336.36914 228.64258 C 332.84692 219.99085 328.78845 211.59525 324.02344 203.56445 C 322.76956 201.45122 320.86282 199.05183 318.06641 200.22656 C 315.41974 201.33838 315.45956 204.28534 315.76758 206.81641 C 316.07202 209.31801 317.11755 211.60466 318.41406 213.76367 C 320.72922 217.61916 323.19223 221.39471 325.31055 225.35547 C 326.82031 228.17844 328.7157 230.99142 328.45508 234.50586 C 325.603 235.27727 323.33835 233.51489 320.8418 233.66797 C 319.31625 233.76154 317.69888 233.69797 317.02344 235.39453 C 316.30392 237.20178 317.06717 238.81331 318.57422 239.73047 C 320.83423 241.1059 323.24469 242.26212 325.67188 243.32812 C 329.47501 244.99846 333.42593 246.29077 336.85742 248.7832 C 354.76388 261.78941 364.85141 280.54629 374.40234 299.69531 C 374.98395 300.86139 375.19113 302.23734 375.44141 303.54102 C 377.65186 315.05475 375.83395 326.81598 377.52539 338.36914 C 377.62982 339.08243 377.12485 339.88486 376.6543 341.50195 C 364.68405 332.88901 354.46176 323.78134 351.46875 309.00195 C 350.51544 304.29446 350.04968 299.49115 349.3125 294.73828 C 347.96344 286.04047 345.49377 277.83591 338.66211 271.67969 C 337.01147 270.19223 334.99829 268.73981 332.91016 270.50586 C 331.00409 272.11795 331.46597 274.41037 332.52148 276.47852 C 332.89832 277.21689 333.25049 278.0137 333.80273 278.60938 C 344.1423 289.7623 340.17554 304.65686 344.43945 317.46484 C 335.41278 312.99149 327.2128 308.23169 323.78516 298.12695 C 321.63568 291.79025 317.82272 286.24023 313.46484 281.13281 C 309.2359 276.17648 306.98773 270.52341 306.17969 263.98438 C 305.21884 256.20868 302.91769 248.70647 299.10352 241.75781 C 298.20779 240.12596 297.24124 238.57281 295.50195 237.73633 C 294.15973 237.09079 292.75769 236.28958 291.25391 237.19336 C 289.52634 238.23161 289.40784 240.0323 289.90625 241.62695 C 290.84561 244.63251 292.01553 247.57843 293.26562 250.47266 C 295.36108 255.32404 297.21524 260.21051 297.43359 266.0332 C 291.64902 265.18579 286.88409 262.98169 282.23047 260.49414 C 276.94525 257.66904 271.80621 254.54225 266.07617 252.64453 C 264.06482 251.97838 261.72794 250.71863 260.22461 253.17383 C 258.73798 255.60176 260.7395 257.24326 262.38086 258.625 C 268.55133 263.81934 275.34372 268.51874 283.04688 270.45117 C 295.27106 273.51767 302.58871 281.97574 309.32812 291.38672 C 312.46771 295.7709 315.23679 300.49698 316.33008 306.22656 C 311.31751 307.16965 307.10693 305.077 302.71875 304.70117 C 287.40942 303.38989 274.02753 298.08636 263.48828 286.44922 C 260.79541 283.47586 257.25894 281.28381 253.52734 279.91016 C 250.53447 278.80847 246.34306 275.66577 244.20508 279.80859 C 242.24713 283.60251 246.99118 285.15997 249.48047 287.11133 C 252.78491 289.70169 256.86798 291.52249 258.20898 296.30859 C 251.50128 299.40744 244.67323 298.9527 237.87695 298.73242 C 235.35416 298.65063 232.99858 299.19617 232.33789 301.92383 C 231.65379 304.7482 233.88728 306.07413 235.97656 307.19531 C 237.61241 308.07315 239.4203 308.29141 241.28516 308.39258 C 245.18164 308.60403 248.8588 307.50003 252.61133 306.80273 C 259.13843 305.58984 266.00119 303.37863 272.19727 306.54102 C 282.20743 311.65009 293.00619 313.42249 303.76367 315.24414 C 313.98224 316.97455 324.28201 318.17905 332.9375 324.43555 C 346.99268 334.59521 359.58218 346.53735 372.66602 357.86719 C 375.54657 360.36157 378.17371 363.50726 378.81055 367.6582 C 369.97372 370.31552 360.48236 369.01309 352.5 363.09766 C 345.67923 358.04303 337.79968 355.35983 330.33594 351.74414 C 328.37082 350.79221 325.60455 349.35391 324.16992 352.21875 C 322.8519 354.85077 324.71985 356.94498 326.87891 358.50195 C 331.36679 361.73834 336.49222 363.8121 341.33594 366.40039 C 343.79184 367.71274 346.53229 368.70389 348.01758 371.54102 C 346.952 373.45047 345.13873 374.22443 343.21875 374.81641 C 339.38687 375.99786 335.4866 376.69699 331.45312 376.74805 C 329.33774 376.77481 327.28192 377.69498 326.85547 379.85547 C 326.42673 382.02756 328.51889 382.85001 330.15039 383.69922 C 335.58575 386.52817 340.91403 385.44626 345.95508 382.84375 C 361.55469 374.79004 377.12875 377.56906 392.24219 383.59961 C 409.30688 390.40878 419.62875 404.79858 429.39258 419.47656 C 429.80582 420.09778 429.81848 420.9852 430.17383 422.34961 C 426.06412 422.90006 422.38593 423.05579 418.61133 422.14648 C 411.21158 420.36392 404.59143 417.02264 398.37695 412.69336 C 396.59869 411.4545 394.20096 409.23148 392.28516 411.82812 C 390.67545 414.00989 391.88101 416.6167 393.68555 418.62891 C 396.55496 421.82861 400.34415 423.52463 404.20117 425.14453 C 407.91217 426.70312 411.93668 427.74686 414.9707 430.9375 C 412.19272 433.60605 408.9024 433.32382 405.86914 433.94922 C 402.72562 434.59741 399.82474 435.96402 400.72656 439.88867 C 401.55618 443.4989 404.79498 443.57632 407.60938 443.07422 C 412.85144 442.13895 417.97272 440.78503 422.38867 437.45117 C 425.36502 435.20419 428.61945 434.32318 432.64258 434.98828 C 444.15021 436.89069 451.39484 444.44653 457.98438 453.03516 C 459.09885 454.48776 459.51273 456.31586 459.7207 458.17969 C 460.79962 467.84775 451.80685 481.71466 442.45508 484.7793 C 441.00525 485.25442 439.65604 485.39691 438.08594 485.09766 C 430.00082 483.55652 422.32889 481.11334 415.39844 476.46484 C 404.83478 469.37945 395.01862 461.29907 386.47656 451.99609 C 377.19501 441.88773 371.96265 429.85672 373.53516 415.50391 C 374.05313 410.77609 373.77228 405.84711 371.89258 401.25781 C 371.09753 399.31677 369.99796 397.58798 367.55078 397.85742 C 365.09271 398.12811 364.55103 400.211 363.97266 402.14062 C 363.51599 403.66412 364.09735 405.10016 364.47461 406.54688 C 365.61884 410.93509 365.97501 415.3927 365.6543 419.91211 C 365.40842 423.3768 363.92041 424.32254 360.74219 422.58789 C 354.07596 418.94958 348.13284 414.47516 343.69727 408.22266 C 341.9249 405.72427 339.82364 403.5874 337.06055 402.29297 C 333.88763 400.80655 331.77673 402.35312 332.11133 405.86328 C 332.44144 409.32623 334.30051 412.03882 336.57617 414.58398 C 342.90186 421.65881 350.77094 426.58325 358.96289 431.13281 C 365.59036 434.81351 368.83316 440.83847 370.74805 447.77734 C 368.254 449.19803 366.5484 448.48395 364.82617 447.85547 C 361.3865 446.60028 357.95523 445.31592 354.48633 444.14648 C 352.73636 443.55655 350.63266 442.99536 349.44141 444.80469 C 348.0542 446.91171 349.78839 448.65619 351.16406 449.98633 C 354.36884 453.08502 358.4093 454.56912 362.74414 455.40039 C 367.94556 456.39789 373.0928 457.1976 377.75781 460.31055 C 389.21768 467.95779 397.90124 478.72186 408.61719 487.17578 C 408.92596 487.4194 408.9122 488.07016 409.38281 489.65234 C 403.47452 489.65234 397.93362 489.69196 392.39258 489.64453 C 378.88495 489.52887 367.17212 485.06934 356.88477 476.09766 C 344.88806 465.63525 334.51501 453.76852 324.41992 441.54883 C 318.25623 434.08792 314.09952 425.84592 311.14648 416.65625 C 306.75934 403.00363 306.49146 388.44955 301.45703 374.97266 C 299.66531 370.17636 299.77335 365.16379 300.98438 360.2207 C 302.73434 353.07782 303.96304 345.87906 303.26953 338.50195 C 303.01773 335.82355 302.4007 332.62872 299.14453 332.55664 C 295.87579 332.48422 296.04221 335.61658 295.57812 338.12695 C 294.66107 343.08755 295.38861 348.39957 292.61914 353.42383 C 286.99759 348.61063 282.21768 343.75089 280.80273 336.39648 C 280.37622 334.17972 279.85672 331.64499 277.12109 330.91602 C 274.45001 330.20422 274.36829 333.40356 272.52148 334.21094 C 271.96079 333.92322 271.36533 333.64816 270.79883 333.32227 C 268.94168 332.25397 267.32767 329.31305 264.87891 331.68555 C 262.81119 333.68884 264.37506 336.07486 265.44336 338.12695 C 267.89624 342.83868 271.79959 346.15338 276.05859 349.18555 C 286.63861 356.71774 291.39771 367.46304 293.1582 380.38086 C 287.29901 379.40631 283.80771 375.39566 279.70508 372.46875 C 275.77683 369.66617 272.02783 366.60333 268.01562 363.93164 C 265.92615 362.54031 263.17661 361.5043 261.31836 364.14844 C 259.65094 366.521 261.36838 368.52872 263.10938 370.23047 C 263.58572 370.69614 264.05746 371.17789 264.5918 371.57031 C 271.03418 376.30182 277.27927 381.34427 283.99219 385.65625 C 292.26218 390.96838 297.8952 397.86984 300.00977 407.5625 C 301.03552 412.26444 302.36697 416.8999 303.4043 421.59961 C 303.746 423.14792 304.12476 424.9263 302.15039 426.33594 C 288.4245 422.88959 276.00204 417.27631 267.66992 404.76758 C 261.94672 396.17551 256.60138 387.15149 249.7207 379.55859 C 241.81731 370.83716 241.11113 361.47894 242.89258 350.82422 C 243.78618 345.47971 244.35973 339.87942 242.06445 334.60156 C 241.47821 333.25363 240.61963 331.75848 238.8125 331.95703 C 237.0379 332.15201 236.37598 333.79431 236.13086 335.19727 C 235.73337 337.47232 235.83481 339.83118 235.63672 342.14648 C 235.26765 346.4599 235.21075 350.85193 233.05469 355.86523 C 227.87363 349.30212 223.41859 343.50714 218.78906 337.85547 C 216.28171 334.79452 213.70854 331.01898 208.91211 333.38086 C 206.33762 334.64859 207.45421 340.05374 211.26367 344.42773 C 214.98218 348.69733 219.05139 352.66055 222.82227 356.88672 C 225.28503 359.64682 227.90401 362.38388 228.9668 366.30664 C 225.94527 366.84915 223.38002 366.60699 220.71875 366.10547 C 213.31618 364.71039 207.72891 360.392 202.4707 355.41406 C 200.37418 353.42935 197.78299 351.06049 195.11523 353.39844 C 192.15041 355.9967 194.51396 358.86459 196.31055 361.30273 C 196.89976 362.10233 197.64645 362.7897 198.34375 363.50586 C 204.40865 369.73462 212.13107 372.58392 220.39648 374.34961 C 225.73695 375.49045 231.51411 375.73584 235.82227 379.51758 C 244.87892 387.46753 248.9241 398.83899 255.92969 408.22461 C 253.82741 409.72815 252.3844 409.52545 250.88281 409.27734 C 243.35667 408.03366 235.84695 406.63281 228.2832 405.67773 C 219.88138 404.61679 213.1866 400.88541 208.06055 394.19141 C 206.84657 392.60611 205.5683 391.048 204.16211 389.63477 C 199.79294 385.2438 195.20589 381.1655 188.9707 379.53711 C 187.22774 379.08191 185.60777 378.93445 184.44727 380.50977 C 183.17984 382.23022 183.63414 384.01791 184.80664 385.5918 C 186.30756 387.60651 188.15706 389.27448 190.22656 390.7207 C 193.78069 393.20441 197.18558 395.86978 200.23047 398.98438 C 204.29279 403.13968 203.96468 404.58713 198.17188 405.97656 C 191.94144 407.47098 185.56212 406.34006 179.25781 406.64648 C 176.12602 406.79868 172.02614 406.3212 171.8418 410.53125 C 171.66162 414.64624 175.95781 414.50693 178.89453 415.29492 C 179.36411 415.42096 179.89075 415.33978 180.39062 415.34961 C 188.71851 415.51303 197.0511 415.74564 205.11523 413.05664 C 207.71942 412.18826 210.31194 412.3754 212.99805 412.84375 C 220.35214 414.12604 227.71787 415.37878 235.11914 416.33789 C 248.40996 418.06021 261.32239 420.86032 272.90039 428.06445 C 278.85052 431.76688 284.9339 435.44296 291.71484 437.18945 C 306.10913 440.89682 314.91467 451.34964 323.74219 462.10938 C 331.336 471.36539 338.64279 480.93475 348.26367 488.33789 C 349.89633 489.59415 352.20175 490.30298 352.85547 492.83984 C 350.95816 494.45053 348.68845 494.74799 346.36133 494.63281 C 340.54498 494.34506 334.70773 494.2045 328.92383 493.58594 C 314.36938 492.02933 302.18097 486.86536 296.53711 471.83594 C 294.77328 467.13882 292.00674 462.93311 288.39453 459.36133 C 285.63449 456.63208 282.36914 455.30179 278.44336 455.68164 C 277.04376 455.81711 275.67926 456.12454 275.10156 457.46484 C 274.46811 458.93439 275.55896 459.94467 276.54883 460.88086 C 278.84757 463.0549 281.35895 465.05267 283.38281 467.45898 C 286.89877 471.63931 289.69943 476.22781 289.51367 482.31641 C 288.29248 482.25357 287.63522 482.31042 287.01953 482.17578 C 273.12762 479.13794 261.40796 466.37396 259.37695 452.06055 C 258.7912 447.93225 258.06595 443.8342 256.21094 440.0625 C 255.19443 437.99579 254.05798 435.29636 251.25 436.0918 C 248.60719 436.84039 248.78969 439.66406 248.73438 442.01367 C 248.67543 444.51779 250.65744 446.99164 248.92969 449.75391 C 241.33496 445.8616 234.52945 441.12408 227.93945 436.0332 C 225.96992 434.51172 223.46288 432.64331 221.31445 435.15039 C 219.11926 437.71201 220.98756 440.10431 223.00195 442.06055 C 228.79359 447.68491 235.74291 451.67429 242.58398 455.79883 C 245.87756 457.78461 249.41757 459.5448 251.56836 462.81836 C 256.7361 470.68356 261.74551 478.64603 269.29492 485.1582 C 262.36096 487.27591 256.02989 486.21112 249.78906 486.25977 C 246.81052 486.28299 244.13895 484.733 241.67773 482.79102 C 236.19884 478.46793 231.36147 473.2308 224.96094 470.18164 C 212.21271 464.10864 201.96321 455.71127 196.61523 442.07617 C 195.28763 438.69131 192.34657 433.66925 188.50977 435.73438 C 184.13031 438.09158 187.51299 442.81348 189.24219 446.28516 C 191.71513 451.25009 194.3611 456.12775 197.42188 461.97656 C 189.108 460.56274 182.81059 457.18878 176.41992 454.13086 C 173.5417 452.75366 170.5948 451.659 167.49219 451.01953 C 165.26546 450.56064 163.67879 451.53516 162.5957 453.55469 C 161.41037 455.76492 163.13368 456.69025 164.41602 457.5293 C 174.10519 463.86874 184.325 469.35577 196.03906 470.21875 C 211.22836 471.33771 222.11423 480.13477 232.98633 489.25586 C 233.26758 489.49179 233.18808 490.15598 233.36133 491.06445 C 227.35033 494.56683 220.83397 497.03696 214.31641 499.42188 C 208.37137 501.59729 202.75055 500.98682 197.21289 497.37305 C 189.29292 492.20465 181.56815 486.56165 172.23828 483.94727 C 169.50208 483.18051 166.80925 482.3121 163.91602 482.73438 C 162.1841 482.98715 160.57318 483.63974 160.01758 485.40234 C 159.39684 487.37161 160.93387 488.45953 162.28711 489.43164 C 165.58688 491.80206 169.60107 492.58228 173.23242 494.2207 C 178.15079 496.43982 183.11107 498.57986 187.49609 502.26953 C 184.81055 504.67658 181.96939 505.11343 179.24609 505.58789 C 171.24031 506.9827 163.20642 508.22357 155.17383 509.45898 C 151.91386 509.96033 147.93352 510.79242 148.27344 514.46094 C 148.61174 518.112 152.88815 518.30579 156.02148 518.24023 C 162.01447 518.11487 167.85994 516.68219 173.76367 515.74414 C 182.28831 514.38965 190.20042 510.21954 199.03906 510.36719 C 212.97166 510.59994 226.04662 507.19794 238.41602 500.92383 C 242.15993 499.02481 245.98506 497.55011 250.23828 497.25977 C 259.52333 496.62592 268.82153 496.09103 278.07617 495.14062 C 289.7204 493.94479 298.53101 500.48816 309.33789 505.45117 C 303.61316 509.31512 298.93536 512.69513 294.04297 515.73047 C 282.29956 523.01648 270.25262 523.30756 258.01367 516.88477 C 255.95538 515.80463 253.83481 514.77106 251.43359 514.70508 C 249.44102 514.65027 247.01749 514.31683 246.2168 516.60742 C 245.38539 518.98584 247.09233 520.72589 249.04492 521.87109 C 250.3183 522.61798 251.83952 522.92517 253.18164 523.57227 C 255.44041 524.66132 258.31753 524.90668 259.58789 527.92773 C 250.22774 532.31873 240.91055 534.05658 230.86523 531.30469 C 221.25566 528.6723 211.38809 527.94629 201.95117 531.69531 C 193.30342 535.1308 184.99596 539.40198 175.67383 540.91406 C 174.58524 541.09064 173.48926 541.78766 172.59961 542.49805 C 171.03719 543.74567 169.29799 545.17291 169.99805 547.4707 C 170.70207 549.78143 172.9287 549.28058 174.68164 549.31445 C 183.60371 549.48688 191.5368 546.3753 199.30859 542.27734 C 208.01015 537.68921 217.07282 536.75378 227.03516 541.00195 C 219.30356 550.60699 212.07396 559.41803 200.23047 562.6875 C 194.46387 564.27942 188.74699 566.06097 183.03906 567.85547 C 180.33163 568.70667 177.69231 569.80145 175.81641 572.0957 C 174.4214 573.80182 172.91658 575.72424 174.24023 577.93945 C 175.6367 580.27661 178.17712 579.5882 180.12109 578.89258 C 184.18887 577.43695 188.07033 575.466 192.11133 573.92578 C 196.99281 572.06506 201.89276 570.09546 207.76367 570.46289 C 206.49181 573.98395 205.36362 577.08069 204.25391 580.18555 C 203.66585 581.83087 203.31645 583.56769 205.04297 584.68359 C 206.82317 585.83404 208.19646 584.49036 209.45898 583.44336 C 212.06773 581.28003 213.90625 578.57123 215.29688 575.45703 C 218.4926 568.30042 222.10818 561.33392 226.73047 554.99609 C 231.2079 548.85693 236.50121 543.66425 244.37109 541.92383 C 254.92796 539.58923 265.24884 536.38245 275.53516 533.07812 C 277.57712 532.42218 279.57477 531.85419 282.13672 533.02148 C 278.75446 540.84656 274.81149 547.78009 267.21484 551.93555 C 264.0003 553.69397 260.70557 555.35266 257.98047 557.85352 C 255.41394 560.20886 253.11174 562.758 253.2168 566.77539 C 261.28398 569.42792 265.45749 561.15497 272.5332 559.9375 C 271.48956 563.69299 270.38394 566.83612 269.80273 570.07422 C 269.44379 572.07428 268.86493 574.90033 271.51367 575.71289 C 273.76324 576.40295 275.53104 574.54462 276.80469 572.70508 C 278.92337 569.64514 280.49966 566.13434 280.8125 562.57227 C 281.86954 550.53619 289.44095 541.47644 294.50781 531.28516 C 295.43646 529.41724 297.05695 527.71887 298.73047 526.42383 C 307.37503 519.73395 316.8223 514.69202 327.62109 512.26172 C 340.2041 509.42999 353.06812 509.68527 365.78906 508.40039 C 369.14429 508.06149 372.3389 508.98334 375.37891 511.52344 C 370.74408 518.61108 364.34766 523.60803 358.08594 528.74609 C 355.68774 530.71393 353.13831 532.33942 349.92188 531.62891 C 343.28754 530.16327 336.69272 531.58502 330.08203 531.66211 C 326.79959 531.70032 322.06116 531.08319 321.94336 535.21484 C 321.81973 539.54907 326.55484 539.99268 330.27148 540.33594 C 333.10779 540.59784 336.08597 539.59155 338.98633 540.9668 C 336.04483 547.27948 331.57715 551.27478 324.97852 552.22656 C 321.2171 552.7691 317.34405 552.55127 313.52148 552.66016 C 311.69583 552.71216 309.84283 552.53198 308.15234 553.48047 C 306.69629 554.2973 304.95554 555.0553 305.10938 557.01953 C 305.26095 558.95569 307.03925 559.6145 308.62695 560.125 C 310.41626 560.70032 312.70477 559.95258 314.01562 562.30078 C 313.09219 564.34021 311.25931 565.50055 309.57422 566.82617 C 306.9632 568.88025 304.30521 570.89472 301.86719 573.14258 C 300.26334 574.62134 298.759 576.56927 300.53125 578.81055 C 302.16534 580.87701 304.34821 580.42114 306.42578 579.33984 C 311.06235 576.92639 315.05719 573.70532 318.46289 569.74609 C 322.52533 565.02332 326.93631 560.9292 333.20703 559.10352 C 337.0878 557.97351 340.28482 555.42047 342.54492 551.92773 C 346.01956 546.55798 350.84268 542.98132 356.7793 540.65039 C 363.34335 538.07306 369.3508 534.45709 374.44336 529.53906 C 387.76285 516.67609 403.27313 510.71616 421.81445 514.41016 C 427.81625 515.6059 434.00821 516.52942 438.60156 521.30078 C 445.99808 528.98395 443.92181 538.89423 434.14062 542.72656 C 429.06494 544.71521 424.35855 543.21655 419.58203 541.60156 C 415.51349 540.22595 411.81058 537.69952 407.30664 537.67578 C 405.54929 537.6665 403.8493 537.95569 403.13281 539.75586 C 402.3569 541.70544 403.81513 543.01416 405.14258 543.90039 C 407.59442 545.53735 410.25989 546.85278 413.46484 548.65625 C 407.21573 552.68848 400.83008 553.99725 394.21484 554.65234 C 386.78903 555.38769 379.71179 553.03662 372.45312 552.32031 C 369.58579 552.03735 366.44144 552.31366 365.83008 555.98828 C 365.21491 559.68591 368.53281 560.13556 370.92188 560.98438 C 372.2803 561.46704 373.88745 561.21735 375.375 561.37305 C 377.80396 561.6272 380.27417 561.80652 382.47461 563.73438 C 379.55676 568.06616 374.83868 569.75464 371.16602 572.72461 C 369.38477 574.16504 367.00449 575.79993 368.42578 578.43555 C 369.89444 581.15906 372.65564 580.61078 375.08594 579.64258 C 379.65674 577.82166 383.43497 574.87457 386.76562 571.27344 C 389.94547 567.83545 393.29105 564.56183 397.98438 563.21484 C 404.53375 561.3352 411.02393 559.17792 417.66992 557.74023 C 421.14725 556.98804 425.21707 555.98785 428.08398 559.40625 C 428.01898 561.02661 427.21268 561.88782 426.42578 562.74805 C 420.02142 569.74933 413.90155 577.04309 407.12695 583.66602 C 399.30054 591.31726 390.11673 596.42187 378.56836 595.74609 C 371.51059 595.33313 365.33331 592.81946 359.65039 588.75977 C 352.659 583.76526 345.22366 579.73059 336.39453 579.33594 C 334.13168 579.23486 331.40286 579.29059 330.86914 582.36719 C 330.38626 585.15082 332.38565 586.62061 334.56836 587.65625 C 335.58646 588.13934 336.82538 588.13049 337.92969 588.46094 C 345.92545 590.85352 353.18509 594.52887 359.33008 600.125 C 358.84314 600.97766 358.74884 601.362 358.50586 601.53516 C 343.90994 611.93366 309.76816 613.05377 296.55273 601.00977 C 292.39008 597.21606 287.30505 594.49152 281.63672 593.20703 C 279.95859 592.82666 278.20819 592.35089 277.17578 594.15625 C 276.1618 595.9295 277.43362 597.32983 278.50195 598.60352 C 281.04001 601.62958 284.5687 603.19879 287.97852 604.94531 C 290.88586 606.43463 294.00754 607.65186 296.33789 611.13477 C 292.16061 612.68646 288.37552 614.37976 284.1543 613.33203 C 270.10663 609.84515 256.97295 605.11664 250.91211 590.01367 C 249.23006 585.82214 246.03099 582.45978 241.67773 580.55469 C 238.20241 579.03375 236.74066 580.06879 236.66797 583.87305 C 236.6225 586.25342 237.89127 588.00873 239.1543 589.73047 C 240.82437 592.00714 242.77434 594.07672 244.49023 596.32227 C 245.56899 597.73395 247.22581 599.22644 246.15625 601.17969 C 245.25833 602.81946 243.28539 602.49872 241.63086 602.67188 C 236.6682 603.19122 232.08328 602.34601 227.75586 599.69922 C 225.33145 598.21637 222.52045 597.81555 220.67188 600.65039 C 218.559 603.8905 221.44006 605.54492 223.41602 607.11523 C 224.79796 608.21356 226.63387 608.79053 228.33008 609.43359 C 232.84689 611.14575 237.61408 610.61169 242.19141 610.25391 C 255.89519 609.18268 265.97543 618.39264 278.79297 621.64062 C 265.72174 632.89941 252.78146 638.40607 235.88867 633.15039 C 222.07774 628.85352 209.92838 622.19745 198.25586 614.13086 C 195.50793 612.23181 192.61145 610.51605 189.29883 609.85742 C 187.32408 609.46472 185.03542 609.41284 184.04102 611.61719 C 183.10841 613.68457 184.05575 615.6897 185.85742 616.85352 C 188.92425 618.83478 192.20496 620.48187 195.3418 622.35938 C 198.24704 624.09827 201.47017 625.53827 203.16406 629.31055 C 200.96468 629.85687 199.2097 630.27142 197.46484 630.73047 C 192.33667 632.07971 186.76837 631.36438 181.91797 633.91602 C 180.07182 634.88721 177.47794 635.8847 178.12891 638.50586 C 178.71989 640.88562 181.19182 641.1778 183.45898 641.34375 C 188.90735 641.74255 194.21416 640.54987 199.08984 638.62695 C 214.34 632.61231 226.94177 642.19794 242.03711 644.15039 C 234.19928 652.40417 227.83328 659.89551 217.06836 660.99805 C 213.61046 661.35223 210.18544 662.06036 206.76172 662.69727 C 201.70154 663.63837 196.53276 664.33362 192.20117 667.45703 C 190.67581 668.55695 189.42462 670.01074 190.02539 672.10742 C 190.5827 674.05243 192.23729 674.3598 194.00195 674.42773 C 196.69933 674.53156 199.26385 674.08789 201.82422 673.17383 C 209.0161 670.60626 216.6032 670.30188 224.61133 668.79688 C 222.64055 674.18372 220.02905 678.18567 216.98242 681.93945 C 214.98828 684.39655 212.92972 686.8075 211.04688 689.34766 C 209.45674 691.49286 208.6853 694.34857 210.37695 696.3125 C 212.38878 698.64813 215.06302 696.82202 217.09766 695.50586 C 219.33362 694.05957 221.02881 691.96075 222.64062 689.80469 C 227.06253 683.88989 230.31674 677.32629 233.38281 670.66797 C 238.33362 659.91656 246.18347 652.13318 256.90625 647.19336 C 267.6734 642.23315 278.30087 636.93103 287.34766 629.18164 C 295.75974 621.97583 305.34085 619.1781 316.05664 620.48828 C 321.10471 621.10541 326.49341 620.37732 331.69727 622.82422 C 329.10638 626.48456 326.772 629.51453 324.7207 632.72461 C 314.65118 648.48273 299.9758 657.4126 282.13281 661.74805 C 276.31851 663.16083 270.16135 662.51959 264.49414 664.74023 C 262.54623 665.50354 260.62033 666.68225 261.07812 669.02148 C 261.56506 671.50952 263.86057 672.1637 266.13672 672.16992 C 267.27185 672.17303 268.40555 671.71991 269.54297 671.48438 C 273.68256 670.62714 277.82516 669.82465 282.22266 670.58203 C 280.72946 674.94781 278.4971 678.39471 274.83594 680.72656 C 270.43832 683.52747 265.46008 684.97632 260.58203 686.66211 C 256.49582 688.0741 252.42615 689.54669 248.41797 691.16406 C 246.3674 691.99139 245.25093 693.68573 245.85352 695.98242 C 246.45352 698.26935 248.44905 698.2821 250.30078 698.29102 C 253.20837 698.30499 255.77827 697.01318 258.44141 696.08008 C 262.91837 694.51141 267.26843 692.43994 272.14258 692.22852 C 273.48962 704.72418 266.50229 713.56201 254.26758 715.66406 C 246.23233 717.04474 238.14853 718.64105 232.05078 724.7793 C 230.4422 726.3985 228.39993 728.44507 229.87305 730.85742 C 231.41008 733.37451 233.99928 732.2132 236.19336 731.38281 C 238.05983 730.67645 239.92522 729.95062 241.73242 729.10742 C 247.6978 726.3244 253.84265 724.24976 260.78711 723.64844 C 260.23154 725.01007 259.81747 725.90558 259.49609 726.83398 C 257.11389 733.71606 253.19429 740.10712 252.70898 747.58984 C 252.59543 749.34082 252.2021 751.56982 254.46484 752.31836 C 256.53297 753.00256 258.35864 752.07153 259.8125 750.46094 C 263.07129 746.85077 264.25751 742.31287 265.30859 737.78125 C 267.01495 730.42444 269.4783 723.45264 273.69336 717.08594 C 277.19815 711.79218 280.13196 706.05688 281.08789 699.74219 C 282.65478 689.3916 287.3009 680.49109 293.04688 672.02734 C 298.00281 664.72729 305.90384 661.52655 313.33398 656.9668 C 314.05133 661.40424 313.81299 665.00415 312.49805 668.50977 C 310.8623 672.87054 309.14581 677.20166 307.58203 681.58789 C 306.93124 683.41327 305.81213 685.68622 308.11523 686.96094 C 310.0365 688.02441 311.57962 686.20013 312.83789 684.99023 C 318.76273 679.29285 321.48886 671.96497 322.24219 664.04883 C 323.04288 655.63519 325.01187 648.14636 332.14062 642.6543 C 335.56589 640.01544 337.87762 636.16919 340.19531 632.51367 C 344.19016 626.21313 349.72537 621.84467 356.61133 619.25586 C 366.09747 615.68951 375.52481 611.9043 385.57422 610.08008 C 387.37265 609.7536 389.25937 608.80322 390.77344 610.34375 C 392.62814 612.23096 390.90689 614.15326 390.23242 615.86328 C 383.46841 633.01245 371.52969 645.12262 354.50391 652.2207 C 351.42783 653.50305 348.37573 654.8631 345.77734 657.01367 C 344.60431 657.98456 343.44162 659.11444 344.05273 660.82617 C 344.71765 662.68878 346.49197 662.09998 347.90625 662.33594 C 350.35458 662.74432 352.36392 659.71661 355.61523 661.81836 C 353.08557 666.72095 349.83969 671.42609 348.14648 676.63672 C 345.05985 686.1355 338.31293 692.25305 330.82812 697.96484 C 327.84692 700.23987 324.62561 701.62946 320.75586 701.79297 C 314.37729 702.06256 308.26331 703.65643 302.56641 706.60938 C 300.07822 707.89911 297.65704 709.34082 297.92773 712.72461 C 305.60529 715.38367 312.86682 709.63953 320.91406 711.85938 C 317.45676 720.28723 311.28381 725.18939 304.49609 729.50391 C 298.73318 733.16699 292.78293 736.57477 288.22656 741.82422 C 286.96191 743.28125 284.80133 744.68134 286.41016 746.88281 C 288.06189 749.14301 290.71729 748.81683 292.76172 747.625 C 297.06751 745.11469 301.34009 742.49744 305.01367 739.04492 C 306.42953 737.71429 307.71759 736.03601 310.4707 736.35156 C 310.59686 741.33166 308.23965 746.40265 310.4043 751.31445 C 313.27429 751.90357 314.58395 750.15527 315.72656 748.28516 C 317.38858 745.56482 318.84277 742.5946 319.0918 739.48047 C 320.10263 726.83978 327.14902 717.09595 334.23047 707.41992 C 336.48846 704.33466 339.47107 701.57434 343.65625 701.13086 C 343.65625 704.7677 343.62353 708.05615 343.66797 711.3418 C 343.69916 713.64984 343.30423 716.72046 346.10352 717.25 C 349.36307 717.86658 349.66721 714.42468 350.55078 712.26367 C 352.52878 707.42633 353.1648 702.12341 353.125 697.11719 C 352.99618 680.92078 361.37762 668.67529 370.67969 656.79688 C 373.52091 653.16876 377.57175 650.7724 381.66602 648.80664 C 382.99237 650.08112 382.34647 651.2002 382.17773 652.31445 C 381.01022 660.02362 379.27103 667.70343 378.84766 675.45508 C 377.98755 691.20264 373.27744 705.63025 366.72656 719.85938 C 362.56619 728.89612 357.5578 736.72705 349.55664 742.63477 C 347.96921 743.80688 346.56506 745.3252 345.35938 746.90039 C 335.40237 759.90887 320.9165 763.91962 305.88086 766.56836 C 299.57556 767.67902 293.38019 768.8551 288.24609 772.81836 C 285.67557 774.80267 282.20062 777.7832 284.3125 781.05273 C 286.41843 784.31317 289.96521 781.50781 292.74609 780.24219 C 297.32007 778.16058 301.78726 775.65991 307.17188 776.37305 C 305.90054 782.96905 299.34515 787.13513 299.9707 794.16406 C 303.42081 794.92194 305.56949 793.58759 307.59375 791.6582 C 310.90967 788.4975 313.19843 784.67944 315.16602 780.59961 C 320.17441 770.2146 329.53983 766.80231 340.3125 764.51953 C 339.40118 778.17987 336.9874 790.55121 328.54883 801.03516 C 326.88727 803.09943 325.40222 805.36304 324.18945 807.7168 C 322.80078 810.4118 321.37347 813.74939 324.84766 815.66797 C 327.91861 817.36377 329.59998 814.27301 331.13672 812.20117 C 334.25195 808.0011 337.19775 803.6745 340.27148 799.31836 C 341.50815 800.61725 341.42343 801.83118 341.70312 802.94922 C 342.97461 808.0318 342.34567 813.23682 342.8418 818.35742 C 343.06784 820.69037 343.15616 824.02063 346.47461 824.02344 C 349.68747 824.02612 350.11966 820.87177 350.21289 818.44141 C 350.39108 813.79755 350.53143 809.15375 349.76953 804.49023 C 347.92084 793.17468 346.00687 781.80273 348.4043 770.33594 C 349.77713 763.76978 348.95871 756.43732 354.13281 751.08398 C 358.48611 746.57983 363.1528 742.37824 368.07617 737.66406 C 371.59448 746.42078 375.84048 754.71332 373.40234 763.59375 C 369.81897 776.64539 371.51303 789.66852 371.68555 802.73633 C 371.72439 805.67609 372.41687 808.35101 375.6582 809.98047 C 381.20993 805.65326 381.72253 799.78162 380.79297 793.44531 C 379.7186 786.1217 377.96661 778.75537 382.16016 771.46289 C 387.18793 773.80243 389.79166 778.0105 392.35352 782.27148 C 393.81406 784.70062 395.55002 788.03931 398.6582 786.49414 C 401.79352 784.93555 400.61911 781.19208 399.79102 778.34766 C 399.09314 775.95056 397.70258 773.82123 396.03516 771.91602 C 394.06 769.65918 392.26782 767.21094 390.09766 765.16211 C 386.18115 761.46472 383.9089 757.03503 382.86914 751.79102 C 382.1597 748.21289 381.25046 744.64551 380.08789 741.18945 C 375.40915 727.28034 379.46497 714.92188 386.56055 702.625 C 388.72491 705.15118 390.46545 707.62256 392.63281 709.63477 C 399.93826 716.41711 402.85294 724.73016 403.05664 734.625 C 403.19565 741.37866 402.92416 748.3139 405.01562 754.91406 C 405.9357 757.8175 407.28534 761.23254 411.03906 760.12891 C 414.16129 759.211 414.23898 756.065 413.68555 752.96875 C 412.71014 747.51196 411.50473 742.01386 412.64062 736.0625 C 415.905 738.07141 416.93454 741.75171 420.13672 743.11133 C 421.51743 743.69763 422.83575 744.45972 424.3418 743.33789 C 425.80298 742.24927 425.73694 740.86865 425.42969 739.30859 C 424.85815 736.4068 423.18109 734.24622 421.26367 732.07812 C 417.30313 727.59973 411.51105 724.66998 409.01758 719.06055 C 405.99863 712.2688 401.84537 706.37622 397.31641 700.56445 C 392.0394 693.79285 389.30658 685.99243 390.6543 677.22461 C 392.16739 667.38104 393.80621 657.5575 395.38867 647.72461 C 396.92389 638.18512 398.789 628.75946 403.21094 620.01172 C 405.19919 616.07843 409.39578 613.81653 410.86133 609.60547 C 413.06394 603.27643 417.16089 598.32257 421.86523 593.75586 C 427.96896 587.83075 433.59695 581.48022 439.01367 574.91992 C 443.3042 569.72351 448.47418 565.54474 454.82812 563.04688 C 461.0668 560.59436 466.14383 562.71594 468.46094 568.98828 C 470.78302 575.27411 470.2821 581.47729 466.64844 587.18164 C 463.11569 592.7276 458.52219 597.31427 452.96875 600.86133 C 444.39847 606.33539 436.07605 612.16242 428.09375 618.45508 C 423.50736 622.07068 419.14307 625.9967 416.28516 631.20703 C 414.76996 633.96942 413.93518 637.3747 417.01953 639.28516 C 420.0322 641.15131 421.67117 637.94159 423.20117 635.93359 C 426.10367 632.12433 428.85303 628.20465 432.91016 625.66406 C 434.42746 626.45612 434.51889 627.6134 434.52148 628.80469 C 434.53973 637.20032 432.89499 645.03107 426.76562 651.29688 C 423.7359 654.39404 420.70999 657.50116 417.56445 660.47852 C 413.315 664.50079 410.72824 669.48279 409.13086 674.98242 C 408.51456 677.10437 407.52878 679.86536 410.16016 681.26367 C 412.95703 682.75 413.82138 679.76904 414.99609 678.2168 C 419.08786 672.81006 421.67242 666.23315 427.62305 662.27148 C 429.10083 661.28766 430.31253 659.32635 432.32227 660.97852 C 433.98352 662.34418 433.73669 664.21332 432.95117 666.02344 C 431.42798 669.53345 429.84473 673.01886 428.4043 676.5625 C 427.27969 679.32916 427.15802 681.97369 429.63477 683.85938 C 433.63751 683.36383 433.51428 679.12799 436.11914 677.76953 C 438.30865 678.12036 439.2453 681.5368 441.84766 679.98633 C 444.39493 678.46875 443.41547 675.90369 443.38086 673.63281 C 443.31659 669.41357 442.09235 665.41132 440.88281 661.46094 C 439.06586 655.52661 438.88312 649.79254 440.9668 643.85742 C 442.22202 640.28192 443.66046 636.54376 443.2832 632.6875 C 442.21631 621.78113 447.58783 614.66132 456.38477 609.39453 C 457.62302 608.65314 458.82544 607.2442 460.39844 608.21484 C 461.90176 609.14258 461.39215 610.79761 461.38281 612.30859 C 461.30145 625.47961 460.33649 638.48364 455.04297 650.80273 C 454.60608 651.8194 454.70816 653.09711 454.68164 654.25586 C 454.60989 657.39471 455.19824 660.22424 458.49805 661.71094 C 464.19675 658.94391 460.70389 651.35999 465.76758 648.06641 C 467.67316 650.06262 467.34518 652.79547 468.3457 654.99023 C 468.95868 656.33484 469.42322 658.00043 471.26367 658.00977 C 473.04752 658.01868 473.68985 656.45526 474.33984 655.11914 C 475.80377 652.10992 475.67462 648.98248 474.74414 645.87695 C 473.50409 641.73816 471.92313 637.68695 470.90234 633.49805 C 466.81058 616.70703 470.44562 601.82202 482.53516 589.31055 C 485.54306 586.19769 489.36102 584.56311 493.87109 586.22656 C 498.61676 587.97687 500.5549 591.92194 500.53906 596.42773 C 500.49289 609.55914 502.18643 622.84656 499.5 635.79102 C 494.97864 657.57696 484.95193 675.38525 461.9707 682.62305 C 457.98895 683.87707 453.45737 685.16077 451.42578 688.86719 C 447.11099 696.73914 440.24127 700.26831 432.14648 702.63281 C 428.85107 703.59528 424.52084 705.51184 426.20117 709.69531 C 428.13531 714.51056 432.28372 711.8183 435.59766 710.41211 C 435.75101 710.34699 435.90262 710.27741 436.05273 710.20508 C 441.10538 707.77222 442.47272 708.54938 442.62109 714.28125 C 442.75906 719.6106 442.65567 724.94635 442.63281 730.2793 C 442.6203 733.19708 443.10074 735.90955 445.48047 737.95117 C 448.02557 737.87653 449.43289 736.3114 450.38281 734.26172 C 452.00619 730.75916 451.69315 727.01532 450.95117 723.46484 C 449.53604 716.69312 450.51846 710.15808 452.57031 703.80078 C 455.367 695.13574 464.06155 689.60022 472.63086 691.10156 C 471.43628 698.38031 470.08932 705.66522 469.10742 712.99805 C 468.6756 716.22247 467.03702 719.41815 468.38086 722.7832 C 468.95383 724.21802 469.77127 725.54846 471.3457 725.94531 C 473.17172 726.40564 474.03705 724.88647 474.87891 723.71094 C 476.9635 720.80011 477.77771 717.41071 478.34375 713.93164 C 479.72894 705.41803 480.36594 696.72882 483.47266 688.58984 C 487.04834 679.22223 492.6666 671.47199 501.86328 666.33203 C 502.54431 667.39832 503.21808 668.02167 503.37109 668.75391 C 508.47217 693.16315 505.33575 715.81049 488.58594 735.32227 C 479.39194 746.03229 469.4043 755.0733 453.55078 753.97656 C 448.43472 753.62262 443.04541 755.83118 439.44141 760.35352 C 438.62964 761.37213 437.67764 762.53009 438.23242 763.96289 C 438.8428 765.53925 440.39114 765.22461 441.68164 765.32812 C 444.74423 765.57379 447.58966 764.50848 450.49219 763.81836 C 452.64941 763.30548 454.74448 762.86542 456.47461 765.58594 C 450.4996 773.86005 443.42184 780.32678 432.62891 781.67188 C 426.3316 782.4566 420.80536 784.95758 416.76758 790.16016 C 414.78201 792.71851 413.30618 795.67834 415.88086 798.19922 C 418.82852 801.0852 421.03253 798.08746 422.85352 796.02734 C 426.71655 791.6571 431.39996 789.60022 437.73438 789.96289 C 432.1767 801.83643 425.83676 811.83929 412.24414 815.13867 C 401.73673 817.68921 393.16074 823.66614 387.11328 832.84766 C 386.23508 834.18103 385.08286 835.81311 386.67578 837.36523 C 388.19257 838.8432 390.12207 838.5929 391.78711 837.67773 C 394.41956 836.23096 396.67188 834.2597 398.86328 832.17969 C 405.9534 825.44977 414.74182 822.552 424.50195 820.61523 C 423.80524 825.93951 422.81406 830.4671 421.1875 834.80078 C 419.78909 838.52673 417.94269 842.08179 416.40234 845.75781 C 415.55621 847.7771 414.76538 850.18799 416.84961 851.70117 C 418.82858 853.138 420.63287 851.23877 422.20312 850.14844 C 423.39838 849.31842 424.35056 848.09167 425.27734 846.93359 C 428.82098 842.50549 430.05127 837.14496 431.37109 831.79688 C 433.39578 823.59228 434.22147 815.06122 438.20508 807.38672 C 443.21313 797.73859 448.93982 788.53229 456.09961 780.36914 C 460.92804 774.86401 464.83649 768.5752 470.37891 763.6875 C 471.71069 762.51306 473.14902 761.71625 474.91016 762.42773 C 476.60974 763.11438 476.75638 764.74701 476.60352 766.24609 C 475.88196 773.32416 476.35938 781.0163 471.73633 786.80273 C 464.6626 795.65662 461.53503 806.59619 455.18359 815.78906 C 452.53833 819.61774 451.06543 824.13873 451.64844 829.04297 C 451.86591 830.87219 452.56244 832.3634 454.38867 832.79688 C 456.31253 833.25354 457.56659 831.948 458.32031 830.40234 C 458.88626 829.2417 459.03088 827.87958 459.39258 826.61523 C 460.23535 823.66882 460.25195 820.32794 463.10742 818.30273 C 465.58957 819.82422 466.07556 823.48541 469.5625 823.64062 C 472.02564 819.75409 471.19504 815.47571 471.19922 811.4043 C 471.20441 806.35718 472.40976 801.8114 475.61328 797.9375 C 483.48373 788.42029 486.42575 777.23584 487.42969 765.19531 C 488.42423 753.26727 495.27496 744.51276 503.50586 736.4375 C 505.79575 738.55432 505.48108 740.78589 505.6582 742.9043 C 506.07349 747.87091 506.05417 752.93787 507.09375 757.77539 C 511.3541 777.6001 505.8093 795.23981 495.71484 811.98828 C 491.63779 818.75287 484.75305 823.41821 481.08008 830.26562 C 475.86487 839.98822 468.92896 847.4668 459.39062 852.98047 C 455.06601 855.48029 452.08212 859.80145 450.39062 864.66211 C 449.68488 866.69006 447.90524 869.21686 450.82812 870.83398 C 453.39969 872.25671 455.09317 870.45416 456.67383 868.50781 C 459.0846 865.53918 461.51389 862.54889 464.25586 859.89844 C 466.96933 857.2757 470.05029 855.00134 474.00195 854.82031 C 475.52084 856.71625 475.75589 858.69507 475.62305 860.71289 C 475.4487 863.36072 474.9202 866.00201 474.93945 868.64258 C 474.96014 871.47595 475.13885 874.81 478.91992 875.06445 C 482.59778 875.31183 482.9425 872.00885 483.17188 869.4375 C 483.49661 865.79767 483.72177 862.06085 483.27344 858.45508 C 481.77466 846.40045 485.80945 836.58447 494.54883 828.43555 C 497.65961 825.53491 499.31445 821.237 504.25 818.41797 C 506.49307 829.36578 511.93478 838.91821 511.36133 850.44336 C 510.08328 855.83997 508.92664 860.82135 507.76172 865.80078 C 507.11826 868.55127 506.27274 871.27057 505.86133 874.05469 C 505.43341 876.95007 505.57318 880.14142 509.01172 881.06055 C 512.60947 882.02228 513.98529 879.07281 514.93945 876.33594 C 515.64471 874.3128 515.77484 872.09558 516.41406 870.04297 C 517.75299 865.74414 517.24615 860.89929 520.16797 856.51562 C 525.11517 861.65906 529.19995 866.80591 531.7793 873.05078 C 532.67371 875.21613 533.70252 877.29242 535.61133 878.80664 C 536.98261 879.89459 538.4624 880.83575 540.1543 879.88867 C 541.93506 878.89166 542.48212 877.16083 542.01172 875.1543 C 540.89941 870.409 539.17548 865.94482 536.1582 862.03906 C 533.00397 857.95605 529.67938 853.98023 526.83594 849.6875 C 515.63806 832.78217 511.04468 814.65625 517.36523 794.71094 C 517.93719 792.90625 518.0094 790.71198 520.38477 789.62695 C 524.14984 793.32489 527.82031 797.13989 531.71875 800.70703 C 537.19464 805.71735 540.70349 811.82062 542.33203 818.99023 C 543.62012 824.66119 544.67688 830.36652 544.72461 836.24219 C 544.75861 840.43048 545.56427 844.57721 548.21875 847.99609 C 549.30438 849.39447 550.85828 850.99005 552.88281 850.10547 C 554.95471 849.20007 555.4649 847.05628 555.09766 845.00195 C 554.51337 841.73389 553.3515 838.55579 552.93359 835.27539 C 552.21716 829.65082 551.50733 823.98498 551.84375 818.16602 C 559.83685 819.81634 568.34155 829.31281 569.67383 837.1582 C 570.71314 843.27887 570.71356 849.42102 570.65234 855.58008 C 570.62347 858.4859 571.11346 861.28857 572.85938 863.61523 C 574.34406 865.59357 576.09357 867.76453 579.06641 866.40039 C 581.74304 865.17206 581.51172 862.65155 581.14648 860.31445 C 580.65961 857.1991 579.74677 854.13458 579.46094 851.00781 C 579.22705 848.44965 578.56146 845.24823 581.33203 843.72852 C 583.85583 842.34412 586.09937 844.52032 588.13672 845.82031 C 589.93738 846.96936 591.42621 848.60645 593.05664 850.02344 C 594.18439 851.00354 595.20856 852.16528 596.47656 852.9082 C 598.49768 854.09229 600.82397 855.2558 602.97461 853.46484 C 605.28577 851.54034 604.05341 849.10657 603.05273 847.04492 C 600.3999 841.57928 595.50812 838.74609 590.08984 836.75195 C 583.61908 834.37054 578.37897 830.65747 574.85352 824.54297 C 571.28583 818.35535 565.88245 813.92139 560.04297 809.94141 C 555.78003 807.03601 551.51056 804.09619 547.54102 800.8125 C 533.85425 789.4906 523.38617 775.89429 519.82422 758.0957 C 517.16064 744.78607 518.29138 731.23993 518.59375 717.77539 C 518.59918 717.53217 518.99585 717.29767 519.375 716.87695 C 523.25275 718.51282 525.67664 722.09735 529.03711 724.44141 C 542.42841 733.78259 550.29315 745.82709 547.6582 762.9375 C 547.60816 763.26282 547.62579 763.60602 547.66211 763.93555 C 548.49274 771.46509 550.7027 778.57697 554.43359 785.16016 C 555.50287 787.04688 557.19836 788.93439 559.68555 787.92188 C 562.27289 786.86859 562.51123 784.45526 561.88867 781.97656 C 561.20099 779.23828 560.55963 776.48218 559.73828 773.7832 C 557.50678 766.45038 556.92017 758.97186 556.97461 751.28516 C 569.01373 753.04962 578.69318 761.47382 580.63867 772.45703 C 582.48895 782.9032 585.04443 793.24127 585.82031 803.88281 C 586.08429 807.50256 586.78729 811.16296 588.32617 814.51953 C 589.2431 816.51947 590.6239 818.61548 593.18164 817.94531 C 595.82867 817.25183 596.60583 814.98462 596.08008 812.37305 C 595.75354 810.75134 595.01941 809.10815 597.29883 807.58984 C 601.76306 809.65802 604.01453 813.92035 606.28906 818.07812 C 607.41663 820.13928 608.62793 822.00793 611.21875 821.23828 C 614.13501 820.37207 613.31653 817.91473 612.96094 815.80078 C 611.8161 808.99554 608.15259 803.41895 602.60938 799.87695 C 593.02185 793.75067 591.54706 784.20471 590.42383 774.39648 C 589.64978 767.63715 591.73523 766.5473 598.21875 768.58594 C 615.76544 774.10315 630.64301 798.02295 630.71094 816.80273 C 630.73438 823.27399 631.45044 829.7688 633.99219 835.83984 C 635.05322 838.37433 637.15369 839.83997 640.01562 839.08594 C 642.88812 838.32904 642.28589 835.76416 642.2793 833.67969 C 642.2757 832.53992 642.03302 831.35248 641.6543 830.27148 C 639.87866 825.20374 639.4043 819.8905 638.64258 814.63672 C 637.92578 809.69263 640.46667 807.59967 645.08203 809.47266 C 649.78009 811.37915 653.54053 814.66718 657.21289 818.11914 C 659.36243 820.13959 662.05878 823.8747 665.03516 821.21094 C 668.34918 818.24506 665.4082 814.74322 663.12109 812.08789 C 661.61822 810.3432 659.85101 808.677 657.88477 807.51172 C 653.73828 805.05457 649.5351 802.57324 645.08203 800.7793 C 636.48041 797.31427 631.95831 790.40698 628.37305 782.49219 C 626.72754 778.85962 628.41876 777.33398 631.80469 777.44922 C 634.93585 777.55591 638.05542 778.19617 641.16602 778.6875 C 644.21899 779.1698 648.3457 780.89429 649.38672 776.92383 C 650.46753 772.80188 646.15717 771.35309 642.91602 770.14844 C 641.56396 769.64594 639.9707 769.69177 638.48438 769.67188 C 634.31848 769.61603 630.13403 769.41412 625.99023 769.72266 C 621.39984 770.06458 617.51123 768.79279 613.875 766.09961 C 607.62665 761.47162 600.52234 758.6485 593.0332 756.79297 C 587.4776 755.4165 582.53717 752.76447 577.46094 750.2207 C 558.07385 740.50568 545.66065 723.10681 531.25391 708.08008 C 518.03992 694.29742 518.35053 676.34076 519.95312 658.60547 C 520.02777 657.77924 520.37506 656.98547 521.40234 656.67773 C 522.63263 656.70697 523.46722 657.51575 524.14648 658.48242 C 528.17578 664.21716 533.75256 668.21063 539.66016 671.64453 C 544.71442 674.58234 547.78192 678.62299 549.71094 684.09766 C 553.1825 693.95038 558.7464 703.00201 560.83789 713.42188 C 561.27777 715.61334 562.80365 718.26593 565.53711 717.71094 C 567.94073 717.2229 567.22907 714.46753 567.35547 712.54492 C 567.66028 707.90747 568.95038 707.01892 573.41016 708.67969 C 582.25183 711.97241 588.1723 718.07349 590.95312 727.16211 C 592.41858 731.95172 593.89532 736.76056 598.04102 740.08789 C 599.43085 741.20331 600.71631 742.94598 602.79492 741.54492 C 604.91156 740.11835 604.36688 738.11908 603.64648 736.16992 C 602.46558 732.9751 600.53827 729.97491 600.90234 726.11719 C 605.02637 725.52771 608.03088 727.92578 611.3418 729.25195 C 612.70581 729.79828 614.19421 730.8963 615.51367 729.65234 C 616.86432 728.37885 616.48212 726.51794 616.03125 724.92383 C 614.61096 719.90186 610.03851 718.96564 605.97266 717.79492 C 601.25208 716.43567 596.62915 714.82654 593.0918 711.47656 C 586.6416 705.36804 578.95428 701.69641 570.83398 698.48242 C 563.03583 695.39593 558.64801 687.29749 559.57422 678.65234 C 568.9613 679.02063 576.8056 682.63007 583.39844 689.31055 C 585.5022 691.4422 588.0354 695.21057 591.2207 692.43555 C 594.53351 689.54938 591.75922 685.96228 589.77734 683.10352 C 588.6524 681.48084 587.14868 680.09991 585.70898 678.7207 C 579.74506 673.00751 572.43176 670.16034 564.45117 668.59375 C 558.27338 667.38104 551.79419 666.68103 546.68555 662.54297 C 537.65222 655.22583 530.2254 646.53113 525.32617 635.87695 C 524.50037 634.08118 523.58881 632.14362 523.48242 630.22852 C 522.76086 617.23474 523.54456 604.2868 525.47852 591.43164 C 526.13684 587.05554 530.06177 584.63983 534.38281 585.54102 C 538.07318 586.31073 541.26178 588.0307 543.47266 591.23633 C 550.79407 601.85193 552.78046 613.74463 552.02734 626.34766 C 551.65216 632.62439 550.5578 638.99298 552.85547 645.11523 C 553.48413 646.79028 553.99847 649.47156 556.71875 648.83789 C 559.05713 648.29327 560.05487 646.17645 560.23242 643.87695 C 560.37854 641.98523 560.26172 640.07269 560.26172 637.69727 C 563.23468 640.33502 565.69958 642.80585 568.46875 644.86719 C 569.9848 645.99579 571.92896 647.0011 573.89062 645.09961 C 575.77563 643.2724 575.1795 641.41571 574.04297 639.68945 C 572.58411 637.47376 571.10675 635.17889 569.21875 633.35156 C 561.26642 625.65503 561.37225 615.52899 560.5918 605.65625 C 560.56488 605.31549 561.17285 604.92615 561.57031 604.45703 C 565.35266 605.32587 567.94427 608.08789 570.63086 610.42383 C 580.16663 618.71497 588.08966 627.90967 586.93359 641.88477 C 586.69177 644.80865 587.28619 647.88318 587.95898 650.78125 C 589.00787 655.29926 589.83978 659.96033 592.42773 663.94141 C 593.62805 665.78784 595.52173 667.54437 597.77344 666.83984 C 600.26093 666.06158 600.17847 663.47858 599.7168 661.31641 C 599.05926 658.23712 598.11511 655.21985 597.37695 652.15625 C 596.97327 650.48096 595.56561 648.81586 597.16211 646.96484 C 599.513 646.74854 601.13532 648.36627 603.00781 649.3457 C 606.10004 650.96313 609.71429 654.8208 612.5625 650.62695 C 615.36908 646.49451 610.91424 643.52033 607.8418 642.27148 C 595.26538 637.15949 594.83716 623.90442 588.55273 614.625 C 588.48242 614.52118 588.87164 614.10626 589 613.9082 C 590.12573 613.22693 590.99201 613.88922 591.84766 614.33984 C 594.60474 615.79211 597.37109 615.59839 598.81445 612.87305 C 600.44818 609.78796 597.90405 607.99725 595.53711 606.57812 C 591.89392 604.39374 587.71124 603.78101 583.67578 602.89062 C 570.11169 599.89771 561.61029 590.84723 556.12305 578.95898 C 551.85852 569.71979 556.45801 561.43274 565.86719 559.55273 C 570.55084 558.61688 574.68634 560.2605 578.6582 562.63086 C 592.55212 570.92279 601.95557 583.88629 612.63281 595.47461 C 618.46838 601.80817 621.60638 609.78925 623.66016 618.16797 C 626.95105 631.59381 626.84058 645.13947 625.88477 658.82031 C 625.4939 664.4151 624.80005 669.66632 622.03906 674.60742 C 618.32281 681.258 616.83783 688.59357 615.95898 696.0625 C 615.37787 701.00238 618.10059 707.35339 620.44531 706.5918 C 624.84705 705.16205 625.14752 701.05243 625.34375 697.13867 C 625.36041 696.80597 625.32404 696.46783 625.36328 696.13867 C 626.30957 688.20795 628.53967 680.7337 632.95117 673.33789 C 641.74109 688.04828 645.94067 702.52405 639.79883 718.67578 C 637.79822 723.93677 636.50543 729.48169 635.10352 734.95117 C 634.35767 737.86127 634.17938 740.91412 635.40039 743.78711 C 636.12445 745.49109 637.16718 747.26257 639.35156 747.02148 C 641.3053 746.80591 641.87006 744.982 642.21875 743.3457 C 642.70288 741.07324 642.88757 738.73682 643.38086 736.4668 C 644.20844 732.65753 644.56531 728.61902 647.89844 725.48828 C 651.92548 728.82013 653.8443 733.16473 655.52148 737.67188 C 656.50574 740.31696 657.41235 743.00079 658.56836 745.57031 C 659.56604 747.78809 661.1413 749.84546 663.9043 749.05859 C 666.97095 748.18536 666.88147 745.54077 666.52344 742.91016 C 665.45636 735.0694 661.81274 728.38733 657.10742 722.24805 C 650.43146 713.53735 651.46008 703.32495 650.47852 692.97266 C 654.33289 693.30859 656.88507 694.81403 659.05273 696.88477 C 661.57727 699.29651 663.8866 701.9353 666.2793 704.48438 C 668.2312 706.56384 670.59137 707.31049 672.95312 705.58789 C 675.52356 703.71307 673.56189 701.60651 672.48633 699.91406 C 668.40241 693.48804 663.46295 687.79199 656.20898 684.9082 C 641.71161 679.1449 639.47394 666.31494 637.54492 653.25 C 637.40131 652.2774 637.87555 651.28467 639.50391 650.58203 C 644.53027 652.82648 648.94788 656.52502 653.14258 660.55469 C 654.58197 661.93744 655.89679 663.54364 657.5625 664.57031 C 659.15375 665.5509 661.1662 666.85236 663.0293 665.11133 C 664.95825 663.30884 664.47308 661.13287 663.15039 659.20508 C 662.21814 657.84631 661.11005 656.55859 659.88086 655.46289 C 656.02655 652.02698 652.38037 648.23944 648.10742 645.41406 C 636.54632 637.76941 635.56708 625.77875 634.36719 613.79297 C 634.07642 610.88843 635.71545 609.56982 638.36328 610.53906 C 653.45673 616.06403 667.74066 622.66827 674.53711 638.85938 C 676.46857 643.46063 678.30499 648.16125 680.81055 652.45117 C 691.28442 670.38397 692.29968 689.57739 688.99805 709.44531 C 687.22321 720.12579 685.47339 730.89044 687.16797 741.67969 C 688.26611 748.67145 688.22687 755.10156 684.65234 761.42383 C 680.07959 769.51154 678.78558 778.40515 679.76953 787.51562 C 680.39136 793.27338 681.37213 799.11444 685.16797 803.88281 C 686.44391 805.48566 688.15387 806.84314 690.35938 805.9707 C 692.73676 805.03021 692.60956 802.67017 692.17969 800.79297 C 691.40332 797.40295 690.14954 794.12433 689.12695 790.78906 C 686.2569 781.42859 686.14453 772.51154 693.57227 764.21875 C 701.11047 771.23041 709.55817 776.99036 714.03711 786.55664 C 715.0188 788.65338 716.05261 790.82678 717.53125 792.56641 C 719.83551 795.27741 722.89832 794.48383 724.00781 791.07812 C 724.53552 789.45831 724.21082 787.82501 723.83203 786.16211 C 721.99762 778.10877 717.16925 772.00714 710.89453 767.10938 C 696.82874 756.13056 692.76276 741.89545 696.32812 724.9043 C 696.65595 723.3421 697.02606 721.84552 698.57812 721.30469 C 700.05408 720.79034 701.03851 722.0321 701.94141 722.99023 C 705.72101 727.0011 709.40845 731.37921 714.4043 733.66602 C 725.25299 738.63171 731.12622 747.98279 736.95508 757.51367 C 738.60529 760.21197 739.98627 763.09448 741.82031 765.65625 C 743.90002 768.56091 746.14893 771.49872 750.58594 771.77734 C 754.39636 758.7088 741.11273 752.30041 739.01562 741.81641 C 741.7738 739.92816 744.37927 740.29999 747.03125 740.77539 C 751.88886 741.64624 756.03345 744.11829 760.27148 746.4375 C 762.37341 747.58777 764.93115 748.30688 766.64844 746.11719 C 768.1463 744.20728 766.33215 742.37689 765.3125 740.7168 C 764.34088 739.13489 762.94464 737.9682 761.41602 736.90234 C 754.62024 732.16345 746.85675 731.35584 738.97461 731.73438 C 733.17401 732.01294 728.16132 730.55536 723.54883 727.18164 C 720.45789 724.92078 717.15649 722.93701 714.15625 720.56641 C 702.35077 711.23871 697.55988 692.04773 703.44922 678.14062 C 704.91931 678.0639 705.82611 679.14948 706.97852 679.77734 C 716.70044 685.07507 722.03046 694.08588 727.07031 703.35352 C 728.04419 705.14435 729.17981 707.36694 731.42969 706.68945 C 733.9212 705.93933 733.59064 703.40881 733.4668 701.1543 C 733.26178 697.42011 730.60242 694.48157 730.12891 690.87695 C 732.55658 689.75427 734.54541 691.31799 736.66797 691.29883 C 738.78632 691.27972 740.87573 691.03406 741.5 688.68555 C 742.05097 686.61249 740.48956 685.26788 738.95898 684.2168 C 738.01679 683.56982 736.90692 683.02362 735.79688 682.78516 C 716.11322 678.55743 704.65216 663.94873 693.41211 649.13477 C 691.31641 646.37268 689.75562 643.17352 688.17969 640.05859 C 686.87512 637.48035 687.99982 635.79419 690.74219 636.76953 C 698.00409 639.35236 705.62567 637.86615 712.99219 639.23438 C 730.72522 642.52826 744.94519 650.13214 751.57812 668.27344 C 753.79566 674.33844 756.69952 680.22968 761.94141 684.53125 C 763.68054 685.9585 764.27673 688.09161 764.73633 690.25586 C 766.01105 696.25922 766.73663 702.47424 768.82422 708.1875 C 772.07678 717.08868 776.03497 725.83508 784.37891 731.41602 C 786.09192 732.56177 788.30109 734.14252 790.25977 732.2168 C 792.15247 730.35608 791.4718 727.90826 790.43359 725.69922 C 788.77057 722.16077 785.75934 719.65747 783.45898 716.60938 C 779.04456 710.75977 775.20343 704.64722 775.17578 696.55273 C 784.47095 699.55493 794.05212 700.39172 802.50977 705.02734 C 805.12384 706.46002 807.88721 706.5545 809.46289 703.68945 C 811.12598 700.66522 808.48492 699.02698 806.41211 697.8125 C 802.22082 695.35681 797.53662 693.92133 792.82031 692.99609 C 775.60132 689.61816 766.09186 677.82257 759.50586 662.84375 C 758.49091 660.53534 756.81757 658.16974 757.75 654.98828 C 764.56702 653.30481 771.1795 656.15533 777.86719 656.13281 C 785.03009 656.1087 789.8233 659.40131 793.86133 664.69141 C 795.57922 666.94196 797.5257 669.02564 799.16016 671.33203 C 802.02393 675.37317 806.02991 678.07971 809.92969 680.91797 C 811.42651 682.00745 813.24487 683.16943 814.84375 681.43555 C 816.27856 679.87952 815.49725 677.96655 814.54492 676.33008 C 814.04614 675.47284 813.46625 674.61414 812.75195 673.9375 C 807.85767 669.30176 804.36005 663.6192 800.71094 658.04688 C 797.89264 653.74316 798.72583 651.98511 803.94531 651.42383 C 806.62274 651.13593 809.27801 651.33575 811.75977 652.5332 C 815.80713 654.48615 819.85718 656.43652 823.88281 658.43359 C 826.11694 659.54169 828.24994 660.95929 830.77344 661.24805 C 833.11255 661.51569 835.79474 661.65851 836.80859 658.98242 C 837.84729 656.24109 835.25134 655.27277 833.49414 654.17773 C 829.11267 651.44727 824.59924 648.92566 820.23828 646.16406 C 816.55701 643.83301 816.66663 641.76416 820.52734 639.68945 C 821.8161 638.99689 823.34308 638.75549 824.74805 638.26953 C 828.92871 636.82355 833.42548 637.99499 837.58984 636.78906 C 840.47223 635.95441 845.04828 635.74127 844.68359 631.93945 C 844.31927 628.14185 839.83301 627.66846 836.58008 627.76172 C 825.95502 628.06641 816.02661 629.98322 807.58203 637.66602 C 800.84711 643.79333 792.0155 647.57965 783.00586 647.16602 C 774.50519 646.77576 765.87793 645.20996 757.41211 643.58203 C 748.43494 641.85584 740.12506 638.31152 732.42383 633.28906 C 738.70148 623.4519 752.65045 617.67187 763.11328 620.16406 C 766.82916 621.04907 770.5127 622.11792 774.26562 622.79688 C 780.95532 624.00708 787.60211 625.61328 794.48828 625.39062 C 797.04315 625.30798 799.36047 624.59466 799.89844 621.95312 C 800.44843 619.25256 797.76904 618.49121 796.02344 617.37891 C 794.23694 616.2406 792.11865 616.87799 790.16016 616.62695 C 785.04791 615.9718 779.68311 616.48993 774.32227 613.78711 C 777.77063 610.58734 781.05615 608.41315 784.53711 606.5332 C 786.61938 605.40875 788.56012 604.17133 789.86328 602.13281 C 790.67133 600.86884 791.68628 599.58496 790.89062 598.00195 C 790.04462 596.31897 788.31213 596.64209 786.89062 596.73047 C 782.31561 597.01483 778.77368 599.64093 775.48242 602.42969 C 770.90594 606.30756 765.89905 609.57477 759.87109 609.45898 C 747.99524 609.23114 738.29059 613.97546 729.27344 621.04297 C 725.29285 624.1629 720.72858 626.31763 715.58594 626.60547 C 698.83185 627.54321 684.9187 620.45483 671.92773 610.88477 C 671.12769 610.29541 670.44751 609.51782 670.71094 607.69727 C 674.90863 605.95599 679.5788 604.34705 683.94141 602.13086 C 690.51715 598.79047 696.86755 598.42151 704.07617 600.50586 C 711.67218 602.70227 719.59509 602.15253 726.83594 598.12305 C 728.28272 597.31799 730.11829 596.50366 729.88281 594.56055 C 729.60474 592.26587 727.28931 592.26178 725.60938 591.85156 C 723.81506 591.41351 721.99457 592.09125 720.19141 592.23633 C 715.41144 592.62091 710.43408 594.01965 705.6875 591.01367 C 706.24384 589.83789 706.42224 588.92371 706.9707 588.39453 C 709.4754 585.97772 712.17194 583.758 714.62109 581.28906 C 716.08508 579.81329 717.03058 577.81567 715.55273 575.88867 C 714.11365 574.01227 711.8703 574.36066 710.0332 575.13281 C 707.05756 576.38355 704.92816 578.82758 702.81836 581.18945 C 700.13287 584.19592 697.34058 587.04285 693.43555 588.44922 C 684.82892 591.54865 676.20813 594.60687 667.60742 597.72266 C 657.85669 601.25494 648.70093 599.96063 639.86719 594.70508 C 624.72607 585.69702 613.42352 572.47565 601.45703 559.97852 C 601.09229 559.5976 601.16303 558.79919 601.03125 558.19727 C 614.31085 555.14764 632.6922 559.75256 639.06836 572.57422 C 640.46869 575.38989 641.75897 578.3609 644.59961 580.14258 C 645.89471 580.95483 647.24164 581.60901 648.79102 580.69141 C 650.35541 579.76477 650.255 578.24365 650.30469 576.73047 C 650.36945 574.75561 648.55066 573.06616 649.53711 570.71094 C 652.8855 570.43329 656.37531 570.39166 659.75586 569.76562 C 661.61932 569.42053 663.87518 568.32672 663.69727 565.92383 C 663.54132 563.8172 661.36475 563.17291 659.60547 562.85156 C 656.83374 562.34528 653.99469 561.95416 651.18555 561.9668 C 645.3999 561.9928 640.37683 560.32996 636.23242 556.2168 C 633.78357 553.78638 630.60968 552.77679 627.46289 551.64453 C 625.51483 550.94354 623.13489 551.21307 621.4668 549.15625 C 622.53949 546.3291 625.34332 545.74664 627.53906 544.4668 C 629.74866 543.17889 632.33575 541.99469 630.8457 538.81445 C 629.47931 535.89795 626.68353 536.37329 624.27734 537.0918 C 620.40582 538.24786 617.09454 540.54706 613.86719 542.92578 C 605.77704 548.88867 597.04419 548.16376 588.2168 545.18945 C 585.47253 544.26477 583.35065 542.20929 582.55664 539.25195 C 580.2467 530.6488 584.05219 522.38709 592.22461 518.50586 C 612.28961 508.97668 634.76105 513.90717 649.76562 527.73633 C 659.27039 536.49658 666.03418 547.47095 673.47852 557.86914 C 676.7868 562.49011 681.00049 565.31897 686.49609 566.25977 C 688.32214 566.57233 690.3609 566.42835 691.19336 564.34375 C 692.06873 562.15143 690.39697 560.99133 688.86914 559.92188 C 687.04157 558.64258 684.46704 558.2193 683.82227 555.66992 C 684.50098 554.15454 685.75928 554.36316 686.89258 554.30664 C 690.93634 554.10498 694.7912 555.1908 698.69336 556.00586 C 700.61932 556.4082 702.86707 557.01782 703.93555 554.5957 C 704.95624 552.28204 703.8819 550.36859 702.02148 548.91992 C 699.46912 546.93249 696.63623 545.64368 693.30859 545.66406 C 689.80884 545.68549 686.30585 545.74951 682.81055 545.61719 C 676.39893 545.37439 671.6806 541.7215 670.07422 535.88867 C 672.72131 534.37036 675.24286 536.33429 677.81836 536.17578 C 680.62262 536.0033 683.64465 535.12714 683.73828 532.01953 C 683.81958 529.32251 681.2312 528.00012 678.48633 527.68164 C 675.84485 527.37518 673.18237 527.12561 670.58594 526.58008 C 662.00293 524.77649 655.69171 519.53143 650.10938 512.94336 C 656.59808 512.34558 662.8764 512.39807 669.15234 512.33398 C 677.14746 512.25232 685.16528 511.95187 692.74805 515.17383 C 700.57471 518.49951 708.97168 521.43292 713.20312 529.46289 C 721.70789 545.60254 732.01959 560.43353 743.75 574.3418 C 746.54913 577.66064 749.30316 581.02679 753.21094 583.10156 C 754.76367 583.92609 756.51843 585.12714 758.21094 583.33203 C 759.80664 581.63959 758.67554 579.88293 758.10352 578.19336 C 757.30072 575.82202 754.4555 574.81122 753.82422 571.77734 C 757.20129 570.96405 760.40491 571.3623 763.67773 571.77734 C 769.83136 572.55762 775.61877 574.62518 781.49805 576.4043 C 783.08984 576.88605 784.99683 577.30084 785.92773 575.39648 C 786.91174 573.38367 786.24768 571.44336 784.55273 570.02344 C 783.6734 569.2868 782.6192 568.69141 781.55273 568.25586 C 773.49609 564.96558 765.21851 562.64703 756.41797 562.64453 C 745.57898 562.64148 737.62091 556.8194 733.63281 545.59961 C 738.64978 547.1507 743.31702 548.61987 748.00195 550.03125 C 750.56879 550.8045 752.75781 550.0979 753.88281 547.64258 C 755.05975 545.07397 753.6427 543.10742 751.60156 541.67578 C 748.5473 539.53369 744.99548 538.20905 741.40039 537.8418 C 727.55035 536.427 722.78802 525.58765 717.05664 515.56445 C 718.80908 513.99616 720.40857 514.46118 722.06445 514.75195 C 729.09247 515.98602 736.14215 517.10474 743.16992 518.33984 C 749.24292 519.4071 755.43719 520.40241 760.36328 524.46289 C 767.81903 530.60852 775.2381 536.78253 783.25195 542.20508 C 785.48401 543.71539 787.30322 545.67468 788.67383 548.00781 C 792.3418 554.25183 797.08441 559.6051 802.47266 564.37695 C 807.88275 569.16803 811.36084 574.96973 813.1543 582.00586 C 814.79321 588.43579 816.43103 594.90784 819.21875 600.98438 C 820.52887 603.84003 822.50324 605.91229 825.85156 604.22852 C 828.98193 602.6543 827.64386 600.14392 826.68555 597.76953 C 823.98773 591.08539 821.90314 584.23389 820.80078 576.82422 C 829.32819 578.89032 833.02795 581.76727 839.35547 590.97461 C 841.52856 594.1369 843.51581 597.4613 847.5293 598.68164 C 849.16632 599.17938 850.90418 599.6767 852.29883 598.50195 C 853.93866 597.12042 853.53119 595.07831 852.91992 593.38281 C 851.47046 589.36249 848.40417 586.45837 845.60742 583.36719 C 844.12811 581.73218 841.8573 580.46918 842.20312 577.47461 C 842.91058 577.1319 843.60034 576.60443 844.36328 576.46094 C 848.95312 575.59723 853.58893 575.27948 858.26562 575.25586 C 860.98389 575.24213 863.47345 573.89838 863.63867 571.06641 C 863.79394 568.40674 861.12665 568.03357 858.97852 567.52148 C 853.28723 566.16455 847.6803 567.29022 842.16797 568.33398 C 825.68951 571.4541 808.71704 562.9751 801.875 547.46484 C 808.5517 548.20471 814.9754 548.28888 821.30469 549.76367 C 823.70679 550.32343 826.24054 550.4668 828.71875 550.50391 C 830.73566 550.53412 832.85919 550.19373 833.32422 547.62891 C 833.74371 545.31543 832.0459 544.35822 830.3457 543.59961 C 828.68097 542.85687 826.94873 542.24689 825.20703 541.70117 C 818.14996 539.49005 810.79303 539.45642 803.52539 538.75 C 799.24402 538.33386 794.69647 538.42218 791.07227 535.76758 C 783.43396 530.17267 776.75226 523.46918 769.59375 516.79883 C 771.60425 515.11731 773.61719 514.69824 775.75586 514.31445 C 784.69299 512.71069 793.71533 513.13202 802.66992 513.51172 C 811.66394 513.89319 820.31708 515.94501 828.54883 520.13086 C 837.12116 524.48993 845.13495 530.06342 854.61523 532.60547 C 859.35345 533.8761 863.82855 533.46338 868.27148 531.68555 C 869.85571 531.05164 871.35986 530.22192 871.1543 528.12109 C 870.9585 526.12 869.44403 525.31561 867.79688 524.89453 C 865.70679 524.36023 863.5639 524.01514 861.42969 523.67578 C 851.23566 522.05505 842.55133 516.93658 833.67188 512.51758 C 834.31696 509.53397 836.41888 509.48364 838.0293 508.8457 C 846.83704 505.35651 855.3714 501.19504 864.44922 498.35352 C 866.91119 497.58282 870.08484 496.03333 868.88672 492.80078 C 867.81433 489.90735 864.59192 489.27563 861.60938 490.05859 C 856.62311 491.36765 851.70068 492.88535 847.16016 495.44727 C 832.4101 503.76965 816.79926 506.95142 800.08984 503.02344 C 796.625 502.20898 792.85553 503.53473 788.81641 501.42578 C 793.24158 496.89804 796.95917 492.37796 801.38867 488.71875 C 809.09686 482.3512 817.2196 476.1691 827.12109 473.84766 C 836.30652 471.69412 845.77441 470.71341 855.14062 469.37695 C 858.75964 468.86054 863.02399 468.13434 862.87891 464.06055 C 862.73218 459.94351 857.95099 460.56473 854.86133 459.88281 C 853.95551 459.68295 852.89423 460.07861 851.92578 460.29883 C 847.71417 461.25638 843.55212 462.56 839.29102 463.13477 C 835.65527 463.62518 832.01624 465.64066 827.89453 463.8125 C 828.21619 461.14179 829.46875 459.04587 830.79688 456.94531 C 834.48926 451.10571 840.06262 447.50552 845.79883 444.03711 C 847.98108 442.71762 850.32495 440.79449 848.8418 438.02344 C 847.53174 435.57602 844.70404 436.64471 842.50195 437.12109 C 841.05939 437.43311 839.69501 438.14554 838.32422 438.74414 C 829.40546 442.63904 823.63605 449.56293 820.10156 458.37109 C 817.40515 465.09061 812.87659 469.63861 806.36523 472.76953 C 795.82477 477.83783 787.47546 485.74994 780.01172 494.60156 C 778.02991 496.95194 775.78516 498.90356 773.11328 500.27148 C 763.68195 505.10004 753.95923 508.89877 743.05859 506.56445 C 737.00928 505.26901 730.70758 504.9531 725.07422 502.67188 C 724.875 500.93161 725.85724 500.46399 726.58203 499.80664 C 734.01978 493.06094 742.5874 489.95453 752.71094 491.29492 C 756.15643 491.7511 760.42914 491.07266 760.68359 487.22656 C 760.94855 483.22205 756.25775 483.30545 753.35352 482.91602 C 749.6687 482.42191 745.86896 482.79688 741.29492 482.79688 C 743.05432 479.19983 745.4837 478.39194 747.63281 477.34961 C 752.78558 474.85053 757.28534 471.45807 761.41992 467.55273 C 762.47107 466.56 763.96582 465.5607 763.19336 463.79102 C 762.4035 461.98123 760.55768 461.92606 758.90625 461.81641 C 756.44489 461.65292 754.41248 462.87036 752.44922 464.13477 C 747.96759 467.02118 743.50653 469.9418 739.06055 472.88281 C 735.94952 474.94077 733.42017 477.60718 731.625 480.85742 C 725.07111 492.72354 713.47839 497.13156 701.48047 498.33984 C 686.64337 499.83408 671.54785 498.81616 656.59766 497.60352 C 651.75537 497.21072 646.93042 496.60062 642.09766 496.08984 C 647.98468 492.43375 653.98676 489.79776 660.09961 487.44727 C 671.50183 483.0629 682.35754 477.96884 691.35352 469.27734 C 700.00946 460.91431 710.44495 455.49393 722.34961 453.00195 C 724.90881 452.46625 727.5072 451.4407 729.72266 450.05664 C 740.67322 443.21521 752.341 443.33569 764.4082 445.87305 C 772.09308 447.48892 779.46747 449.58932 786.35547 453.66797 C 792.75281 457.45608 799.55707 454.68887 800.90039 448.59961 C 797.92267 445.069 792.52228 448.49561 789.40234 444.5332 C 790.60113 442.17877 792.81689 441.34753 794.94141 440.53516 C 798.04535 439.34827 801.24091 438.40619 804.35742 437.25 C 806.19818 436.56711 807.60901 435.39157 807.0918 433.125 C 806.6275 431.09024 804.94354 430.85999 803.2207 430.67969 C 797.30627 430.06076 791.92273 431.64078 787.18555 435.03516 C 782.6665 438.27322 778.02222 439.42963 772.64844 437.64844 C 770.77789 437.02838 768.65424 437.16562 766.78906 436.53516 C 763.00171 435.2551 758.34583 436.33917 755.42383 432.66602 C 755.84021 430.16766 757.57495 428.77762 758.97266 427.15039 C 769.42462 414.98221 783.11517 408.77487 798.42773 405.30078 C 804.73798 403.86917 810.42126 404.36197 816.24219 407.39062 C 824.5589 411.7179 833.37445 414.67691 842.98242 414.37695 C 846.13415 414.2785 848.91296 413.42947 850.93359 410.90625 C 853.33459 407.90811 852.62158 406.10107 848.8125 405.68555 C 844.84222 405.25247 840.82764 405.18561 836.87305 404.65625 C 830.98425 403.86795 825.36987 402.2645 820.73047 398.31641 C 821.87152 396.35083 823.52612 396.20975 824.76172 395.41406 C 831.17804 391.28223 838.24585 388.11188 843.64258 382.48047 C 846.37793 379.6261 844.75043 378.04068 842 376.98633 C 839.84222 376.15912 837.65344 376.76459 835.76758 377.91211 C 832.78656 379.72592 829.90588 381.70999 827.0293 383.68945 C 817.88592 389.98126 808.19226 394.71933 796.52344 395.00977 C 796.49542 390.75449 798.92487 387.78607 800.00586 384.38477 C 803.77448 372.52762 809.86432 362.80234 822.00781 357.71484 C 825.59613 356.21152 828.67895 353.32336 830.49219 349.52539 C 831.40076 347.62238 831.19159 345.91873 829.62305 344.54883 C 828.19397 343.30081 826.43335 343.36505 824.97656 344.35352 C 822.9176 345.75058 821.12189 347.52808 819.09375 348.97656 C 815.29309 351.6908 811.97668 355.24811 807.18164 356.75195 C 805.89459 353.58994 806.16174 350.94858 806.73828 348.37695 C 807.90002 343.19464 809.21765 338.04733 810.5 332.89258 C 810.81506 331.62604 811.63763 330.28473 810.10742 329.30859 C 808.89209 328.53336 807.58319 328.7001 806.29492 329.31641 C 804.5481 330.15204 803.47504 331.59082 802.56836 333.22266 C 799.35669 339.00266 797.28888 345.16342 797.70117 351.80078 C 798.75665 368.79309 791.45343 382.90793 782.20508 396.13672 C 778.39655 401.58435 772.53235 405.1257 765.46289 407.23438 C 766.53833 402.11475 767.49646 397.91889 768.26172 393.68945 C 768.4906 392.42416 768.4162 390.9422 766.99414 390.16797 C 765.39197 389.29565 764.04858 390.14832 762.89062 391.09961 C 760.45477 393.10071 759.58978 396.04095 758.625 398.86914 C 756.30676 405.6648 753.86139 412.36499 749.14258 417.98828 C 738.90094 430.19287 725.80621 438.05624 710.95898 443.28125 C 710.73956 443.35849 710.37805 443.03555 709.85742 442.79492 C 709.73822 442.31738 709.2962 441.59558 709.4707 441.08594 C 712.74493 431.52322 713.89362 421.07568 719.40625 412.4707 C 728.52753 398.23285 741.01489 387.12433 755.43359 378.49609 C 763.40179 373.7279 770.00989 367.97623 774.51758 359.97266 C 776.17181 357.03555 779.78052 352.92606 775.47461 350.39062 C 771.61652 348.1189 769.789 352.90137 767.82031 355.6582 C 763.87976 361.1763 759.51813 366.23892 752.76758 370.07227 C 751.74957 364.00381 753.99542 359.40054 755.07422 354.69531 C 755.93842 350.92575 756.68549 347.20966 756.20898 343.35352 C 755.9928 341.60391 755.21741 340.14557 753.22266 339.86523 C 751.41394 339.61105 750.41217 340.75217 749.77734 342.17969 C 749.24451 343.37772 748.87738 344.66913 748.58789 345.95312 C 746.9093 353.39899 745.52759 360.92157 743.56641 368.29102 C 740.7544 378.858 732.99805 385.33826 724.03906 391.50781 C 722.99451 387.73511 723.22662 384.83926 724.04297 381.91992 C 725.6991 375.99707 727.73071 370.13538 728.80078 364.10547 C 729.68945 359.09763 730.67383 353.70047 727.28906 348.99609 C 724.16303 349.92355 722.98071 352.08823 722.41797 354.29297 C 718.81232 368.41782 713.78986 382.26337 713.64453 397.09961 C 713.62506 399.08539 713.91449 401.14676 712.71484 402.92773 C 707.12494 411.22693 705.14685 420.97189 701.75586 430.1543 C 697.7287 441.05939 692.18451 451.483 683.63477 459.0957 C 673.81464 467.83948 661.81873 473.69592 648.87305 477.07227 C 647.12238 477.52887 645.3432 478.32278 643.72266 476.23828 C 643.93164 475.40619 643.99347 474.37256 644.43164 473.53711 C 649.22968 464.38858 654.38184 455.43817 660.23828 446.92773 C 662.54822 443.57098 665.90436 441.44049 669.9082 440.21484 C 673.39142 439.14859 676.8338 437.81189 680.08594 436.17969 C 682.00183 435.21808 684.75043 433.95032 683.43164 430.99609 C 682.29871 428.45834 679.84644 428.52515 677.35742 429.07031 C 674.5506 429.68506 671.79376 431.41602 668.54688 429.86719 C 668.88995 424.68539 670.12579 420.05292 673.79492 416.21094 C 676.89752 412.96225 679.82153 409.5379 682.74219 406.12109 C 686.27826 401.98416 688.59613 397.24707 689.24805 391.79883 C 689.47119 389.93381 689.3631 387.99802 687.33789 387.07227 C 685.62109 386.28751 684.55628 387.61328 683.48828 388.6582 C 680.31964 391.7583 678.70178 395.82095 676.65234 399.625 C 675.04767 402.60348 673.57611 405.8028 669.79297 406.84766 C 668.73279 404.57199 669.15363 401.23215 666.06641 401.29883 C 663.17792 401.36118 662.40448 404.18118 661.50195 406.57422 C 660.21423 409.98868 660.61676 413.50272 660.69336 416.9668 C 660.8761 425.23276 658.58105 432.65262 654.0918 439.57617 C 649.47247 446.70035 645.07697 453.97482 640.75195 461.2832 C 635.27899 470.53152 627.93848 477.93655 618.67383 483.23828 C 608.99139 488.77905 598.48975 490.64185 587.43164 488.56055 C 585.80011 488.25348 584.0589 487.63666 583.64453 485.74414 C 583.25446 483.96222 584.74487 483.03711 585.95898 482.22852 C 590.17279 479.42221 593.38501 475.55615 596.91016 472.0293 C 604.77533 464.16016 611.92194 455.42148 622.82812 451.34375 C 623.87347 450.95288 624.87842 450.1499 625.61328 449.29102 C 627.5296 447.05133 629.22552 444.39288 626.70703 441.77539 C 624.39441 439.37183 622.22717 441.4324 620.13086 442.85938 C 617.52667 444.63199 615.71179 447.8414 611.86328 447.81641 C 611.46362 445.79767 611.25165 443.98074 610.72656 442.25977 C 610.00867 439.90652 608.63654 437.79019 605.89258 437.98633 C 603.12409 438.1842 601.77875 440.55655 601.83594 442.93164 C 602.15692 456.2565 593.61005 463.69318 584.00195 470.5293 C 579.96094 473.40451 575.70905 475.10358 571.01562 472.35352 C 566.17328 469.51617 563.02399 465.67075 563.11719 459.48438 C 563.19714 454.17587 565.45581 449.90756 567.89844 445.51953 C 580.63043 422.64783 604.55487 414.1568 628.39844 422.42578 C 632.31097 423.78259 636.27454 423.52298 640.25977 423.30469 C 642.81201 423.16489 645.07507 422.18295 645.09766 419.32422 C 645.12244 416.1785 642.42163 415.91455 640.06836 415.72656 C 637.17444 415.49533 634.09564 416.01733 631.89062 413.58789 C 632.12457 411.35525 633.86688 410.76044 635.10742 409.72461 C 640.46613 405.25009 646.8017 401.98938 651.4082 396.57422 C 652.89984 394.82077 654.2337 392.77982 652.57227 390.79102 C 650.98389 388.88962 648.59814 389.47717 646.61523 390.63281 C 645.32916 391.38232 644.05212 392.24472 643.00781 393.29297 C 639.57867 396.73517 635.74799 399.6759 631.76367 402.40625 C 622.5191 408.7413 611.9563 409.79858 600.93164 409.90625 C 606.11951 402.79211 611.19086 395.75162 617.32422 389.80664 C 634.40912 373.24652 654.52325 366.03778 678.29102 372.13086 C 684.34808 373.68365 690.19611 373.10986 695.81641 370.73438 C 697.95111 369.83209 700.92395 368.57666 699.95117 365.36328 C 698.97845 362.14978 696.13141 363.03827 693.61523 363.23828 C 689.67468 363.55148 685.57269 364.76627 681.88477 362.44531 C 682.19391 360.54007 683.46857 360.20081 684.37695 359.56055 C 690.22827 355.43631 696.12335 351.37457 701.98828 347.26953 C 703.86328 345.95712 705.60535 344.06525 704.31641 341.90625 C 702.95752 339.63007 700.46246 340.62164 698.49219 341.61133 C 693.74115 343.99777 688.51746 345.66888 684.60547 349.41211 C 678.4455 355.30627 671.09692 358.39319 662.7832 359.39844 C 656.29437 360.18295 649.88629 362.12265 643.2832 361.44141 C 643.1889 360.62219 643.02447 360.24829 643.13477 359.99414 C 652.40283 338.63098 668.97461 326.33136 691.35156 321.36328 C 697.83136 319.92465 704.37305 318.74753 710.91211 317.59766 C 716.64355 316.58984 722.3952 315.54843 728.13281 317.77148 C 734.30151 320.1615 740.75958 320.71555 747.29492 320.31836 C 751.91455 320.03763 756.15887 320.98187 760.29297 323.06641 C 765.09912 325.48987 770.18298 326.98987 775.69141 326.45508 C 779.29248 326.10547 784.15009 326.47165 783.9668 321.56836 C 783.78998 316.83694 778.8847 317.94287 775.59961 317.67383 C 771.52899 317.34042 767.49768 317.0571 763.93945 314.29102 C 765.43713 312.11441 767.39874 311.18286 769.37305 310.35742 C 773.5163 308.62515 777.74042 307.08264 781.86133 305.30078 C 784.38812 304.20819 787.05377 302.50272 786.01367 299.39453 C 785.00885 296.39185 781.84705 296.39734 779.20898 297.04883 C 773.84015 298.37463 768.85449 300.69537 764.17383 303.64062 C 759.62683 306.50177 754.79816 308.76883 749.57227 309.98047 C 744.16858 311.23331 738.8128 311.30859 733.57617 307.95312 C 737.78241 303.66473 742.27856 300.09259 745.48633 295.59961 C 751.87915 286.64557 760.30377 280.96005 770.50781 277.44922 C 773.50562 276.41779 776.3208 274.93069 778.50195 272.49805 C 779.91821 270.91843 780.98224 269.06723 779.82617 267.07812 C 778.56256 264.90421 776.32654 265.47629 774.46094 266.19336 C 772.13647 267.08676 769.98389 268.42767 767.66211 269.33008 C 763.46777 270.96024 759.64526 273.69138 754.60352 274.21875 C 755.00916 272.25824 755.28961 270.8074 755.61133 269.36523 C 756.76581 264.18985 759.02826 259.2755 759.31836 253.90039 C 759.43799 251.68362 759.33539 249.05603 756.94531 248.375 C 754.24469 247.60553 752.78101 250.01285 751.80664 252.13672 C 749.93335 256.22015 748.59216 260.49289 747.61133 264.90039 C 746.00012 272.14041 746.28217 280.05524 741.37695 286.21289 C 726.89484 304.39279 707.21362 310.8512 683.53711 310.95508 C 689.93121 301.2926 693.8858 290.94812 703.54297 284.64648 C 713.27173 278.2981 720.98498 269.74219 728.66992 261.19727 C 731.25153 258.32675 732.91895 254.84851 733.9375 251.08398 C 734.3523 249.55115 733.75507 248.53304 732.60938 247.63672 C 731.52234 246.78633 730.47931 246.9621 729.36914 247.57812 C 727.44263 248.64706 725.91595 250.12602 724.50977 251.81641 C 721.42218 255.52779 718.45709 259.38654 715.01367 262.74609 C 709.52124 268.10474 703.66595 273.0881 696.69141 277.53906 C 694.82697 259.05307 697.24573 243.32649 713.71094 232.86133 C 717.59143 230.39493 721.49371 227.65669 724.21484 223.71875 C 725.68066 221.59743 727.11865 219.39632 724.90234 216.98047 C 722.59839 214.46907 720.49695 216.43434 718.78516 217.7793 C 713.1568 222.20166 707.67706 226.81367 702.17773 231.39844 C 698.13135 234.77199 696.80908 234.41486 695.77734 229.17578 C 694.74011 223.90898 695.45239 218.54483 695.3457 213.22461 C 695.29895 210.8924 695.6684 207.99588 692.85742 207.32227 C 689.9516 206.62595 688.50793 209.24348 687.34961 211.46875 C 684.65332 216.64824 685.53796 222.15411 686.11719 227.60547 C 686.83282 234.34184 690.78253 240.77794 689.2207 247.61133 C 686.90405 257.74751 685.88251 267.94324 685.99414 278.26367 C 686.05811 284.17563 684.54559 289.48096 681.21094 294.23828 C 678.63513 297.91306 675.586 301.25946 673.04688 304.95703 C 667.00549 313.75461 658.51739 319.72864 649.76367 326.19727 C 647.25989 319.00195 648.29132 312.12158 648.43555 305.41602 C 648.72174 292.11368 650.86743 279.24094 659.73633 268.44727 C 661.51404 266.28384 662.90271 263.73978 664.13477 261.20703 C 665.62091 258.15186 666.91266 253.85361 663.99805 252.04883 C 660.46368 249.86032 658.82422 254.33521 657.18555 256.7832 C 652.12653 264.34033 647.26025 272.02603 641.91797 280.2832 C 636.91608 266.83914 639.9798 255.44943 647.30078 244.79492 C 652.20514 237.65739 657.3327 230.67297 662.36719 223.625 C 664.1214 221.16919 665.51178 218.53642 666.48828 215.67188 C 667.03149 214.07828 666.84766 212.71233 665.56445 211.5957 C 664.0838 210.30722 662.37842 210.39354 660.9707 211.48047 C 659.40839 212.68672 657.89594 214.08789 656.75195 215.68359 C 652.29187 221.90492 648.03247 228.26936 643.5957 234.50781 C 642.21027 236.45583 641.0415 238.83981 637.76758 239.13477 C 635.95264 231.08777 637.9173 224.02966 642.4082 217.45703 C 646.4541 211.53563 650.31073 205.49211 652.55859 198.61719 C 653.53638 195.62672 654.84961 191.59734 651.25 190.24219 C 647.77423 188.93364 646.42328 192.91837 645.30469 195.64258 C 640.90045 206.36879 633.09839 214.976 627.76758 224.93555 C 625.38287 224.51613 624.71472 222.856 623.66797 221.61133 C 615.953 212.4377 615.95807 202.21275 619.55469 191.49805 C 620.67181 188.16983 621.40118 183.95482 617.98242 182.56836 C 614.29858 181.07439 612.16882 185.21999 611.06836 188.15625 C 606.48737 200.37909 606.00513 212.41374 613.41406 224.00586 C 616.34351 228.58936 620.70593 231.7514 623.99609 235.94141 C 629.19696 242.56461 631.12079 249.90094 630.10156 258.31641 C 629.32544 264.72382 628.03565 271.62884 630.87891 277.55664 C 636.03687 288.31036 636.65216 299.56406 637.14062 311.0957 C 637.44586 318.30365 637.11365 325.37085 636.05469 332.44922 C 633.07922 352.33762 619.87054 365.44351 605.77539 377.93945 C 605.63416 378.0647 605.17871 377.83514 604.37109 377.66797 C 604.23328 370.341 604.60516 362.87054 603.39258 355.48438 C 602.5473 350.33533 604.67706 345.97385 607.95898 342.22266 C 611.9433 337.66861 614.50854 332.32007 614.94727 326.49219 C 615.56989 318.22168 615.65234 309.92224 617.31836 301.74805 C 617.54273 300.64694 617.46753 299.33572 617.07812 298.29102 C 616.4126 296.50525 616.01904 294.01517 613.54492 294.05078 C 611.57062 294.07913 610.35291 295.86639 609.83594 297.67969 C 608.37946 302.78903 606.49072 307.90421 606.72852 313.26562 C 607.17163 323.25675 603.83221 331.9234 598.12109 339.80078 C 594.94757 344.17807 593.45862 348.90054 593.63477 354.26367 C 593.80432 359.42621 593.73578 364.59634 593.92578 369.75781 C 594.40582 382.7955 591.02527 394.47156 581.75 403.97461 C 577.0993 408.73962 572.23895 413.33459 565.375 416.58594 C 565.31494 409.17889 566.92273 403.224 570.08008 397.59766 C 572.44025 393.39194 574.87024 389.19278 576.78711 384.78125 C 578.26398 381.38229 579.19476 376.81079 575.00781 375.21094 C 570.82996 373.61456 569.87634 378.19254 568.59766 381.18359 C 567.61658 383.47864 566.80713 385.85504 565.69727 388.08398 C 564.6239 390.2395 564.08856 392.84561 561.41406 394.13281 C 559.14459 391.82803 559.39557 388.96762 559.32031 386.19141 C 559.26862 384.28711 559.02454 382.37247 556.75391 381.89648 C 554.38904 381.4007 552.98981 382.91559 552.03906 384.78711 C 551.19727 386.44418 550.99329 388.22049 551.31836 390.12695 C 552.35126 396.18375 553.36475 402.24945 554.18359 408.33789 C 555.79736 420.33649 554.61951 431.5621 545.41016 440.72852 C 538.33496 447.77081 529.21362 446.46347 525.80469 437.56836 C 524.9859 435.43185 524.5968 433.06583 524.38477 430.77148 C 523.59912 422.2728 524.1319 413.78201 525.5293 405.4043 C 527.00909 396.53226 528.70953 387.54099 535.30469 380.74219 C 539.37817 376.54291 543.04846 372.03888 546.78125 367.56641 C 552.39355 360.84207 558.93597 355.80566 568.13867 355.10352 C 570.91528 354.89166 573.80768 354.2366 576.32227 353.08008 C 578.81146 351.93515 582.95007 351.04517 581.73828 347.18164 C 580.59583 343.53921 576.81665 344.48764 573.91602 345.04492 C 571.53772 345.50192 569.23615 346.10986 566.44141 345.69922 C 567.18713 344.06018 567.63916 342.81616 568.28711 341.68555 C 572.48309 334.36398 579.00281 328.98386 584.42773 322.69922 C 590.3559 315.83163 592.61658 307.54983 594.78125 299.21289 C 595.46075 296.59592 594.72382 292.93207 591.53125 292.18359 C 588.67352 291.51364 587.45752 294.58316 586.54102 296.88477 C 584.81915 301.20956 583.5545 305.73184 581.63281 309.95898 C 579.62219 314.38184 577.70905 319.03894 573.21875 321.95703 C 571.8974 320.0368 572.40631 318.44272 572.78516 316.84961 C 573.47742 313.93887 574.12439 311.017 574.85938 308.11719 C 575.40448 305.96634 575.1228 303.91647 573.15039 302.86328 C 571.10815 301.77277 569.26862 302.96844 567.85352 304.53125 C 565.7674 306.83511 564.66687 309.56552 564.66406 312.70508 C 564.65997 317.20502 564.80432 321.71106 564.61328 326.20312 C 564.24054 334.97012 559.23614 341.08392 553.41602 346.55664 C 551.66791 345.79233 551.44598 344.7919 551.10938 343.85547 C 549.59259 339.63571 550.65729 335.2608 550.33398 330.96875 C 550.17023 328.79541 549.55988 326.8757 547.14258 326.56641 C 544.82886 326.27036 543.45532 327.72568 542.71875 329.82031 C 541.58411 333.04721 541.73181 336.30753 542.05273 339.67773 C 542.52264 344.61185 545.15167 349.83246 543.18945 354.4082 C 539.55353 362.8869 532.85809 369.25961 525.79102 375.09766 C 525.63733 375.22464 525.1839 374.98663 524.79102 374.90234 C 523.78595 372.79123 522.9176 370.41907 523.56641 368.20117 C 524.85486 363.79645 523.76251 359.62558 523.11914 355.37109 C 520.77679 339.88116 522.1828 324.97403 531.70312 311.99805 C 540.3999 300.14456 550.75488 289.51477 562.21094 280.49219 C 571.95721 272.81616 583.81897 268.82446 596.88281 271.12305 C 600.30774 271.72568 603.90179 271.86557 607.32031 271 C 609.58411 270.42682 612.1405 269.20456 611.82227 266.43164 C 611.55688 264.11856 608.98883 263.92062 607.01562 263.72266 C 601.75018 263.19446 596.47394 262.77576 590.45898 262.24805 C 592.42371 259.69394 593.9422 257.56923 595.61719 255.57617 C 598.20471 252.49724 600.39746 249.17497 602.18164 245.58008 C 603.08887 243.752 604.11267 241.71741 601.88672 240.24609 C 599.90393 238.93558 597.98206 239.93489 596.51758 241.45898 C 594.44348 243.61755 591.948 245.63014 590.63477 248.21484 C 584.67847 259.93855 574.66705 265.55124 561.87305 267.75391 C 563.61353 260.13126 566.08173 252.87305 572.21289 247.42383 C 577.85272 242.41129 582.33887 236.38692 587.12109 230.62305 C 588.93317 228.43909 590.49506 226.04828 591.07227 223.20117 C 591.3681 221.74174 591.67084 220.112 590.30078 219.01172 C 588.67987 217.70996 587.10602 218.64052 585.72656 219.57031 C 582.76245 221.56815 580.97809 224.64743 578.75586 227.33984 C 575.57098 231.19868 573.35529 236.09262 567.58789 238.42969 C 568.17072 233.24275 568.64032 228.62138 568.22266 224.00781 C 568.05389 222.14392 567.38293 220.33624 565.2168 219.89453 C 562.91937 219.42604 561.90503 221.08986 561.11914 222.78906 C 560.28229 224.59842 559.94037 226.54391 559.57812 228.52734 C 558.14105 236.39799 558.91205 244.42989 557.26367 252.32227 C 553.30524 271.27585 540.94898 284.70905 528.20703 297.96875 C 527.31049 298.90173 526.21362 299.99741 524.72461 299.24219 C 523.32532 298.53253 523.36316 297.07153 523.36328 295.72461 C 523.36426 284.39148 522.85175 273.02765 523.52539 261.73438 C 524.17255 250.88554 527.77277 240.77695 536.05859 233.16406 C 540.54236 229.04443 544.3064 224.52638 547.2207 219.21094 C 552.77289 209.08438 559.98431 200.7836 570.64453 195.43555 C 580.71991 190.38089 587.789 181.85617 593.57031 172.28711 C 595.09943 169.75624 595.65228 167.02554 595.26562 164.13672 C 594.81421 160.76297 593.09503 160.30196 590.47656 162.24805 C 588.67755 163.58511 587.68164 165.52527 586.58789 167.39062 C 579.86053 178.8645 568.91541 185.23145 557.56641 192.21484 C 556.854 184.21138 558.96082 177.47285 559.96484 170.61719 C 560.45221 167.28906 560.87915 164.0383 557.79297 161.58984 C 553.88892 162.84727 552.82336 166.16096 551.95117 169.31055 C 550.89185 173.13594 550.21185 177.08855 549.66016 181.02734 C 548.27948 190.88452 547.80475 200.97173 541.40234 209.36719 C 537.4646 214.53073 533.76398 219.88809 529.62109 224.87891 C 527.41431 227.53745 525.30627 230.74513 521.45703 231.25 C 519.97961 229.7352 520.26752 228.15657 520.41602 226.7207 C 521.68457 214.46204 522.39301 202.18327 522.44336 189.85156 C 522.4574 186.41106 523.33105 182.94507 524.05664 179.54297 C 525.43951 173.0591 529.51611 168.27238 534.20117 163.86133 C 540.18652 158.22612 543.87616 151.16689 546.05078 143.35156 C 546.62659 141.28206 547.36865 138.38214 544.61133 137.12305 C 542.19641 136.02031 540.49213 138.08241 539.18359 139.72266 C 537.5365 141.78719 536.28857 144.17186 534.86914 146.41797 C 531.078 152.41708 526.5639 157.78386 521.63281 162.72266 C 519.23291 161.10318 518.57123 159.29619 518.08594 157.30273 C 516.82916 152.14033 515.5495 146.98021 514.11523 141.86523 C 513.22168 138.67853 512.65329 135.34686 510.78906 132.50391 C 509.95657 131.23438 508.97525 129.94311 507.23633 130.23242 z "
   inkscape:label="tree"
   style="fill:#000000;fill-opacity:1;stroke:none" /><circle
   style="fill:none;fill-opacity:1;stroke:#000000;stroke-width:16;stroke-dasharray:none;stroke-opacity:1"
   id="path17"
   cx="511.53845"
   cy="507.38461"
   r="411.69232" /></svg>
