<?xml version="1.0" encoding="UTF-8" standalone="no"?>
<svg
   version="1.1"
   id="Layer_1"
   x="0px"
   y="0px"
   width="100%"
   viewBox="0 0 1024 1024"
   enable-background="new 0 0 1024 1024"
   xml:space="preserve"
   sodipodi:docname="file_2.svg"
   inkscape:version="1.4 (e7c3feb1, 2024-10-09)"
   xmlns:inkscape="http://www.inkscape.org/namespaces/inkscape"
   xmlns:sodipodi="http://sodipodi.sourceforge.net/DTD/sodipodi-0.dtd"
   xmlns:xlink="http://www.w3.org/1999/xlink"
   xmlns="http://www.w3.org/2000/svg"
   xmlns:svg="http://www.w3.org/2000/svg"><defs
   id="defs2"><rect
     x="947.69231"
     y="505.84615"
     width="18.461538"
     height="118.15385"
     id="rect2" /><linearGradient
     id="swatch22"
     inkscape:swatch="solid"><stop
       style="stop-color:#000000;stop-opacity:1;"
       offset="0"
       id="stop22" /></linearGradient><linearGradient
     id="swatch18"
     inkscape:swatch="solid"><stop
       style="stop-color:#000000;stop-opacity:1;"
       offset="0"
       id="stop18" /></linearGradient><linearGradient
     id="swatch17"
     inkscape:swatch="solid"><stop
       style="stop-color:#000000;stop-opacity:1;"
       offset="0"
       id="stop17" /></linearGradient><linearGradient
     id="swatch16"
     inkscape:swatch="solid"><stop
       style="stop-color:#000000;stop-opacity:1;"
       offset="0"
       id="stop16" /></linearGradient><linearGradient
     id="swatch14"><stop
       style="stop-color:#000000;stop-opacity:1;"
       offset="0"
       id="stop14" /></linearGradient><linearGradient
     id="swatch3"
     inkscape:swatch="solid"><stop
       style="stop-color:#000000;stop-opacity:1;"
       offset="0"
       id="stop3" /></linearGradient><linearGradient
     inkscape:collect="always"
     xlink:href="#swatch16"
     id="linearGradient16"
     x1="-115.14934"
     y1="1060.4221"
     x2="1144.4801"
     y2="1060.4221"
     gradientUnits="userSpaceOnUse" /><linearGradient
     inkscape:collect="always"
     xlink:href="#swatch17"
     id="linearGradient17"
     x1="-115.14934"
     y1="1060.4221"
     x2="1144.4801"
     y2="1060.4221"
     gradientUnits="userSpaceOnUse" /></defs><sodipodi:namedview
   id="namedview2"
   pagecolor="#ffffff"
   bordercolor="#000000"
   borderopacity="0.25"
   inkscape:showpageshadow="2"
   inkscape:pageopacity="0.0"
   inkscape:pagecheckerboard="0"
   inkscape:deskcolor="#d1d1d1"
   inkscape:zoom="0.8125"
   inkscape:cx="520"
   inkscape:cy="481.23077"
   inkscape:window-width="2080"
   inkscape:window-height="1173"
   inkscape:window-x="1810"
   inkscape:window-y="25"
   inkscape:window-maximized="0"
   inkscape:current-layer="Layer_1" />


<g
   id="g2"
   transform="translate(9.4615479,-26.384613)"><path
     id="path2-0"
     d="m 507.23633,130.23242 c -1.4354,0.2388 -2.22858,1.36893 -2.58399,2.75586 -0.98593,3.84744 -2.14279,7.62007 -1.35156,11.73828 1.17078,6.09346 3.35782,11.84352 5.61524,17.55664 2.50955,6.35125 3.29415,12.83678 2.65625,19.58399 -1.01569,10.74283 -1.92939,21.49473 -2.9375,32.23828 -0.49772,5.30426 -1.11078,10.59907 -1.67188,15.90625 -3.11108,-0.33222 -4.34637,-2.02554 -5.49805,-3.58399 -5.04593,-6.82827 -10.29223,-13.54608 -14.26953,-21.08007 -3.60391,-6.8268 -4.81216,-14.11293 -3.20898,-21.75977 1.49795,-7.14471 3.1997,-14.25522 4.40234,-21.44922 0.49381,-2.95395 0.55957,-6.33739 -2.93945,-8.20703 -4.82605,2.51767 -2.4841,8.9789 -7.0293,12.03516 -3.75052,-3.8129 -5.27978,-8.40105 -6.09375,-13.34375 -0.50543,-3.06926 -1.98022,-5.84044 -5.27734,-5.57617 -3.9007,0.31265 -3.52951,3.89778 -3.32227,6.66992 0.43216,5.78053 2.60733,11.18129 5.88282,15.73632 5.97384,8.30741 5.11459,17.63427 5.25976,26.89649 0.0482,3.07698 -1.41159,3.82069 -4.1582,2.49023 -5.0018,-2.42289 -9.34635,-5.63018 -13.16797,-9.71875 -5.34076,-5.71376 -7.52625,-12.75699 -9.57227,-20.01757 -0.92856,-3.29502 -2.73159,-7.74283 -6.76172,-6.5625 -4.35696,1.27606 -2.41787,5.69508 -1.73632,9.0664 0.60739,3.0045 2.69555,5.73053 1.96289,9.30469 -5.29148,-0.48897 -9.34671,-3.95415 -14.30078,-4.65039 -2.39054,-0.33595 -5.01178,-1.06934 -6.06836,1.65234 -1.10987,2.8589 1.06442,4.82047 3.40429,5.88086 4.69361,2.12711 9.54099,3.91475 14.32032,5.85352 3.69244,1.49789 7.61593,2.61953 10.40039,5.72461 5.21847,5.81929 11.66809,9.86595 18.66992,13.13476 2.71863,1.26921 5.60315,2.3613 7.71094,4.54297 10.68054,11.05504 20.48825,22.92072 27.94335,36.33008 7.57935,13.63274 0.68058,28.32501 2.13282,42.1543 -1.84125,0.8995 -2.7956,0.34204 -3.55274,-0.20313 -8.90335,-6.41095 -15.55911,-14.9519 -21.98047,-23.66015 -1.10662,-1.50074 -1.58941,-3.75412 -1.65429,-5.6836 -0.48926,-14.54614 -9.7616,-24.72381 -17.50586,-35.66797 -0.27982,-0.39544 -0.71625,-0.70051 -1.12696,-0.97851 -3.14837,-2.131 -4.88681,-1.26964 -5.19921,2.49414 -0.44547,5.36712 2.44198,9.19787 5.90625,12.6875 5.80511,5.84764 7.74511,13.18977 9.02539,21.00195 -3.10279,0.87396 -5.01114,-0.56485 -6.94336,-1.7793 -1.97132,-1.23901 -3.77518,-2.7762 -5.82813,-3.8457 -2.8945,-1.50792 -6.35794,-3.84668 -8.69922,0.2832 -2.21292,3.90351 0.32389,6.50531 3.77539,8.37305 4.26047,2.30548 8.6785,4.21866 13.28321,5.70508 4.09082,1.32052 7.63629,3.57657 10.02929,7.09961 4.82322,7.10083 10.78992,13.1752 17.10938,18.82031 9.59515,8.57123 12.935,19.71091 13.21289,31.77539 0.30624,13.29532 -0.53406,26.61749 -0.87695,39.92774 -0.0262,1.01721 -0.094,2.02001 -1.50977,2.75195 -2.19565,-0.0567 -3.31955,-2.013 -4.6914,-3.62305 -5.91047,-6.93683 -9.72968,-15.04596 -13.375,-23.30273 -2.51157,-5.68891 -3.19327,-11.35282 -2.17774,-17.4961 0.94882,-5.73996 1.50806,-11.67431 -2.16016,-16.88476 -1.47067,-2.08893 -3.53677,-4.20007 -6.19336,-3.08789 -2.74703,1.15008 -1.77838,3.88379 -1.16601,6.16797 1.11005,4.14019 2.12564,8.29162 0.70898,13.21679 -3.40139,-1.73202 -5.3385,-4.44275 -7.40039,-6.91601 -6.95575,-8.34348 -14.00683,-16.57779 -12.50781,-28.75782 0.39591,-3.21652 -1.22177,-6.51873 -3.0332,-9.36718 -0.9953,-1.56507 -2.36954,-3.11753 -4.45117,-2.55469 -2.10566,0.5693 -2.53864,2.73041 -2.4961,4.48242 0.0597,2.46036 0.97064,4.89465 1.09961,7.36133 0.19693,3.76624 2.95645,7.55814 0.16797,11.5332 -5.40241,-0.92831 -9.3866,-3.60168 -12.20898,-8.06836 -1.24457,-1.96966 -2.34775,-4.06134 -3.81836,-5.84765 -1.8053,-2.19281 -4.13248,-4.71478 -7.13477,-2.88086 -3.12781,1.91061 -1.68317,5.06805 -0.36523,7.56055 3.42746,6.48223 8.21985,11.76968 14.85742,15.05078 13.62771,6.73654 24.47735,16.49267 32.79101,29.19922 3.61185,5.52038 5.24094,11.6972 7.41407,18.17187 -6.05469,0.5369 -11.13208,-0.77823 -16.20704,-2.31836 -2.3731,-0.72021 -5.30242,-1.65723 -6.64257,1.25391 -1.23926,2.69195 0.93029,4.71203 2.93554,6.27929 3.28656,2.56879 7.2645,3.03711 11.26172,3.53711 9.30747,1.16428 17.46771,4.03037 23.625,12.08789 13.5759,17.76557 14.81079,37.52063 10.72852,58.33399 -1.22916,6.26694 -6.314,11.19006 -11.43555,11.83008 -4.75607,0.59436 -10.28293,-3.24829 -13.02344,-9.25 -0.67669,-1.482 -1.21466,-3.17719 -1.24023,-4.78321 -0.18994,-11.92999 -2.88028,-23.79876 -0.89649,-35.7832 0.41218,-2.49005 0.52387,-4.99149 -0.79101,-7.30664 -0.73331,-1.29114 -1.38681,-2.87119 -3.21484,-2.65625 -1.52835,0.17969 -1.79416,1.7081 -2.47071,2.84766 -1.21341,2.04376 -0.20459,5.09741 -2.74609,6.5332 -2.50855,-1.11188 -3.4722,-3.34967 -4.92188,-5.13867 -1.94262,-2.3974 -3.87539,-6.17578 -7.46679,-3.48243 -3.4202,2.56501 -0.53437,5.69025 0.93359,8.39454 0.23547,0.4338 0.53537,0.87808 0.91406,1.18164 9.20691,7.38055 10.21833,17.755 10.28321,28.41406 0.0134,2.20038 0.84744,4.6358 -0.82422,6.59961 -1.47724,0.10931 -2.26547,-0.83478 -3.17969,-1.5293 -13.54285,-10.28863 -22.73056,-23.94388 -28.62305,-39.55859 -5.21173,-13.8107 -6.54788,-27.86841 3.67188,-40.6582 1.84103,-2.30399 2.93439,-5.21171 4.33008,-7.86329 1.02673,-1.95062 1.53295,-4.02472 1.37695,-6.25781 -0.11551,-1.65307 0.16327,-3.53338 -1.78125,-4.28906 -1.90314,-0.73956 -3.54346,-0.007 -4.96484,1.40625 -3.70639,3.68417 -4.79328,8.68008 -6.6836,13.26562 -0.80789,1.95975 -1.04941,4.21473 -3.32812,5.38868 -2.43189,-1.53647 -2.49402,-4.22263 -3.10742,-6.50391 -2.18692,-8.133 -0.59583,-16.16321 1.10351,-24.13672 0.55362,-2.59775 1.37781,-5.09531 0.002,-7.5332 -3.45349,-1.08499 -4.47714,2.77231 -7.41211,3.14453 -1.1148,-1.70642 -2.20092,-3.54938 -3.46875,-5.25781 -1.18142,-1.59201 -2.5148,-3.57099 -4.82031,-2.67578 -1.86682,0.72485 -2.0581,2.85119 -2.19336,4.68554 -0.3334,4.52139 1.32712,8.55914 3.55078,12.28125 2.56626,4.29559 3.62107,8.78421 3.64844,13.75977 0.0293,5.3201 0.57941,10.67807 3.16992,15.49218 3.91483,7.27521 5.24259,15.01829 4.58789,23.17188 -0.12841,1.59921 0.60208,3.59811 -1.16015,4.58203 -2.03781,1.13785 -3.34958,-0.76764 -4.79883,-1.74023 -23.99966,-16.10547 -29.93655,-40.21442 -26.82813,-66.57422 3.25095,-27.56836 16.54505,-50.32717 39.95118,-66.3711 3.52758,-2.418 6.34314,-5.40615 7.89843,-9.42578 0.87168,-2.25287 1.39396,-4.83005 -0.89843,-6.37695 -2.6175,-1.76624 -4.21607,0.68443 -5.81641,2.2832 -1.66013,1.65853 -2.04163,4.61185 -5.16211,5.20117 -0.90655,-2.18484 0.41724,-3.70175 1.00586,-5.31835 1.68005,-4.61435 5.24911,-8.07584 7.56836,-12.29297 1.47879,-2.68897 1.78644,-5.94863 -0.93945,-7.64844 -2.41159,-1.50386 -4.64542,0.76849 -6.34766,2.65039 -0.88654,0.98009 -1.54587,2.16286 -2.3418,3.22852 -5.30554,7.10357 -7.57995,15.44583 -9.90429,23.80273 -1.14731,4.12491 -2.98819,7.94797 -7.87891,10.59766 -1.02771,-7.98766 -2.17651,-15.05347 -0.27344,-22.3086 1.44065,-5.49212 2.02741,-11.14578 1.55078,-16.82422 -0.25067,-2.98704 -0.79782,-6.81404 -4.16601,-7.12304 -3.3172,-0.30434 -3.02185,3.67006 -3.83399,6.05078 -0.21344,0.62564 -0.38449,1.29118 -0.42382,1.94726 -0.87336,14.56681 -4.21207,28.8848 -3.36914,43.66602 0.67819,11.89242 -8.5477,19.87234 -13.31641,29.76758 -4.07538,-7.00571 -9.75196,-12.62293 -10.88867,-20.53711 -2.27897,-15.86719 0.40484,-31.49925 2.71875,-47.08399 1.65463,-11.14454 5.39557,-21.99308 5.22265,-33.39257 -0.0527,-3.47368 -0.28616,-8.63242 -4.76562,-8.5625 -3.87647,0.0605 -3.18424,5.06012 -3.78516,8.19531 -0.0618,0.32258 0.0293,0.67572 -0.0332,0.99804 -1.33847,6.898 -0.59726,14.18586 -3.61719,20.98047 -2.4685,-1.40193 -3.38361,-3.58374 -4.49609,-5.58007 -3.32379,-5.96447 -6.38269,-12.09148 -9.9961,-17.87305 -1.65759,-2.65221 -4.1792,-6.82205 -7.57031,-4.92383 -3.20172,1.79222 -1.40652,6.09457 0.0371,9.06055 4.077,8.37629 7.92197,16.89079 13.61524,24.38281 1.90487,2.50673 3.89175,5.11757 3.99414,8.45703 0.33093,10.79599 -1.27106,21.45041 -2.10547,33.5 -9.46213,-9.33682 -19.35855,-16.53428 -24.12891,-28.25195 -3.52222,-8.65173 -7.58069,-17.04733 -12.3457,-25.07813 -1.25388,-2.11323 -3.16062,-4.51262 -5.95703,-3.33789 -2.64667,1.11182 -2.60685,4.05878 -2.29883,6.58985 0.30444,2.5016 1.34997,4.78825 2.64648,6.94726 2.31516,3.85549 4.77817,7.63104 6.89649,11.5918 1.50976,2.82297 3.40515,5.63595 3.14453,9.15039 -2.85208,0.77141 -5.11673,-0.99097 -7.61328,-0.83789 -1.52555,0.0936 -3.14292,0.03 -3.81836,1.72656 -0.71952,1.80725 0.0437,3.41878 1.55078,4.33594 2.26001,1.37543 4.67047,2.53165 7.09766,3.59765 3.80313,1.67034 7.75405,2.96265 11.18554,5.45508 17.90646,13.00621 27.99399,31.76309 37.54492,50.91211 0.58161,1.16608 0.78879,2.54203 1.03907,3.84571 2.21045,11.51373 0.39254,23.27496 2.08398,34.82812 0.10443,0.71329 -0.40054,1.51572 -0.87109,3.13281 -11.97025,-8.61294 -22.19254,-17.72061 -25.18555,-32.5 -0.95331,-4.70749 -1.41907,-9.5108 -2.15625,-14.26367 -1.34906,-8.69781 -3.81873,-16.90237 -10.65039,-23.05859 -1.65064,-1.48746 -3.66382,-2.93988 -5.75195,-1.17383 -1.90607,1.61209 -1.44419,3.90451 -0.38868,5.97266 0.37684,0.73837 0.72901,1.53518 1.28125,2.13086 10.33957,11.15292 6.37281,26.04748 10.63672,38.85546 -9.02667,-4.47335 -17.22665,-9.23315 -20.65429,-19.33789 -2.14948,-6.3367 -5.96244,-11.88672 -10.32032,-16.99414 -4.22894,-4.95633 -6.47711,-10.6094 -7.28515,-17.14843 -0.96085,-7.7757 -3.262,-15.27791 -7.07617,-22.22657 -0.89573,-1.63185 -1.86228,-3.185 -3.60157,-4.02148 -1.34222,-0.64554 -2.74426,-1.44675 -4.24804,-0.54297 -1.72757,1.03825 -1.84607,2.83894 -1.34766,4.43359 0.93936,3.00556 2.10928,5.95148 3.35937,8.84571 2.09546,4.85138 3.94962,9.73785 4.16797,15.56054 -5.78457,-0.84741 -10.5495,-3.05151 -15.20312,-5.53906 -5.28522,-2.8251 -10.42426,-5.95189 -16.1543,-7.84961 -2.01135,-0.66615 -4.34823,-1.9259 -5.85156,0.5293 -1.48663,2.42793 0.51489,4.06943 2.15625,5.45117 6.17047,5.19434 12.96286,9.89374 20.66602,11.82617 12.22418,3.0665 19.54183,11.52457 26.28124,20.93555 3.13959,4.38418 5.90867,9.11026 7.00196,14.83984 -5.01257,0.94309 -9.22315,-1.14956 -13.61133,-1.52539 -15.30933,-1.31128 -28.69122,-6.61481 -39.23047,-18.25195 -2.69287,-2.97336 -6.22934,-5.16541 -9.96094,-6.53906 -2.99287,-1.10169 -7.18428,-4.24439 -9.32226,-0.10157 -1.95795,3.79392 2.7861,5.35138 5.27539,7.30274 3.30444,2.59036 7.38751,4.41116 8.72851,9.19726 -6.7077,3.09885 -13.53575,2.64411 -20.33203,2.42383 -2.52279,-0.0818 -4.87837,0.46375 -5.53906,3.19141 -0.6841,2.82437 1.54939,4.1503 3.63867,5.27148 1.63585,0.87784 3.44374,1.0961 5.3086,1.19727 3.89648,0.21145 7.57364,-0.89255 11.32617,-1.58985 6.5271,-1.21289 13.38986,-3.4241 19.58594,-0.26171 10.01016,5.10907 20.80892,6.88147 31.5664,8.70312 10.21857,1.73041 20.51834,2.93491 29.17383,9.19141 14.05518,10.15966 26.64468,22.1018 39.72852,33.43164 2.88055,2.49438 5.50769,5.64007 6.14453,9.79101 -8.83683,2.65732 -18.32819,1.35489 -26.31055,-4.56054 -6.82077,-5.05463 -14.70032,-7.73783 -22.16406,-11.35352 -1.96512,-0.95193 -4.73139,-2.39023 -6.16602,0.47461 -1.31802,2.63202 0.54993,4.72623 2.70899,6.2832 4.48788,3.23639 9.61331,5.31015 14.45703,7.89844 2.4559,1.31235 5.19635,2.3035 6.68164,5.14063 -1.06558,1.90945 -2.87885,2.68341 -4.79883,3.27539 -3.83188,1.18145 -7.73215,1.88058 -11.76563,1.93164 -2.11538,0.0268 -4.1712,0.94693 -4.59765,3.10742 -0.42874,2.17209 1.66342,2.99454 3.29492,3.84375 5.43536,2.82895 10.76364,1.74704 15.80469,-0.85547 15.59961,-8.05371 31.17367,-5.27469 46.28711,0.75586 17.06469,6.80917 27.38656,21.19897 37.15039,35.87695 0.41324,0.62122 0.4259,1.50864 0.78125,2.87305 -4.10971,0.55045 -7.7879,0.70618 -11.5625,-0.20313 -7.39975,-1.78256 -14.0199,-5.12384 -20.23438,-9.45312 -1.77826,-1.23886 -4.17599,-3.46188 -6.09179,-0.86524 -1.60971,2.18177 -0.40415,4.78858 1.40039,6.80079 2.86941,3.1997 6.6586,4.89572 10.51562,6.51562 3.711,1.55859 7.73551,2.60233 10.76953,5.79297 -2.77798,2.66855 -6.0683,2.38632 -9.10156,3.01172 -3.14352,0.64819 -6.0444,2.0148 -5.14258,5.93945 0.82962,3.61023 4.06842,3.68765 6.88282,3.18555 5.24206,-0.93527 10.36334,-2.28919 14.77929,-5.62305 2.97635,-2.24698 6.23078,-3.12799 10.25391,-2.46289 11.50763,1.90241 18.75226,9.45825 25.3418,18.04688 1.11447,1.4526 1.52835,3.2807 1.73632,5.14453 1.07892,9.66806 -7.91385,23.53497 -17.26562,26.59961 -1.44983,0.47512 -2.79904,0.61761 -4.36914,0.31836 -8.08512,-1.54114 -15.75705,-3.98432 -22.6875,-8.63282 -10.56366,-7.08539 -20.37982,-15.16577 -28.92188,-24.46875 -9.28155,-10.10836 -14.51391,-22.13937 -12.9414,-36.49218 0.51797,-4.72782 0.23712,-9.6568 -1.64258,-14.2461 -0.79505,-1.94104 -1.89462,-3.66983 -4.3418,-3.40039 -2.45807,0.27069 -2.99975,2.35358 -3.57812,4.2832 -0.45667,1.5235 0.12469,2.95954 0.50195,4.40626 1.14423,4.38821 1.5004,8.84582 1.17969,13.36523 -0.24588,3.46469 -1.73389,4.41043 -4.91211,2.67578 -6.66623,-3.63831 -12.60935,-8.11273 -17.04492,-14.36523 -1.77237,-2.49839 -3.87363,-4.63526 -6.63672,-5.92969 -3.17292,-1.48642 -5.28382,0.0601 -4.94922,3.57031 0.33011,3.46295 2.18918,6.17554 4.46484,8.7207 6.32569,7.07483 14.19477,11.99927 22.38672,16.54883 6.62747,3.6807 9.87027,9.70566 11.78516,16.64453 -2.49405,1.42069 -4.19965,0.70661 -5.92188,0.0781 -3.43967,-1.25519 -6.87094,-2.53955 -10.33984,-3.70899 -1.74997,-0.58993 -3.85367,-1.15112 -5.04492,0.65821 -1.38721,2.10702 0.34698,3.8515 1.72265,5.18164 3.20478,3.09869 7.24524,4.58279 11.58008,5.41406 5.20142,0.9975 10.34866,1.79721 15.01367,4.91016 11.45987,7.64724 20.14343,18.41131 30.85938,26.86523 0.30877,0.24362 0.29501,0.89438 0.76562,2.47656 -5.90829,0 -11.44919,0.0396 -16.99023,-0.008 -13.50763,-0.11566 -25.22046,-4.57519 -35.50781,-13.54687 -11.99671,-10.46241 -22.36976,-22.32914 -32.46485,-34.54883 -6.16369,-7.46091 -10.3204,-15.70291 -13.27344,-24.89258 -4.38714,-13.65262 -4.65502,-28.2067 -9.68945,-41.68359 -1.79172,-4.7963 -1.68368,-9.80887 -0.47265,-14.75196 1.74996,-7.14288 2.97866,-14.34164 2.28515,-21.71875 -0.2518,-2.6784 -0.86883,-5.87323 -4.125,-5.94531 -3.26874,-0.0724 -3.10232,3.05994 -3.56641,5.57031 -0.91705,4.9606 -0.18951,10.27262 -2.95898,15.29688 -5.62155,-4.8132 -10.40146,-9.67294 -11.81641,-17.02735 -0.42651,-2.21676 -0.94601,-4.75149 -3.68164,-5.48046 -2.67108,-0.7118 -2.7528,2.48754 -4.59961,3.29492 -0.56069,-0.28772 -1.15615,-0.56278 -1.72265,-0.88867 -1.85715,-1.0683 -3.47116,-4.00922 -5.91992,-1.63672 -2.06772,2.00329 -0.50385,4.38931 0.56445,6.4414 2.45288,4.71173 6.35623,8.02643 10.61523,11.0586 10.58002,7.53219 15.33912,18.27749 17.09961,31.19531 -5.85919,-0.97455 -9.35049,-4.9852 -13.45312,-7.91211 -3.92825,-2.80258 -7.67725,-5.86542 -11.68946,-8.53711 -2.08947,-1.39133 -4.83901,-2.42734 -6.69726,0.2168 -1.66742,2.37256 0.05,4.38028 1.79102,6.08203 0.47634,0.46567 0.94808,0.94742 1.48242,1.33984 6.44238,4.73151 12.68747,9.77396 19.40039,14.08594 8.26999,5.31213 13.90301,12.21359 16.01758,21.90625 1.02575,4.70194 2.3572,9.3374 3.39453,14.03711 0.3417,1.54831 0.72046,3.32669 -1.25391,4.73633 -13.72589,-3.44635 -26.14835,-9.05963 -34.48047,-21.56836 -5.7232,-8.59207 -11.06854,-17.61609 -17.94922,-25.20899 -7.90339,-8.72143 -8.60957,-18.07965 -6.82812,-28.73437 0.8936,-5.34451 1.46715,-10.9448 -0.82813,-16.22266 -0.58624,-1.34793 -1.44482,-2.84308 -3.25195,-2.64453 -1.7746,0.19498 -2.43652,1.83728 -2.68164,3.24024 -0.39749,2.27505 -0.29605,4.63391 -0.49414,6.94921 -0.36907,4.31342 -0.42597,8.70545 -2.58203,13.71875 -5.18106,-6.56311 -9.6361,-12.35809 -14.26563,-18.00976 -2.50735,-3.06095 -5.08052,-6.83649 -9.87695,-4.47461 -2.57449,1.26773 -1.4579,6.67288 2.35156,11.04687 3.71851,4.2696 7.78772,8.23282 11.5586,12.45899 2.46276,2.7601 5.08174,5.49716 6.14453,9.41992 -3.02153,0.54251 -5.58678,0.30035 -8.24805,-0.20117 -7.40257,-1.39508 -12.98984,-5.71347 -18.24805,-10.69141 -2.09652,-1.98471 -4.68771,-4.35357 -7.35547,-2.01562 -2.96482,2.59826 -0.60127,5.46615 1.19532,7.90429 0.58921,0.7996 1.3359,1.48697 2.0332,2.20313 6.0649,6.22876 13.78732,9.07806 22.05273,10.84375 5.34047,1.14084 11.11763,1.38623 15.42579,5.16797 9.05665,7.94995 13.10183,19.32141 20.10742,28.70703 -2.10228,1.50354 -3.54529,1.30084 -5.04688,1.05273 -7.52614,-1.24368 -15.03586,-2.64453 -22.59961,-3.59961 -8.40182,-1.06094 -15.0966,-4.79232 -20.22265,-11.48632 -1.21398,-1.5853 -2.49225,-3.14341 -3.89844,-4.55664 -4.36917,-4.39097 -8.95622,-8.46927 -15.19141,-10.09766 -1.74296,-0.4552 -3.36293,-0.60266 -4.52343,0.97266 -1.26743,1.72045 -0.81313,3.50814 0.35937,5.08203 1.50092,2.01471 3.35042,3.68268 5.41992,5.1289 3.55413,2.48371 6.95902,5.14908 10.00391,8.26368 4.06232,4.1553 3.73421,5.60275 -2.05859,6.99218 -6.23044,1.49442 -12.60976,0.3635 -18.91407,0.66992 -3.13179,0.1522 -7.23167,-0.32528 -7.41601,3.88477 -0.18018,4.11499 4.11601,3.97568 7.05273,4.76367 0.46958,0.12604 0.99622,0.0449 1.49609,0.0547 8.32789,0.16342 16.66048,0.39603 24.72461,-2.29297 2.60419,-0.86838 5.19671,-0.68124 7.88282,-0.21289 7.35409,1.28229 14.71982,2.53503 22.12109,3.49414 13.29082,1.72232 26.20325,4.52243 37.78125,11.72656 5.95013,3.70243 12.03351,7.37851 18.81445,9.125 14.39429,3.70737 23.19983,14.16019 32.02735,24.91993 7.59381,9.25601 14.9006,18.82537 24.52148,26.22851 1.63266,1.25626 3.93808,1.96509 4.5918,4.50195 -1.89731,1.61069 -4.16702,1.90815 -6.49414,1.79297 -5.81635,-0.28775 -11.6536,-0.42831 -17.4375,-1.04687 -14.55445,-1.55661 -26.74286,-6.72058 -32.38672,-21.75 -1.76383,-4.69712 -4.53037,-8.90283 -8.14258,-12.47461 -2.76004,-2.72925 -6.02539,-4.05954 -9.95117,-3.67969 -1.3996,0.13547 -2.7641,0.4429 -3.3418,1.7832 -0.63345,1.46955 0.4574,2.47983 1.44727,3.41602 2.29874,2.17404 4.81012,4.17181 6.83398,6.57812 3.51596,4.18033 6.31662,8.76883 6.13086,14.85743 -1.22119,-0.0628 -1.87845,-0.006 -2.49414,-0.14063 -13.89191,-3.03784 -25.61157,-15.80182 -27.64258,-30.11523 -0.58575,-4.1283 -1.311,-8.22635 -3.16601,-11.99805 -1.01651,-2.06671 -2.15296,-4.76614 -4.96094,-3.9707 -2.64281,0.74859 -2.46031,3.57226 -2.51562,5.92187 -0.0589,2.50412 1.92306,4.97797 0.19531,7.74024 -7.59473,-3.89231 -14.40024,-8.62983 -20.99024,-13.72071 -1.96953,-1.52148 -4.47657,-3.38989 -6.625,-0.88281 -2.19519,2.56162 -0.32689,4.95392 1.6875,6.91016 5.79164,5.62436 12.74096,9.61374 19.58203,13.73828 3.29358,1.98578 6.83359,3.74597 8.98438,7.01953 5.16774,7.8652 10.17715,15.82767 17.72656,22.33984 -6.93396,2.11771 -13.26503,1.05292 -19.50586,1.10157 -2.97854,0.0232 -5.65011,-1.52677 -8.11133,-3.46875 -5.47889,-4.32309 -10.31626,-9.56022 -16.71679,-12.60938 -12.74823,-6.073 -22.99773,-14.47037 -28.34571,-28.10547 -1.3276,-3.38486 -4.26866,-8.40692 -8.10546,-6.34179 -4.37946,2.3572 -0.99678,7.0791 0.73242,10.55078 2.47294,4.96493 5.11891,9.84259 8.17969,15.6914 -8.31388,-1.41382 -14.61129,-4.78778 -21.00196,-7.8457 -2.87822,-1.3772 -5.82512,-2.47186 -8.92773,-3.11133 -2.22673,-0.45889 -3.8134,0.51563 -4.89649,2.53516 -1.18533,2.21023 0.53798,3.13556 1.82032,3.97461 9.68917,6.33944 19.90898,11.82647 31.62304,12.68945 15.1893,1.11896 26.07517,9.91602 36.94727,19.03711 0.28125,0.23593 0.20175,0.90012 0.375,1.80859 -6.011,3.50238 -12.52736,5.97251 -19.04492,8.35743 -5.94504,2.17541 -11.56586,1.56494 -17.10352,-2.04883 -7.91997,-5.1684 -15.64474,-10.8114 -24.97461,-13.42578 -2.7362,-0.76676 -5.42903,-1.63517 -8.32226,-1.21289 -1.73192,0.25277 -3.34284,0.90536 -3.89844,2.66796 -0.62074,1.96927 0.91629,3.05719 2.26953,4.0293 3.29977,2.37042 7.31396,3.15064 10.94531,4.78906 4.91837,2.21912 9.87865,4.35916 14.26367,8.04883 -2.68554,2.40705 -5.5267,2.8439 -8.25,3.31836 -8.00578,1.39481 -16.03967,2.63568 -24.07226,3.87109 -3.25997,0.50135 -7.24031,1.33344 -6.90039,5.00196 0.3383,3.65106 4.61471,3.84485 7.74804,3.77929 5.99299,-0.12536 11.83846,-1.55804 17.74219,-2.49609 8.52464,-1.35449 16.43675,-5.5246 25.27539,-5.37695 13.9326,0.23275 27.00756,-3.16925 39.37696,-9.44336 3.74391,-1.89902 7.56904,-3.37372 11.82226,-3.66406 9.28505,-0.63385 18.58325,-1.16874 27.83789,-2.11915 11.64423,-1.19583 20.45484,5.34754 31.26172,10.31055 -5.72473,3.86395 -10.40253,7.24396 -15.29492,10.2793 -11.74341,7.28601 -23.79035,7.57709 -36.0293,1.1543 -2.05829,-1.08014 -4.17886,-2.11371 -6.58008,-2.17969 -1.99257,-0.0548 -4.4161,-0.38825 -5.21679,1.90234 -0.83141,2.37842 0.87553,4.11847 2.82812,5.26367 1.27338,0.74689 2.7946,1.05408 4.13672,1.70118 2.25877,1.08905 5.13589,1.33441 6.40625,4.35546 -9.36015,4.391 -18.67734,6.12885 -28.72266,3.37696 -9.60957,-2.63239 -19.47714,-3.3584 -28.91406,0.39062 -8.64775,3.43549 -16.95521,7.70667 -26.27734,9.21875 -1.08859,0.17658 -2.18457,0.8736 -3.07422,1.58399 -1.56242,1.24762 -3.30162,2.67486 -2.60156,4.97265 0.70402,2.31073 2.93065,1.80988 4.68359,1.84375 8.92207,0.17243 16.85516,-2.93915 24.62695,-7.03711 8.70156,-4.58813 17.76423,-5.52356 27.72657,-1.27539 -7.7316,9.60504 -14.9612,18.41608 -26.80469,21.68555 -5.7666,1.59192 -11.48348,3.37347 -17.19141,5.16797 -2.70743,0.8512 -5.34675,1.94598 -7.22265,4.24023 -1.39501,1.70612 -2.89983,3.62854 -1.57618,5.84375 1.39647,2.33716 3.93689,1.64875 5.88086,0.95313 4.06778,-1.45563 7.94924,-3.42658 11.99024,-4.9668 4.88148,-1.86072 9.78143,-3.83032 15.65234,-3.46289 -1.27186,3.52106 -2.40005,6.6178 -3.50976,9.72266 -0.58806,1.64532 -0.93746,3.38214 0.78906,4.49804 1.7802,1.15045 3.15349,-0.19323 4.41601,-1.24023 2.60875,-2.16333 4.44727,-4.87213 5.8379,-7.98633 3.19572,-7.15661 6.8113,-14.12311 11.43359,-20.46094 4.47743,-6.13916 9.77074,-11.33184 17.64062,-13.07226 10.55687,-2.3346 20.87775,-5.54138 31.16407,-8.84571 2.04196,-0.65594 4.03961,-1.22393 6.60156,-0.0566 -3.38226,7.82508 -7.32523,14.75861 -14.92188,18.91407 -3.21454,1.75842 -6.50927,3.41711 -9.23437,5.91797 -2.56653,2.35534 -4.86873,4.90448 -4.76367,8.92187 8.06718,2.65253 12.24069,-5.62042 19.3164,-6.83789 -1.04364,3.75549 -2.14926,6.89862 -2.73047,10.13672 -0.35894,2.00006 -0.9378,4.82611 1.71094,5.63867 2.24957,0.69006 4.01737,-1.16827 5.29102,-3.00781 2.11868,-3.05994 3.69497,-6.57074 4.00781,-10.13281 1.05704,-12.03608 8.62845,-21.09583 13.69531,-31.28711 0.92865,-1.86792 2.54914,-3.56629 4.22266,-4.86133 8.64456,-6.68988 18.09183,-11.73181 28.89062,-14.16211 12.58301,-2.83173 25.44703,-2.57645 38.16797,-3.86133 3.35523,-0.3389 6.54984,0.58295 9.58985,3.12305 -4.63483,7.08764 -11.03125,12.08459 -17.29297,17.22265 -2.3982,1.96784 -4.94763,3.59333 -8.16406,2.88282 -6.63434,-1.46564 -13.22916,-0.0439 -19.83985,0.0332 -3.28244,0.0382 -8.02087,-0.57892 -8.13867,3.55273 -0.12363,4.33423 4.61148,4.77784 8.32812,5.1211 2.83631,0.2619 5.81449,-0.74439 8.71485,0.63086 -2.9415,6.31268 -7.40918,10.30798 -14.00781,11.25976 -3.76142,0.54254 -7.63447,0.32471 -11.45704,0.4336 -1.82565,0.052 -3.67865,-0.12818 -5.36914,0.82031 -1.45605,0.81683 -3.1968,1.57483 -3.04296,3.53906 0.15157,1.93616 1.92987,2.59497 3.51757,3.10547 1.78931,0.57532 4.07782,-0.17242 5.38867,2.17578 -0.92343,2.03943 -2.75631,3.19977 -4.4414,4.52539 -2.61102,2.05408 -5.26901,4.06855 -7.70703,6.31641 -1.60385,1.47876 -3.10819,3.42669 -1.33594,5.66797 1.63409,2.06646 3.81696,1.61059 5.89453,0.52929 4.63657,-2.41345 8.63141,-5.63452 12.03711,-9.59375 4.06244,-4.72277 8.47342,-8.81689 14.74414,-10.64257 3.88077,-1.13001 7.07779,-3.68305 9.33789,-7.17579 3.47464,-5.36975 8.29776,-8.94641 14.23438,-11.27734 6.56405,-2.57733 12.5715,-6.1933 17.66406,-11.11133 13.31949,-12.86297 28.82977,-18.8229 47.37109,-15.1289 6.0018,1.19574 12.19376,2.11926 16.78711,6.89062 7.39652,7.68317 5.32025,17.59345 -4.46094,21.42578 -5.07568,1.98865 -9.78207,0.48999 -14.55859,-1.125 -4.06854,-1.37561 -7.77145,-3.90204 -12.27539,-3.92578 -1.75735,-0.009 -3.45734,0.27991 -4.17383,2.08008 -0.77591,1.94958 0.68232,3.2583 2.00977,4.14453 2.45184,1.63696 5.11731,2.95239 8.32226,4.75586 -6.24911,4.03223 -12.63476,5.341 -19.25,5.99609 -7.42581,0.73535 -14.50305,-1.61572 -21.76172,-2.33203 -2.86733,-0.28296 -6.01168,-0.007 -6.62304,3.66797 -0.61517,3.69763 2.70273,4.14728 5.0918,4.9961 1.35842,0.48266 2.96557,0.23297 4.45312,0.38867 2.42896,0.25415 4.89917,0.43347 7.09961,2.36133 -2.91785,4.33178 -7.63593,6.02026 -11.30859,8.99023 -1.78125,1.44043 -4.16153,3.07532 -2.74024,5.71094 1.46866,2.72351 4.22986,2.17523 6.66016,1.20703 4.5708,-1.82092 8.34903,-4.76801 11.67968,-8.36914 3.17985,-3.43799 6.52543,-6.71161 11.21876,-8.0586 6.54937,-1.87964 13.03955,-4.03692 19.68554,-5.47461 3.47733,-0.75219 7.54715,-1.75238 10.41406,1.66602 -0.065,1.62036 -0.8713,2.48157 -1.6582,3.3418 -6.40436,7.00128 -12.52423,14.29504 -19.29883,20.91797 -7.82641,7.65124 -17.01022,12.75585 -28.55859,12.08007 -7.05777,-0.41296 -13.23505,-2.92663 -18.91797,-6.98632 -6.99139,-4.99451 -14.42673,-9.02918 -23.25586,-9.42383 -2.26285,-0.10108 -4.99167,-0.0454 -5.52539,3.03125 -0.48288,2.78363 1.51651,4.25342 3.69922,5.28906 1.0181,0.48309 2.25702,0.47424 3.36133,0.80469 7.99576,2.39258 15.2554,6.06793 21.40039,11.66406 -0.48694,0.85266 -0.58124,1.237 -0.82422,1.41016 -14.59592,10.3985 -48.7377,11.51861 -61.95313,-0.52539 -4.16265,-3.79371 -9.24768,-6.51825 -14.91601,-7.80274 -1.67813,-0.38037 -3.42853,-0.85614 -4.46094,0.94922 -1.01398,1.77325 0.25784,3.17358 1.32617,4.44727 2.53806,3.02606 6.06675,4.59527 9.47657,6.34179 2.90734,1.48932 6.02902,2.70655 8.35937,6.18946 -4.17728,1.55169 -7.96237,3.24499 -12.18359,2.19726 -14.04767,-3.48688 -27.18135,-8.21539 -33.24219,-23.31836 -1.68205,-4.19153 -4.88112,-7.55389 -9.23438,-9.45898 -3.47532,-1.52094 -4.93707,-0.4859 -5.00976,3.31836 -0.0455,2.38037 1.2233,4.13568 2.48633,5.85742 1.67007,2.27667 3.62004,4.34625 5.33593,6.5918 1.07876,1.41168 2.73558,2.90417 1.66602,4.85742 -0.89792,1.63977 -2.87086,1.31903 -4.52539,1.49219 -4.96266,0.51934 -9.54758,-0.32587 -13.875,-2.97266 -2.42441,-1.48285 -5.23541,-1.88367 -7.08398,0.95117 -2.11288,3.24011 0.76818,4.89453 2.74414,6.46484 1.38194,1.09833 3.21785,1.6753 4.91406,2.31836 4.51681,1.71216 9.284,1.1781 13.86133,0.82032 13.70378,-1.07123 23.78402,8.13873 36.60156,11.38671 -13.07123,11.25879 -26.01151,16.76545 -42.9043,11.50977 -13.81093,-4.29687 -25.96029,-10.95294 -37.63281,-19.01953 -2.74793,-1.89905 -5.64441,-3.61481 -8.95703,-4.27344 -1.97475,-0.3927 -4.26341,-0.44458 -5.25781,1.75977 -0.93261,2.06738 0.0147,4.07251 1.8164,5.23633 3.06683,1.98126 6.34754,3.62835 9.48438,5.50586 2.90524,1.73889 6.12837,3.17889 7.82226,6.95117 -2.19938,0.54632 -3.95436,0.96087 -5.69922,1.41992 -5.12817,1.34924 -10.69647,0.63391 -15.54687,3.18555 -1.84615,0.97119 -4.44003,1.96868 -3.78906,4.58984 0.59098,2.37976 3.06291,2.67194 5.33007,2.83789 5.44837,0.3988 10.75518,-0.79388 15.63086,-2.7168 15.25016,-6.01464 27.85193,3.57099 42.94727,5.52344 -7.83783,8.25378 -14.20383,15.74512 -24.96875,16.84766 -3.4579,0.35418 -6.88292,1.06231 -10.30664,1.69922 -5.06018,0.9411 -10.22896,1.63635 -14.56055,4.75976 -1.52536,1.09992 -2.77655,2.55371 -2.17578,4.65039 0.55731,1.94501 2.2119,2.25238 3.97656,2.32031 2.69738,0.10383 5.2619,-0.33984 7.82227,-1.2539 7.19188,-2.56757 14.77898,-2.87195 22.78711,-4.37695 -1.97078,5.38684 -4.58228,9.38879 -7.62891,13.14257 -1.99414,2.4571 -4.0527,4.86805 -5.93554,7.40821 -1.59014,2.1452 -2.36158,5.00091 -0.66993,6.96484 2.01183,2.33563 4.68607,0.50952 6.72071,-0.80664 2.23596,-1.44629 3.93115,-3.54511 5.54296,-5.70117 4.42191,-5.9148 7.67612,-12.4784 10.74219,-19.13672 4.95081,-10.75141 12.80066,-18.53479 23.52344,-23.47461 10.76715,-4.96021 21.39462,-10.26233 30.44141,-18.01172 8.41208,-7.20581 17.99319,-10.00354 28.70898,-8.69336 5.04807,0.61713 10.43677,-0.11096 15.64063,2.33594 -2.59089,3.66034 -4.92527,6.69031 -6.97657,9.90039 -10.06952,15.75812 -24.7449,24.68799 -42.58789,29.02344 -5.8143,1.41278 -11.97146,0.77154 -17.63867,2.99218 -1.94791,0.76331 -3.87381,1.94202 -3.41602,4.28125 0.48694,2.48804 2.78245,3.14222 5.0586,3.14844 1.13513,0.003 2.26883,-0.45001 3.40625,-0.68554 4.13959,-0.85724 8.28219,-1.65973 12.67969,-0.90235 -1.4932,4.36578 -3.72556,7.81268 -7.38672,10.14453 -4.39762,2.80091 -9.37586,4.24976 -14.25391,5.93555 -4.08621,1.41199 -8.15588,2.88458 -12.16406,4.50195 -2.05057,0.82733 -3.16704,2.52167 -2.56445,4.81836 0.6,2.28693 2.59553,2.29968 4.44726,2.3086 2.90759,0.014 5.47749,-1.27784 8.14063,-2.21094 4.47696,-1.56867 8.82702,-3.64014 13.70117,-3.85156 1.34704,12.49566 -5.64029,21.33349 -17.875,23.43554 -8.03525,1.38068 -16.11905,2.97699 -22.2168,9.11524 -1.60858,1.6192 -3.65085,3.66577 -2.17773,6.07812 1.53703,2.51709 4.12623,1.35578 6.32031,0.52539 1.86647,-0.70636 3.73186,-1.43219 5.53906,-2.27539 5.96538,-2.78302 12.11023,-4.85766 19.05469,-5.45898 -0.55557,1.36163 -0.96964,2.25714 -1.29102,3.18554 -2.3822,6.88208 -6.3018,13.27314 -6.78711,20.75586 -0.11355,1.75098 -0.50688,3.97998 1.75586,4.72852 2.06813,0.6842 3.8938,-0.24683 5.34766,-1.85742 3.25879,-3.61017 4.44501,-8.14807 5.49609,-12.67969 1.70636,-7.35681 4.16971,-14.32861 8.38477,-20.69531 3.50479,-5.29376 6.4386,-11.02906 7.39453,-17.34375 1.56689,-10.35059 6.21301,-19.2511 11.95899,-27.71485 4.95593,-7.30005 12.85696,-10.50079 20.2871,-15.06054 0.71735,4.43744 0.47901,8.03735 -0.83593,11.54297 -1.63575,4.36077 -3.35224,8.69189 -4.91602,13.07812 -0.65079,1.82538 -1.7699,4.09833 0.5332,5.37305 1.92127,1.06347 3.46439,-0.76081 4.72266,-1.97071 5.92484,-5.69738 8.65097,-13.02526 9.4043,-20.9414 0.80069,-8.41364 2.76968,-15.90247 9.89843,-21.39453 3.42527,-2.63886 5.737,-6.48511 8.05469,-10.14063 3.99485,-6.30054 9.53006,-10.669 16.41602,-13.25781 9.48614,-3.56635 18.91348,-7.35156 28.96289,-9.17578 1.79843,-0.32648 3.68515,-1.27686 5.19922,0.26367 1.8547,1.88721 0.13345,3.80951 -0.54102,5.51953 -6.76401,17.14917 -18.70273,29.25934 -35.72851,36.35742 -3.07608,1.28235 -6.12818,2.6424 -8.72657,4.79297 -1.17303,0.97089 -2.33572,2.10077 -1.72461,3.8125 0.66492,1.86261 2.43924,1.27381 3.85352,1.50977 2.44833,0.40838 4.45767,-2.61933 7.70898,-0.51758 -2.52966,4.90259 -5.77554,9.60773 -7.46875,14.81836 -3.08663,9.49878 -9.83355,15.61633 -17.31836,21.32812 -2.9812,2.27503 -6.20251,3.66462 -10.07226,3.82813 -6.37857,0.26959 -12.49255,1.86346 -18.18945,4.81641 -2.48819,1.28973 -4.90937,2.73144 -4.63868,6.11523 7.67756,2.65906 14.93909,-3.08508 22.98633,-0.86523 -3.4573,8.42785 -9.63025,13.33001 -16.41797,17.64453 -5.76291,3.66308 -11.71316,7.07086 -16.26953,12.32031 -1.26465,1.45703 -3.42523,2.85712 -1.8164,5.05859 1.65173,2.2602 4.30713,1.93402 6.35156,0.74219 4.30579,-2.51031 8.57837,-5.12756 12.25195,-8.58008 1.41586,-1.33063 2.70392,-3.00891 5.45703,-2.69336 0.12616,4.9801 -2.23105,10.05109 -0.0664,14.96289 2.86999,0.58912 4.17965,-1.15918 5.32226,-3.02929 1.66202,-2.72034 3.11621,-5.69056 3.36524,-8.80469 1.01083,-12.64069 8.05722,-22.38452 15.13867,-32.06055 2.25799,-3.08526 5.2406,-5.84558 9.42578,-6.28906 0,3.63684 -0.0327,6.92529 0.0117,10.21094 0.0312,2.30804 -0.36374,5.37866 2.43555,5.9082 3.25955,0.61658 3.56369,-2.82532 4.44726,-4.98633 1.978,-4.83734 2.61402,-10.14026 2.57422,-15.14648 -0.12882,-16.19641 8.25262,-28.4419 17.55469,-40.32031 2.84122,-3.62812 6.89206,-6.02448 10.98633,-7.99024 1.32635,1.27448 0.68045,2.39356 0.51171,3.50781 -1.16751,7.70917 -2.9067,15.38898 -3.33007,23.14063 -0.86011,15.74756 -5.57022,30.17517 -12.1211,44.4043 -4.16037,9.03674 -9.16876,16.86767 -17.16992,22.77539 -1.58743,1.17211 -2.99158,2.69043 -4.19726,4.26562 -9.95701,13.00848 -24.44288,17.01923 -39.47852,19.66797 -6.3053,1.11066 -12.50067,2.28674 -17.63477,6.25 -2.57052,1.98431 -6.04547,4.96484 -3.93359,8.23437 2.10593,3.26044 5.65271,0.45508 8.43359,-0.81054 4.57398,-2.08161 9.04117,-4.58228 14.42579,-3.86914 -1.27134,6.596 -7.82673,10.76208 -7.20118,17.79101 3.45011,0.75788 5.59879,-0.57647 7.62305,-2.50586 3.31592,-3.1607 5.60468,-6.97876 7.57227,-11.05859 5.00839,-10.38501 14.37381,-13.7973 25.14648,-16.08008 -0.91132,13.66034 -3.3251,26.03168 -11.76367,36.51563 -1.66156,2.06427 -3.14661,4.32788 -4.35938,6.68164 -1.38867,2.695 -2.81598,6.03259 0.65821,7.95117 3.07095,1.6958 4.75232,-1.39496 6.28906,-3.4668 3.11523,-4.20007 6.06103,-8.52667 9.13476,-12.88281 1.23667,1.29889 1.15195,2.51282 1.43164,3.63086 1.27149,5.08258 0.64255,10.2876 1.13868,15.4082 0.22604,2.33295 0.31436,5.66321 3.63281,5.66602 3.21286,0.003 3.64505,-3.15167 3.73828,-5.58203 0.17819,-4.64386 0.31854,-9.28766 -0.44336,-13.95118 -1.84869,-11.31555 -3.76266,-22.6875 -1.36523,-34.15429 1.37283,-6.56616 0.55441,-13.89862 5.72851,-19.25196 4.3533,-4.50415 9.01999,-8.70574 13.94336,-13.41992 3.51831,8.75672 7.76431,17.04926 5.32617,25.92969 -3.58337,13.05164 -1.88931,26.07477 -1.71679,39.14258 0.0388,2.93976 0.73132,5.61468 3.97265,7.24414 5.55173,-4.32721 6.06433,-10.19885 5.13477,-16.53516 -1.07437,-7.32361 -2.82636,-14.68994 1.36719,-21.98242 5.02777,2.33954 7.6315,6.54761 10.19336,10.80859 1.46054,2.42914 3.1965,5.76783 6.30468,4.22266 3.13532,-1.55859 1.96091,-5.30206 1.13282,-8.14648 -0.69788,-2.3971 -2.08844,-4.52643 -3.75586,-6.43164 -1.97516,-2.25684 -3.76734,-4.70508 -5.9375,-6.75391 -3.91651,-3.69739 -6.18876,-8.12708 -7.22852,-13.37109 -0.70944,-3.57813 -1.61868,-7.14551 -2.78125,-10.60157 -4.67874,-13.90911 -0.62292,-26.26757 6.47266,-38.56445 2.16436,2.52618 3.9049,4.99756 6.07226,7.00977 7.30545,6.78234 10.22013,15.09539 10.42383,24.99023 0.13901,6.75366 -0.13248,13.6889 1.95898,20.28906 0.92008,2.90344 2.26972,6.31848 6.02344,5.21485 3.12223,-0.91791 3.19992,-4.06391 2.64649,-7.16016 -0.97541,-5.45679 -2.18082,-10.95489 -1.04493,-16.90625 3.26438,2.00891 4.29392,5.68921 7.4961,7.04883 1.38071,0.5863 2.69903,1.34839 4.20508,0.22656 1.46118,-1.08862 1.39514,-2.46924 1.08789,-4.0293 -0.57154,-2.90179 -2.2486,-5.06237 -4.16602,-7.23047 -3.96054,-4.47839 -9.75262,-7.40814 -12.24609,-13.01757 -3.01895,-6.79175 -7.17221,-12.68433 -11.70117,-18.4961 -5.27701,-6.7716 -8.00983,-14.57202 -6.66211,-23.33984 1.51309,-9.84357 3.15191,-19.66711 4.73437,-29.5 1.53522,-9.53949 3.40033,-18.96515 7.82227,-27.71289 1.98825,-3.93329 6.18484,-6.19519 7.65039,-10.40625 2.20261,-6.32904 6.29956,-11.2829 11.0039,-15.84961 6.10373,-5.92511 11.73172,-12.27564 17.14844,-18.83594 4.29053,-5.19641 9.46051,-9.37518 15.81445,-11.87304 6.23868,-2.45252 11.31571,-0.33094 13.63282,5.9414 2.32208,6.28583 1.82116,12.48901 -1.8125,18.19336 -3.53275,5.54596 -8.12625,10.13263 -13.67969,13.67969 -8.57028,5.47406 -16.8927,11.30109 -24.875,17.59375 -4.58639,3.6156 -8.95068,7.54162 -11.80859,12.75195 -1.5152,2.76239 -2.34998,6.16767 0.73437,8.07813 3.01267,1.86615 4.65164,-1.34357 6.18164,-3.35157 2.9025,-3.80926 5.65186,-7.72894 9.70899,-10.26953 1.5173,0.79206 1.60873,1.94934 1.61132,3.14063 0.0183,8.39563 -1.62649,16.22638 -7.75586,22.49219 -3.02972,3.09716 -6.05563,6.20428 -9.20117,9.18164 -4.24945,4.02227 -6.83621,9.00427 -8.43359,14.5039 -0.6163,2.12195 -1.60208,4.88294 1.0293,6.28125 2.79687,1.48633 3.66122,-1.49463 4.83593,-3.04687 4.09177,-5.40674 6.67633,-11.98365 12.62696,-15.94532 1.47778,-0.98382 2.68948,-2.94513 4.69922,-1.29296 1.66125,1.36566 1.41442,3.2348 0.6289,5.04492 -1.52319,3.51001 -3.10644,6.99542 -4.54687,10.53906 -1.12461,2.76666 -1.24628,5.41119 1.23047,7.29688 4.00274,-0.49555 3.87951,-4.73139 6.48437,-6.08985 2.18951,0.35083 3.12616,3.76727 5.72852,2.2168 2.54727,-1.51758 1.56781,-4.08264 1.5332,-6.35352 -0.0643,-4.21924 -1.28851,-8.22149 -2.49805,-12.17187 -1.81695,-5.93433 -1.99969,-11.6684 0.084,-17.60352 1.25522,-3.5755 2.69366,-7.31366 2.3164,-11.16992 -1.06689,-10.90637 4.30463,-18.02618 13.10157,-23.29297 1.23825,-0.74139 2.44067,-2.15033 4.01367,-1.17969 1.50332,0.92774 0.99371,2.58277 0.98437,4.09375 -0.0814,13.17102 -1.04632,26.17505 -6.33984,38.49414 -0.43689,1.01667 -0.33481,2.29438 -0.36133,3.45313 -0.0718,3.13885 0.5166,5.96838 3.81641,7.45508 5.6987,-2.76703 2.20584,-10.35095 7.26953,-13.64453 1.90558,1.99621 1.5776,4.72906 2.57812,6.92382 0.61298,1.34461 1.07752,3.0102 2.91797,3.01954 1.78385,0.009 2.42618,-1.55451 3.07617,-2.89063 1.46393,-3.00922 1.33478,-6.13666 0.4043,-9.24219 -1.24005,-4.13879 -2.82101,-8.19 -3.8418,-12.3789 -4.09176,-16.79102 -0.45672,-31.67603 11.63282,-44.1875 3.0079,-3.11286 6.82586,-4.74744 11.33593,-3.08399 4.74567,1.75031 6.68381,5.69538 6.66797,10.20117 -0.0462,13.13141 1.64737,26.41883 -1.03906,39.36329 -4.52136,21.78594 -14.54807,39.59423 -37.5293,46.83203 -3.98175,1.25402 -8.51333,2.53772 -10.54492,6.24414 -4.31479,7.87195 -11.18451,11.40112 -19.2793,13.76562 -3.29541,0.96247 -7.62564,2.87903 -5.94531,7.0625 1.93414,4.81525 6.08255,2.12299 9.39649,0.7168 0.15335,-0.0651 0.30496,-0.1347 0.45507,-0.20703 5.05265,-2.43286 6.41999,-1.6557 6.56836,4.07617 0.13797,5.32935 0.0346,10.6651 0.0117,15.99805 -0.0125,2.91778 0.46793,5.63025 2.84766,7.67187 2.5451,-0.0746 3.95242,-1.63977 4.90234,-3.68945 1.62338,-3.50256 1.31034,-7.2464 0.56836,-10.79688 -1.41513,-6.77172 -0.43271,-13.30676 1.61914,-19.66406 2.79669,-8.66504 11.49124,-14.20056 20.06055,-12.69922 -1.19458,7.27875 -2.54154,14.56366 -3.52344,21.89649 -0.43182,3.22442 -2.0704,6.4201 -0.72656,9.78515 0.57297,1.43482 1.39041,2.76526 2.96484,3.16211 1.82602,0.46033 2.69135,-1.05884 3.53321,-2.23437 2.08459,-2.91083 2.8988,-6.30023 3.46484,-9.7793 1.38519,-8.51361 2.02219,-17.20282 5.12891,-25.3418 3.57568,-9.36761 9.19394,-17.11785 18.39062,-22.25781 0.68103,1.06629 1.3548,1.68964 1.50781,2.42188 5.10108,24.40924 1.96466,47.05658 -14.78515,66.56836 -9.194,10.71002 -19.18164,19.75103 -35.03516,18.65429 -5.11606,-0.35394 -10.50537,1.85462 -14.10937,6.37696 -0.81177,1.01861 -1.76377,2.17657 -1.20899,3.60937 0.61038,1.57636 2.15872,1.26172 3.44922,1.36523 3.06259,0.24567 5.90802,-0.81964 8.81055,-1.50976 2.15722,-0.51288 4.25229,-0.95294 5.98242,1.76758 -5.97501,8.27411 -13.05277,14.74084 -23.8457,16.08594 -6.29731,0.78472 -11.82355,3.2857 -15.86133,8.48828 -1.98557,2.55835 -3.4614,5.51818 -0.88672,8.03906 2.94766,2.88598 5.15167,-0.11176 6.97266,-2.17188 3.86303,-4.37024 8.54644,-6.42712 14.88086,-6.06445 -5.55768,11.87354 -11.89762,21.8764 -25.49024,25.17578 -10.50741,2.55054 -19.0834,8.52747 -25.13086,17.70899 -0.8782,1.33337 -2.03042,2.96545 -0.4375,4.51757 1.51679,1.47797 3.44629,1.22767 5.11133,0.3125 2.63245,-1.44677 4.88477,-3.41803 7.07617,-5.49804 7.09012,-6.72992 15.87854,-9.62769 25.63867,-11.56446 -0.69671,5.32428 -1.68789,9.85187 -3.31445,14.18555 -1.39841,3.72595 -3.24481,7.28101 -4.78516,10.95703 -0.84613,2.01929 -1.63696,4.43018 0.44727,5.94336 1.97897,1.43683 3.78326,-0.4624 5.35351,-1.55273 1.19526,-0.83002 2.14744,-2.05677 3.07422,-3.21485 3.54364,-4.4281 4.77393,-9.78863 6.09375,-15.13671 2.02469,-8.2046 2.85038,-16.73566 6.83399,-24.41016 5.00805,-9.64813 10.73474,-18.85443 17.89453,-27.01758 4.82843,-5.50513 8.73688,-11.79394 14.2793,-16.68164 1.33178,-1.17444 2.77011,-1.97125 4.53125,-1.25977 1.69958,0.68665 1.84622,2.31928 1.69336,3.81836 -0.72156,7.07807 -0.24414,14.77021 -4.86719,20.55664 -7.07373,8.85389 -10.2013,19.79346 -16.55274,28.98633 -2.64526,3.82868 -4.11816,8.34967 -3.53515,13.25391 0.21747,1.82922 0.914,3.32043 2.74023,3.75391 1.92386,0.45666 3.17792,-0.84888 3.93164,-2.39454 0.56595,-1.16064 0.71057,-2.52276 1.07227,-3.78711 0.84277,-2.94641 0.85937,-6.28729 3.71484,-8.3125 2.48215,1.52149 2.96814,5.18268 6.45508,5.33789 2.46314,-3.88653 1.63254,-8.16491 1.63672,-12.23632 0.005,-5.04712 1.21054,-9.5929 4.41406,-13.4668 7.87045,-9.51721 10.81247,-20.70166 11.81641,-32.74219 0.99454,-11.92804 7.84527,-20.68255 16.07617,-28.75781 2.28989,2.11682 1.97522,4.34839 2.15234,6.4668 0.41529,4.96661 0.39597,10.03357 1.43555,14.87109 4.26035,19.82471 -1.28445,37.46442 -11.37891,54.21289 -4.07705,6.76459 -10.96179,11.42993 -14.63476,18.27734 -5.21521,9.7226 -12.15112,17.20118 -21.68946,22.71485 -4.32461,2.49982 -7.3085,6.82098 -9,11.68164 -0.70574,2.02795 -2.48538,4.55475 0.4375,6.17187 2.57157,1.42273 4.26505,-0.37982 5.84571,-2.32617 2.41077,-2.96863 4.84006,-5.95892 7.58203,-8.60937 2.71347,-2.62274 5.79443,-4.8971 9.74609,-5.07813 1.51889,1.89594 1.75394,3.87476 1.6211,5.89258 -0.17435,2.64783 -0.70285,5.28912 -0.6836,7.92969 0.0207,2.83337 0.1994,6.16742 3.98047,6.42187 3.67786,0.24738 4.02258,-3.0556 4.25196,-5.62695 0.32473,-3.63983 0.54989,-7.37665 0.10156,-10.98242 -1.49878,-12.05463 2.53601,-21.87061 11.27539,-30.01953 3.11078,-2.90064 4.76562,-7.19855 9.70117,-10.01758 2.24307,10.94781 7.68478,20.50024 7.11133,32.02539 -1.27805,5.39661 -2.43469,10.37799 -3.59961,15.35742 -0.64346,2.75049 -1.48898,5.46979 -1.90039,8.25391 -0.42792,2.89538 -0.28815,6.08673 3.15039,7.00586 3.59775,0.96173 4.97357,-1.98774 5.92773,-4.72461 0.70526,-2.02314 0.83539,-4.24036 1.47461,-6.29297 1.33893,-4.29883 0.83209,-9.14368 3.75391,-13.52735 4.9472,5.14344 9.03198,10.29029 11.61133,16.53516 0.89441,2.16535 1.92322,4.24164 3.83203,5.75586 1.37128,1.08795 2.85107,2.02911 4.54297,1.08203 1.78076,-0.99701 2.32782,-2.72784 1.85742,-4.73437 -1.11231,-4.7453 -2.83624,-9.20948 -5.85352,-13.11524 -3.15423,-4.08301 -6.47882,-8.05883 -9.32226,-12.35156 -11.19788,-16.90533 -15.79126,-35.03125 -9.47071,-54.97656 0.57196,-1.80469 0.64417,-3.99896 3.01954,-5.08399 3.76507,3.69794 7.43554,7.51294 11.33398,11.08008 5.47589,5.01032 8.98474,11.11359 10.61328,18.2832 1.28809,5.67096 2.34485,11.37629 2.39258,17.25196 0.034,4.18829 0.83966,8.33502 3.49414,11.7539 1.08563,1.39838 2.63953,2.99396 4.66406,2.10938 2.0719,-0.9054 2.58209,-3.04919 2.21485,-5.10352 -0.58429,-3.26806 -1.74616,-6.44616 -2.16407,-9.72656 -0.71643,-5.62457 -1.42626,-11.29041 -1.08984,-17.10937 7.9931,1.65032 16.4978,11.14679 17.83008,18.99218 1.03931,6.12067 1.03973,12.26282 0.97851,18.42188 -0.0289,2.90582 0.46112,5.70849 2.20704,8.03515 1.48468,1.97834 3.23419,4.1493 6.20703,2.78516 2.67663,-1.22833 2.44531,-3.74884 2.08007,-6.08594 -0.48687,-3.11535 -1.39971,-6.17987 -1.68554,-9.30664 -0.23389,-2.55816 -0.89948,-5.75958 1.87109,-7.27929 2.5238,-1.3844 4.76734,0.7918 6.80469,2.09179 1.80066,1.14905 3.28949,2.78614 4.91992,4.20313 1.12775,0.9801 2.15192,2.14184 3.41992,2.88476 2.02112,1.18409 4.34741,2.3476 6.49805,0.55664 2.31116,-1.9245 1.0788,-4.35827 0.0781,-6.41992 -2.65283,-5.46564 -7.54461,-8.29883 -12.96289,-10.29297 -6.47076,-2.38141 -11.71087,-6.09448 -15.23632,-12.20898 -3.56769,-6.18762 -8.97107,-10.62158 -14.81055,-14.60156 -4.26294,-2.9054 -8.53241,-5.84522 -12.50195,-9.12891 -13.68677,-11.3219 -24.15485,-24.91821 -27.7168,-42.7168 -2.66358,-13.30963 -1.53284,-26.85577 -1.23047,-40.32031 0.005,-0.24322 0.4021,-0.47772 0.78125,-0.89844 3.87775,1.63587 6.30164,5.2204 9.66211,7.56446 13.3913,9.34118 21.25604,21.38568 18.62109,38.49609 -0.05,0.32532 -0.0324,0.66852 0.004,0.99805 0.83063,7.52954 3.04059,14.64142 6.77148,21.22461 1.06928,1.88672 2.76477,3.77423 5.25196,2.76172 2.58734,-1.05329 2.82568,-3.46662 2.20312,-5.94532 -0.68768,-2.73828 -1.32904,-5.49438 -2.15039,-8.19336 -2.2315,-7.33282 -2.81811,-14.81134 -2.76367,-22.49804 12.03912,1.76446 21.71857,10.18866 23.66406,21.17187 1.85028,10.44617 4.40576,20.78424 5.18164,31.42578 0.26398,3.61975 0.96698,7.28015 2.50586,10.63672 0.91693,1.99994 2.29773,4.09595 4.85547,3.42578 2.64703,-0.69348 3.42419,-2.96069 2.89844,-5.57226 -0.32654,-1.62171 -1.06067,-3.2649 1.21875,-4.78321 4.46423,2.06818 6.7157,6.33051 8.99023,10.48828 1.12757,2.06116 2.33887,3.92981 4.92969,3.16016 2.91626,-0.86621 2.09778,-3.32355 1.74219,-5.4375 -1.14484,-6.80524 -4.80835,-12.38183 -10.35156,-15.92383 -9.58753,-6.12628 -11.06232,-15.67224 -12.18555,-25.48047 -0.77405,-6.75933 1.3114,-7.84918 7.79492,-5.81054 17.54669,5.51721 32.42426,29.43701 32.49219,48.21679 0.0234,6.47126 0.7395,12.96607 3.28125,19.03711 1.06103,2.53449 3.1615,4.00013 6.02343,3.2461 2.8725,-0.7569 2.27027,-3.32178 2.26368,-5.40625 -0.004,-1.13977 -0.24628,-2.32721 -0.625,-3.40821 -1.77564,-5.06774 -2.25,-10.38098 -3.01172,-15.63476 -0.7168,-4.94409 1.82409,-7.03705 6.43945,-5.16406 4.69806,1.90649 8.4585,5.19452 12.13086,8.64648 2.14954,2.02045 4.84589,5.75556 7.82227,3.0918 3.31402,-2.96588 0.37304,-6.46772 -1.91407,-9.12305 -1.50287,-1.74469 -3.27008,-3.41089 -5.23632,-4.57617 -4.14649,-2.45715 -8.34967,-4.93848 -12.80274,-6.73242 -8.60162,-3.46503 -13.12372,-10.37232 -16.70898,-18.28711 -1.64551,-3.63257 0.0457,-5.15821 3.43164,-5.04297 3.13116,0.10669 6.25073,0.74695 9.36133,1.23828 3.05297,0.4823 7.17968,2.20679 8.2207,-1.76367 1.08081,-4.12195 -3.22955,-5.57074 -6.4707,-6.77539 -1.35206,-0.5025 -2.94532,-0.45667 -4.43164,-0.47656 -4.1659,-0.0558 -8.35035,-0.25776 -12.49415,0.0508 -4.59039,0.34192 -8.479,-0.92987 -12.11523,-3.62305 -6.24835,-4.62799 -13.35266,-7.45111 -20.8418,-9.30664 -5.5556,-1.37647 -10.49603,-4.0285 -15.57226,-6.57227 -19.38709,-9.71502 -31.80029,-27.11389 -46.20703,-42.14062 -13.21399,-13.78266 -12.90338,-31.73932 -11.30079,-49.47461 0.0747,-0.82623 0.42194,-1.62 1.44922,-1.92774 1.23029,0.0292 2.06488,0.83802 2.74414,1.80469 4.0293,5.73474 9.60608,9.72821 15.51368,13.16211 5.05426,2.93781 8.12176,6.97846 10.05078,12.45313 3.47156,9.85272 9.03546,18.90435 11.12695,29.32422 0.43988,2.19146 1.96576,4.84405 4.69922,4.28906 2.40362,-0.48804 1.69196,-3.24341 1.81836,-5.16602 0.30481,-4.63745 1.59491,-5.526 6.05469,-3.86523 8.84167,3.29272 14.76214,9.3938 17.54296,18.48242 1.46546,4.78961 2.9422,9.59845 7.0879,12.92578 1.38983,1.11542 2.67529,2.85809 4.7539,1.45703 2.11664,-1.42657 1.57196,-3.42584 0.85156,-5.375 -1.1809,-3.19482 -3.10821,-6.19501 -2.74414,-10.05273 4.12403,-0.58948 7.12854,1.80859 10.43946,3.13476 1.36401,0.54633 2.85241,1.64435 4.17187,0.40039 1.35065,-1.27349 0.96845,-3.1344 0.51758,-4.72851 -1.42029,-5.02197 -5.99274,-5.95819 -10.05859,-7.12891 -4.72058,-1.35925 -9.34351,-2.96838 -12.88086,-6.31836 -6.4502,-6.10852 -14.13752,-9.78015 -22.25782,-12.99414 -7.79815,-3.08649 -12.18597,-11.18493 -11.25976,-19.83008 9.38708,0.36829 17.23138,3.97773 23.82422,10.65821 2.10376,2.13165 4.63696,5.90002 7.82226,3.125 3.31281,-2.88617 0.53852,-6.47327 -1.44336,-9.33203 -1.12494,-1.62268 -2.62866,-3.00361 -4.06836,-4.38282 -5.96392,-5.71319 -13.27722,-8.56036 -21.25781,-10.12695 -6.17779,-1.21271 -12.65698,-1.91272 -17.76562,-6.05078 -9.03333,-7.31714 -16.46015,-16.01184 -21.35938,-26.66602 -0.8258,-1.79577 -1.73736,-3.73333 -1.84375,-5.64843 -0.72156,-12.99378 0.0621,-25.94172 1.9961,-38.79688 0.65832,-4.3761 4.58325,-6.79181 8.90429,-5.89062 3.69037,0.76971 6.87897,2.48968 9.08985,5.69531 7.32141,10.6156 9.3078,22.5083 8.55468,35.11133 -0.37518,6.27673 -1.46954,12.64532 0.82813,18.76757 0.62866,1.67505 1.143,4.35633 3.86328,3.72266 2.33838,-0.54462 3.33612,-2.66144 3.51367,-4.96094 0.14612,-1.89172 0.0293,-3.80426 0.0293,-6.17968 2.97296,2.63775 5.43786,5.10858 8.20703,7.16992 1.51605,1.1286 3.46021,2.13391 5.42187,0.23242 1.88501,-1.82721 1.28888,-3.6839 0.15235,-5.41016 -1.45886,-2.21569 -2.93622,-4.51056 -4.82422,-6.33789 -7.95233,-7.69653 -7.8465,-17.82257 -8.62695,-27.69531 -0.0269,-0.34076 0.58105,-0.7301 0.97851,-1.19922 3.78235,0.86884 6.37396,3.63086 9.06055,5.9668 9.53577,8.29114 17.4588,17.48584 16.30273,31.46094 -0.24182,2.92388 0.3526,5.99841 1.02539,8.89648 1.04889,4.51801 1.8808,9.17908 4.46875,13.16016 1.20032,1.84643 3.094,3.60296 5.34571,2.89843 2.48749,-0.77826 2.40503,-3.36126 1.94336,-5.52343 -0.65754,-3.07929 -1.60169,-6.09656 -2.33985,-9.16016 -0.40368,-1.67529 -1.81134,-3.34039 -0.21484,-5.19141 2.35089,-0.2163 3.97321,1.40143 5.8457,2.38086 3.09223,1.61743 6.70648,5.4751 9.55469,1.28125 2.80658,-4.13244 -1.64826,-7.10662 -4.7207,-8.35547 -12.57642,-5.11199 -13.00464,-18.36706 -19.28907,-27.64648 -0.0703,-0.10382 0.31891,-0.51874 0.44727,-0.7168 1.12573,-0.68127 1.99201,-0.019 2.84766,0.43164 2.75708,1.45227 5.52343,1.25855 6.96679,-1.46679 1.63373,-3.08509 -0.9104,-4.8758 -3.27734,-6.29493 -3.64319,-2.18438 -7.82587,-2.79711 -11.86133,-3.6875 -13.56409,-2.99291 -22.06549,-12.04339 -27.55273,-23.93164 -4.26453,-9.23919 0.33496,-17.52624 9.74414,-19.40625 4.68365,-0.93585 8.81915,0.70777 12.79101,3.07813 13.89392,8.29193 23.29737,21.25543 33.97461,32.84375 5.83557,6.33356 8.97357,14.31464 11.02735,22.69336 3.29089,13.42584 3.18042,26.9715 2.22461,40.65234 -0.39087,5.59479 -1.08472,10.84601 -3.84571,15.78711 -3.71625,6.65058 -5.20123,13.98615 -6.08008,21.45508 -0.58111,4.93988 2.14161,11.29089 4.48633,10.5293 4.40174,-1.42975 4.70221,-5.53937 4.89844,-9.45313 0.0167,-0.3327 -0.0197,-0.67084 0.0195,-1 0.94629,-7.93072 3.17639,-15.40497 7.58789,-22.80078 8.78992,14.71039 12.9895,29.18616 6.84766,45.33789 -2.00061,5.26099 -3.2934,10.80591 -4.69531,16.27539 -0.74585,2.9101 -0.92414,5.96295 0.29687,8.83594 0.72406,1.70398 1.76679,3.47546 3.95117,3.23437 1.95374,-0.21557 2.5185,-2.03948 2.86719,-3.67578 0.48413,-2.27246 0.66882,-4.60888 1.16211,-6.8789 0.82758,-3.80927 1.18445,-7.84778 4.51758,-10.97852 4.02704,3.33185 5.94586,7.67645 7.62304,12.1836 0.98426,2.64508 1.89087,5.32891 3.04688,7.89843 0.99768,2.21778 2.57294,4.27515 5.33594,3.48828 3.06665,-0.87323 2.97717,-3.51782 2.61914,-6.14843 -1.06708,-7.84076 -4.7107,-14.52283 -9.41602,-20.66211 -6.67596,-8.7107 -5.64734,-18.9231 -6.6289,-29.27539 3.85437,0.33593 6.40655,1.84137 8.57421,3.91211 2.52454,2.41174 4.83387,5.05053 7.22657,7.59961 1.9519,2.07946 4.31207,2.82611 6.67382,1.10351 2.57044,-1.87482 0.60877,-3.98138 -0.46679,-5.67383 -4.08392,-6.42602 -9.02338,-12.12207 -16.27735,-15.00586 -14.49737,-5.7633 -16.73504,-18.59326 -18.66406,-31.6582 -0.14361,-0.9726 0.33063,-1.96533 1.95899,-2.66797 5.02636,2.24445 9.44397,5.94299 13.63867,9.97266 1.43939,1.38275 2.75421,2.98895 4.41992,4.01562 1.59125,0.98059 3.6037,2.28205 5.4668,0.54102 1.92895,-1.80249 1.44378,-3.97846 0.12109,-5.90625 -0.93225,-1.35877 -2.04034,-2.64649 -3.26953,-3.74219 -3.85431,-3.43591 -7.50049,-7.22345 -11.77344,-10.04883 -11.5611,-7.64465 -12.54034,-19.63531 -13.74023,-31.62109 -0.29077,-2.90454 1.34826,-4.22315 3.99609,-3.25391 15.09345,5.52497 29.37738,12.12921 36.17383,28.32032 1.93146,4.60125 3.76788,9.30187 6.27344,13.59179 10.47387,17.9328 11.48913,37.12622 8.1875,56.99414 -1.77484,10.68048 -3.52466,21.44513 -1.83008,32.23438 1.09814,6.99176 1.0589,13.42187 -2.51563,19.74414 -4.57275,8.08771 -5.86676,16.98132 -4.88281,26.09179 0.62183,5.75776 1.6026,11.59882 5.39844,16.36719 1.27594,1.60285 2.9859,2.96033 5.19141,2.08789 2.37738,-0.94049 2.25018,-3.30053 1.82031,-5.17773 -0.77637,-3.39002 -2.03015,-6.66864 -3.05274,-10.00391 -2.87005,-9.36047 -2.98242,-18.27752 4.44532,-26.57031 7.5382,7.01166 15.9859,12.77161 20.46484,22.33789 0.98169,2.09674 2.0155,4.27014 3.49414,6.00977 2.30426,2.711 5.36707,1.91742 6.47656,-1.48829 0.52771,-1.61981 0.20301,-3.25311 -0.17578,-4.91601 -1.83441,-8.05334 -6.66278,-14.15497 -12.9375,-19.05273 -14.06579,-10.97882 -18.13177,-25.21393 -14.56641,-42.20508 0.32783,-1.5622 0.69794,-3.05878 2.25,-3.59961 1.47596,-0.51435 2.46039,0.72741 3.36329,1.68554 3.7796,4.01087 7.46704,8.38898 12.46289,10.67579 10.84869,4.96569 16.72192,14.31677 22.55078,23.84765 1.65021,2.6983 3.03119,5.58081 4.86523,8.14258 2.07971,2.90466 4.32862,5.84247 8.76563,6.12109 3.81042,-13.06854 -9.47321,-19.47693 -11.57032,-29.96093 2.75818,-1.88825 5.36365,-1.51642 8.01563,-1.04102 4.85761,0.87085 9.0022,3.3429 13.24023,5.66211 2.10193,1.15027 4.65967,1.86938 6.37696,-0.32031 1.49786,-1.90991 -0.31629,-3.7403 -1.33594,-5.40039 -0.97162,-1.58191 -2.36786,-2.7486 -3.89648,-3.81446 -6.79578,-4.73889 -14.55927,-5.5465 -22.44141,-5.16796 -5.8006,0.27856 -10.81329,-1.17902 -15.42578,-4.55274 -3.09094,-2.26086 -6.39234,-4.24463 -9.39258,-6.61523 -11.80548,-9.3277 -16.59637,-28.51868 -10.70703,-42.42579 1.47009,-0.0767 2.37689,1.00886 3.5293,1.63672 9.72192,5.29773 15.05194,14.30854 20.09179,23.57618 0.97388,1.79083 2.1095,4.01342 4.35938,3.33593 2.49151,-0.75012 2.16095,-3.28064 2.03711,-5.53515 -0.20502,-3.73419 -2.86438,-6.67273 -3.33789,-10.27735 2.42767,-1.12268 4.4165,0.44104 6.53906,0.42188 2.11835,-0.0191 4.20776,-0.26477 4.83203,-2.61328 0.55097,-2.07306 -1.01044,-3.41767 -2.54102,-4.46875 -0.94219,-0.64698 -2.05206,-1.19318 -3.1621,-1.43164 -19.68366,-4.22773 -31.14472,-18.83643 -42.38477,-33.65039 -2.0957,-2.76209 -3.65649,-5.96125 -5.23242,-9.07618 -1.30457,-2.57824 -0.17987,-4.2644 2.5625,-3.28906 7.2619,2.58283 14.88348,1.09662 22.25,2.46485 17.73303,3.29388 31.953,10.89776 38.58593,29.03906 2.21754,6.065 5.1214,11.95624 10.36329,16.25781 1.73913,1.42725 2.33532,3.56036 2.79492,5.72461 1.27472,6.00336 2.0003,12.21838 4.08789,17.93164 3.25256,8.90118 7.21075,17.64758 15.55469,23.22852 1.71301,1.14575 3.92218,2.7265 5.88086,0.80078 1.8927,-1.86072 1.21203,-4.30854 0.17382,-6.51758 -1.66302,-3.53845 -4.67425,-6.04175 -6.97461,-9.08984 -4.41442,-5.84961 -8.25555,-11.96216 -8.2832,-20.05665 9.29517,3.0022 18.87634,3.83899 27.33399,8.47461 2.61407,1.43268 5.37744,1.52716 6.95312,-1.33789 1.66309,-3.02423 -0.97797,-4.66247 -3.05078,-5.87695 -4.19129,-2.45569 -8.87549,-3.89117 -13.5918,-4.81641 -17.21899,-3.37793 -26.72845,-15.17352 -33.31445,-30.15234 -1.01495,-2.30841 -2.68829,-4.67401 -1.75586,-7.85547 6.81702,-1.68347 13.4295,1.16705 20.11719,1.14453 7.1629,-0.0241 11.95611,3.2685 15.99414,8.5586 1.71789,2.25055 3.66437,4.33423 5.29883,6.64062 2.86377,4.04114 6.86975,6.74768 10.76953,9.58594 1.49682,1.08948 3.31518,2.25146 4.91406,0.51758 1.43481,-1.55603 0.6535,-3.469 -0.29883,-5.10547 -0.49878,-0.85724 -1.07867,-1.71594 -1.79297,-2.39258 -4.89428,-4.63574 -8.3919,-10.3183 -12.04101,-15.89062 -2.8183,-4.30372 -1.98511,-6.06177 3.23437,-6.62305 2.67743,-0.2879 5.3327,-0.0881 7.81446,1.10937 4.04736,1.95295 8.09741,3.90332 12.12304,5.90039 2.23413,1.1081 4.36713,2.5257 6.89063,2.81446 2.33911,0.26764 5.0213,0.41046 6.03515,-2.26563 1.0387,-2.74133 -1.55725,-3.70965 -3.31445,-4.80469 -4.38147,-2.73046 -8.8949,-5.25207 -13.25586,-8.01367 -3.68127,-2.33105 -3.57165,-4.3999 0.28906,-6.47461 1.28876,-0.69256 2.81574,-0.93396 4.22071,-1.41992 4.18066,-1.44598 8.67743,-0.27454 12.84179,-1.48047 2.88239,-0.83465 7.45844,-1.04779 7.09375,-4.84961 -0.36432,-3.7976 -4.85058,-4.27099 -8.10351,-4.17773 -10.62506,0.30469 -20.55347,2.2215 -28.99805,9.9043 -6.73492,6.12731 -15.56653,9.91363 -24.57617,9.5 -8.50067,-0.39026 -17.12793,-1.95606 -25.59375,-3.58399 -8.97717,-1.72619 -17.28705,-5.27051 -24.98828,-10.29297 6.27765,-9.83716 20.22662,-15.61719 30.68945,-13.125 3.71588,0.88501 7.39942,1.95386 11.15234,2.63282 6.6897,1.2102 13.33649,2.8164 20.22266,2.59374 2.55487,-0.0826 4.87219,-0.79596 5.41016,-3.4375 0.54999,-2.70056 -2.1294,-3.46191 -3.875,-4.57421 -1.7865,-1.13831 -3.90479,-0.50092 -5.86328,-0.75196 -5.11225,-0.65515 -10.47705,-0.13702 -15.83789,-2.83984 3.44836,-3.19977 6.73388,-5.37396 10.21484,-7.25391 2.08227,-1.12445 4.02301,-2.36187 5.32617,-4.40039 0.80805,-1.26397 1.823,-2.54785 1.02734,-4.13086 -0.846,-1.68298 -2.57849,-1.35986 -4,-1.27148 -4.57501,0.28436 -8.11694,2.91046 -11.4082,5.69922 -4.57648,3.87787 -9.58337,7.14508 -15.61133,7.02929 -11.87585,-0.22784 -21.5805,4.51648 -30.59765,11.58399 -3.98059,3.11993 -8.54486,5.27466 -13.6875,5.5625 -16.75409,0.93774 -30.66724,-6.15064 -43.65821,-15.7207 -0.80004,-0.58936 -1.48022,-1.36695 -1.21679,-3.1875 4.19769,-1.74128 8.86786,-3.35022 13.23047,-5.56641 6.57574,-3.34039 12.92614,-3.70935 20.13476,-1.625 7.59601,2.19641 15.51892,1.64667 22.75977,-2.38281 1.44678,-0.80506 3.28235,-1.61939 3.04687,-3.5625 -0.27807,-2.29468 -2.5935,-2.29877 -4.27343,-2.70899 -1.79432,-0.43805 -3.61481,0.23969 -5.41797,0.38477 -4.77997,0.38458 -9.75733,1.78332 -14.50391,-1.22266 0.55634,-1.17578 0.73474,-2.08996 1.2832,-2.61914 2.5047,-2.41681 5.20124,-4.63653 7.65039,-7.10547 1.46399,-1.47577 2.40949,-3.47339 0.93164,-5.40039 -1.43908,-1.8764 -3.68243,-1.52801 -5.51953,-0.75586 -2.97564,1.25074 -5.10504,3.69477 -7.21484,6.05664 -2.68549,3.00647 -5.47778,5.8534 -9.38281,7.25977 -8.60663,3.09943 -17.22742,6.15765 -25.82813,9.27344 -9.75073,3.53228 -18.90649,2.23797 -27.74023,-3.01758 -15.14112,-9.00806 -26.44367,-22.22943 -38.41016,-34.72656 -0.36474,-0.38092 -0.294,-1.17933 -0.42578,-1.78125 13.2796,-3.04963 31.66095,1.55529 38.03711,14.37695 1.40033,2.81567 2.69061,5.78668 5.53125,7.56836 1.2951,0.81225 2.64203,1.46643 4.19141,0.54883 1.56439,-0.92664 1.46398,-2.44776 1.51367,-3.96094 0.0648,-1.97486 -1.75403,-3.66431 -0.76758,-6.01953 3.34839,-0.27765 6.8382,-0.31928 10.21875,-0.94532 1.86346,-0.34509 4.11932,-1.4389 3.94141,-3.84179 -0.15595,-2.10663 -2.33252,-2.75092 -4.0918,-3.07227 -2.77173,-0.50628 -5.61078,-0.8974 -8.41992,-0.88476 -5.78565,0.026 -10.80872,-1.63684 -14.95313,-5.75 -2.44885,-2.43042 -5.62274,-3.44001 -8.76953,-4.57227 -1.94806,-0.70099 -4.328,-0.43146 -5.99609,-2.48828 1.07269,-2.82715 3.87652,-3.40961 6.07226,-4.68945 2.2096,-1.28791 4.79669,-2.47211 3.30664,-5.65235 -1.36639,-2.9165 -4.16217,-2.44116 -6.56836,-1.72265 -3.87152,1.15606 -7.1828,3.45526 -10.41015,5.83398 -8.09015,5.96289 -16.823,5.23798 -25.65039,2.26367 -2.74427,-0.92468 -4.86615,-2.98016 -5.66016,-5.9375 -2.30994,-8.60315 1.49555,-16.86486 9.66797,-20.74609 20.065,-9.52918 42.53644,-4.59869 57.54101,9.23047 9.50477,8.76025 16.26856,19.73462 23.7129,30.13281 3.30828,4.62097 7.52197,7.44983 13.01757,8.39063 1.82605,0.31256 3.86481,0.16858 4.69727,-1.91602 0.87537,-2.19232 -0.79639,-3.35242 -2.32422,-4.42187 -1.82757,-1.2793 -4.4021,-1.70258 -5.04687,-4.25196 0.67871,-1.51538 1.93701,-1.30676 3.07031,-1.36328 4.04376,-0.20166 7.89862,0.88416 11.80078,1.69922 1.92596,0.40234 4.17371,1.01196 5.24219,-1.41016 1.02069,-2.31366 -0.0537,-4.22711 -1.91407,-5.67578 -2.55236,-1.98743 -5.38525,-3.27624 -8.71289,-3.25586 -3.49975,0.0214 -7.00274,0.0855 -10.49804,-0.0469 -6.41162,-0.2428 -11.12995,-3.89569 -12.73633,-9.72852 2.64709,-1.51831 5.16864,0.44562 7.74414,0.28711 2.80426,-0.17248 5.82629,-1.04864 5.91992,-4.15625 0.0813,-2.69702 -2.50708,-4.01941 -5.25195,-4.33789 -2.64148,-0.30646 -5.30396,-0.55603 -7.90039,-1.10156 -8.58301,-1.80359 -14.89423,-7.04865 -20.47656,-13.63672 6.4887,-0.59778 12.76702,-0.54529 19.04296,-0.60938 7.99512,-0.0817 16.01294,-0.38211 23.59571,2.83985 7.82666,3.32568 16.22363,6.25909 20.45507,14.28906 8.50477,16.13965 18.81647,30.97064 30.54688,44.87891 2.79913,3.31884 5.55316,6.68499 9.46094,8.75976 1.55273,0.82453 3.30749,2.02558 5,0.23047 1.5957,-1.69244 0.4646,-3.4491 -0.10742,-5.13867 -0.8028,-2.37134 -3.64802,-3.38214 -4.2793,-6.41602 3.37707,-0.81329 6.58069,-0.41504 9.85351,0 6.15363,0.78028 11.94104,2.84784 17.82032,4.62696 1.59179,0.48175 3.49878,0.89654 4.42968,-1.00782 0.98401,-2.01281 0.31995,-3.95312 -1.375,-5.37304 -0.87933,-0.73664 -1.93353,-1.33203 -3,-1.76758 -8.05664,-3.29028 -16.33422,-5.60883 -25.13476,-5.61133 -10.83899,-0.003 -18.79706,-5.82513 -22.78516,-17.04492 5.01697,1.55109 9.68421,3.02026 14.36914,4.43164 2.56684,0.77325 4.75586,0.0666 5.88086,-2.38867 1.17694,-2.56861 -0.24011,-4.53516 -2.28125,-5.9668 -3.05426,-2.14209 -6.60608,-3.46673 -10.20117,-3.83398 -13.85004,-1.4148 -18.61237,-12.25415 -24.34375,-22.27735 1.75244,-1.56829 3.35193,-1.10327 5.00781,-0.8125 7.02802,1.23407 14.0777,2.35279 21.10547,3.58789 6.073,1.06726 12.26727,2.06257 17.19336,6.12305 7.45575,6.14563 14.87482,12.31964 22.88867,17.74219 2.23206,1.51031 4.05127,3.4696 5.42188,5.80273 3.66797,6.24402 8.41058,11.59729 13.79883,16.36914 5.41009,4.79108 8.88818,10.59278 10.68164,17.62891 1.63891,6.42993 3.27673,12.90198 6.06445,18.97852 1.31012,2.85565 3.28449,4.92791 6.63281,3.24414 3.13037,-1.57422 1.7923,-4.0846 0.83399,-6.45899 -2.69782,-6.68414 -4.78241,-13.53564 -5.88477,-20.94531 8.52741,2.0661 12.22717,4.94305 18.55469,14.15039 2.17309,3.16229 4.16034,6.48669 8.17383,7.70703 1.63702,0.49774 3.37488,0.99506 4.76953,-0.17969 1.63983,-1.38153 1.23236,-3.42364 0.62109,-5.11914 -1.44946,-4.02032 -4.51575,-6.92444 -7.3125,-10.01562 -1.47931,-1.63501 -3.75012,-2.89801 -3.4043,-5.89258 0.70746,-0.34271 1.39722,-0.87018 2.16016,-1.01367 4.58984,-0.86371 9.22565,-1.18146 13.90234,-1.20508 2.71827,-0.0137 5.20783,-1.35748 5.37305,-4.18945 0.15527,-2.65967 -2.51202,-3.03284 -4.66015,-3.54493 -5.69129,-1.35693 -11.29822,-0.23126 -16.81055,0.8125 -16.47846,3.12012 -33.45093,-5.35888 -40.29297,-20.86914 6.6767,0.73987 13.1004,0.82404 19.42969,2.29883 2.4021,0.55976 4.93585,0.70313 7.41406,0.74024 2.01691,0.0302 4.14044,-0.31018 4.60547,-2.875 0.41949,-2.31348 -1.27832,-3.27069 -2.97852,-4.0293 -1.66473,-0.74274 -3.39697,-1.35272 -5.13867,-1.89844 -7.05707,-2.21112 -14.414,-2.24475 -21.68164,-2.95117 -4.28137,-0.41614 -8.82892,-0.32782 -12.45312,-2.98242 -7.63831,-5.59491 -14.32001,-12.2984 -21.47852,-18.96875 2.0105,-1.68152 4.02344,-2.10059 6.16211,-2.48438 8.93713,-1.60376 17.95947,-1.18243 26.91406,-0.80273 8.99402,0.38147 17.64716,2.43329 25.87891,6.61914 8.57233,4.35907 16.58612,9.93256 26.0664,12.47461 4.73822,1.27063 9.21332,0.85791 13.65625,-0.91992 1.58423,-0.63391 3.08838,-1.46363 2.88282,-3.56446 -0.1958,-2.00109 -1.71027,-2.80548 -3.35742,-3.22656 -2.09009,-0.5343 -4.23298,-0.87939 -6.36719,-1.21875 -10.19403,-1.62073 -18.87836,-6.7392 -27.75781,-11.1582 0.64508,-2.98361 2.747,-3.03394 4.35742,-3.67188 8.80774,-3.48919 17.3421,-7.65066 26.41992,-10.49218 2.46197,-0.7707 5.63562,-2.32019 4.4375,-5.55274 -1.07239,-2.89343 -4.2948,-3.52515 -7.27734,-2.74219 -4.98627,1.30906 -9.9087,2.82676 -14.44922,5.38868 -14.75006,8.32238 -30.3609,11.50415 -47.07032,7.57617 -3.46484,-0.81446 -7.23431,0.51129 -11.27343,-1.59766 4.42517,-4.52774 8.14276,-9.04782 12.57226,-12.70703 7.70819,-6.36755 15.83093,-12.54965 25.73242,-14.87109 9.18543,-2.15354 18.65332,-3.13425 28.01953,-4.47071 3.61902,-0.51641 7.88337,-1.24261 7.73829,-5.3164 -0.14673,-4.11704 -4.92792,-3.49582 -8.01758,-4.17774 -0.90582,-0.19986 -1.9671,0.1958 -2.93555,0.41602 -4.21161,0.95755 -8.37366,2.26117 -12.63476,2.83594 -3.63575,0.49041 -7.27478,2.50589 -11.39649,0.67773 0.32166,-2.67071 1.57422,-4.76663 2.90235,-6.86719 3.69238,-5.8396 9.26574,-9.43979 15.00195,-12.9082 2.18225,-1.31949 4.52612,-3.24262 3.04297,-6.01367 -1.31006,-2.44742 -4.13776,-1.37873 -6.33985,-0.90235 -1.44256,0.31202 -2.80694,1.02445 -4.17773,1.62305 -8.91876,3.8949 -14.68817,10.81879 -18.22266,19.62695 -2.69641,6.71952 -7.22497,11.26752 -13.73633,14.39844 -10.54046,5.0683 -18.88977,12.98041 -26.35351,21.83203 -1.98181,2.35038 -4.22656,4.302 -6.89844,5.66992 -9.43133,4.82856 -19.15405,8.62729 -30.05469,6.29297 -6.04931,-1.29544 -12.35101,-1.61135 -17.98437,-3.89257 -0.19922,-1.74027 0.78302,-2.20789 1.50781,-2.86524 7.43775,-6.7457 16.00537,-9.85211 26.12891,-8.51172 3.44549,0.45618 7.7182,-0.22226 7.97265,-4.06836 0.26496,-4.00451 -4.42584,-3.92111 -7.33007,-4.31054 -3.68482,-0.49411 -7.48456,-0.11914 -12.0586,-0.11914 1.7594,-3.59705 4.18878,-4.40494 6.33789,-5.44727 5.15277,-2.49908 9.65253,-5.89154 13.78711,-9.79688 1.05115,-0.99273 2.5459,-1.99203 1.77344,-3.76171 -0.78986,-1.80979 -2.63568,-1.86496 -4.28711,-1.97461 -2.46136,-0.16349 -4.49377,1.05395 -6.45703,2.31836 -4.48163,2.88641 -8.94269,5.80703 -13.38867,8.74804 -3.11103,2.05796 -5.64038,4.72437 -7.43555,7.97461 -6.55389,11.86612 -18.14661,16.27414 -30.14453,17.48242 -14.8371,1.49424 -29.93262,0.47632 -44.88281,-0.73632 -4.84229,-0.3928 -9.66724,-1.0029 -14.5,-1.51368 5.88702,-3.65609 11.8891,-6.29208 18.00195,-8.64257 11.40222,-4.38437 22.25793,-9.47843 31.25391,-18.16993 8.65594,-8.36303 19.09143,-13.78341 30.99609,-16.27539 2.5592,-0.5357 5.15759,-1.56125 7.37305,-2.94531 10.95056,-6.84143 22.61834,-6.72095 34.68554,-4.18359 7.68488,1.61587 15.05927,3.71627 21.94727,7.79492 6.39734,3.78811 13.2016,1.0209 14.54492,-5.06836 -2.97772,-3.53061 -8.37811,-0.104 -11.49805,-4.06641 1.19879,-2.35443 3.41455,-3.18567 5.53907,-3.99804 3.10394,-1.18689 6.2995,-2.12897 9.41601,-3.28516 1.84076,-0.68289 3.25159,-1.85843 2.73438,-4.125 -0.4643,-2.03476 -2.14826,-2.26501 -3.8711,-2.44531 -5.91443,-0.61893 -11.29797,0.96109 -16.03515,4.35547 -4.51905,3.23806 -9.16333,4.39447 -14.53711,2.61328 -1.87055,-0.62006 -3.9942,-0.48282 -5.85938,-1.11328 -3.78735,-1.28006 -8.44323,-0.19599 -11.36523,-3.86914 0.41638,-2.49836 2.15112,-3.8884 3.54883,-5.51563 10.45196,-12.16818 24.14251,-18.37552 39.45507,-21.84961 6.31025,-1.43161 11.99353,-0.93881 17.81446,2.08984 8.31671,4.32728 17.13226,7.28629 26.74023,6.98633 3.15173,-0.0985 5.93054,-0.94748 7.95117,-3.4707 2.401,-2.99814 1.68799,-4.80518 -2.12109,-5.2207 -3.97028,-0.43308 -7.98486,-0.49994 -11.93945,-1.0293 -5.8888,-0.7883 -11.50318,-2.39175 -16.14258,-6.33984 1.14105,-1.96558 2.79565,-2.10666 4.03125,-2.90235 6.41632,-4.13183 13.48413,-7.30218 18.88086,-12.93359 2.73535,-2.85437 1.10785,-4.43979 -1.64258,-5.49414 -2.15778,-0.82721 -4.34656,-0.22174 -6.23242,0.92578 -2.98102,1.81381 -5.8617,3.79788 -8.73828,5.77734 -9.14338,6.29181 -18.83704,11.02988 -30.50586,11.32032 -0.028,-4.25528 2.40143,-7.2237 3.48242,-10.625 3.76862,-11.85715 9.85846,-21.58243 22.00195,-26.66993 3.58832,-1.50332 6.67114,-4.39148 8.48438,-8.18945 0.90857,-1.90301 0.6994,-3.60666 -0.86914,-4.97656 -1.42908,-1.24802 -3.1897,-1.18378 -4.64649,-0.19531 -2.05896,1.39706 -3.85467,3.17456 -5.88281,4.62304 -3.80066,2.71424 -7.11707,6.27155 -11.91211,7.77539 -1.28705,-3.16201 -1.0199,-5.80337 -0.44336,-8.375 1.16174,-5.18231 2.47937,-10.32962 3.76172,-15.48437 0.31506,-1.26654 1.13763,-2.60785 -0.39258,-3.58399 -1.21533,-0.77523 -2.52423,-0.60849 -3.8125,0.008 -1.74682,0.83563 -2.81988,2.27441 -3.72656,3.90625 -3.21167,5.78 -5.27948,11.94076 -4.86719,18.57812 1.05548,16.99231 -6.24774,31.10715 -15.49609,44.33594 -3.80853,5.44763 -9.67273,8.98898 -16.74219,11.09766 1.07544,-5.11963 2.03357,-9.31549 2.79883,-13.54493 0.22888,-1.26529 0.15448,-2.74725 -1.26758,-3.52148 -1.60217,-0.87232 -2.94556,-0.0197 -4.10352,0.93164 -2.43585,2.0011 -3.30084,4.94134 -4.26562,7.76953 -2.31824,6.79566 -4.76361,13.49585 -9.48242,19.11914 -10.24164,12.20459 -23.33637,20.06796 -38.1836,25.29297 -0.21942,0.0772 -0.58093,-0.2457 -1.10156,-0.48633 -0.1192,-0.47754 -0.56122,-1.19934 -0.38672,-1.70898 3.27423,-9.56272 4.42292,-20.01026 9.93555,-28.61524 9.12128,-14.23785 21.60864,-25.34637 36.02734,-33.97461 7.9682,-4.76819 14.5763,-10.51986 19.08399,-18.52343 1.65423,-2.93711 5.26294,-7.0466 0.95703,-9.58204 -3.85809,-2.27172 -5.68561,2.51075 -7.6543,5.26758 -3.94055,5.5181 -8.30218,10.58072 -15.05273,14.41407 -1.01801,-6.06846 1.22784,-10.67173 2.30664,-15.37696 0.8642,-3.76956 1.61127,-7.48565 1.13476,-11.34179 -0.21618,-1.74961 -0.99157,-3.20795 -2.98632,-3.48829 -1.80872,-0.25418 -2.81049,0.88694 -3.44532,2.31446 -0.53283,1.19803 -0.89996,2.48944 -1.18945,3.77343 -1.67859,7.44587 -3.0603,14.96845 -5.02148,22.3379 -2.81201,10.56698 -10.56836,17.04724 -19.52735,23.21679 -1.04455,-3.7727 -0.81244,-6.66855 0.004,-9.58789 1.65613,-5.92285 3.68774,-11.78454 4.75781,-17.81445 0.88867,-5.00784 1.87305,-10.405 -1.51172,-15.10938 -3.12603,0.92746 -4.30835,3.09214 -4.87109,5.29688 -3.60565,14.12485 -8.62811,27.9704 -8.77344,42.80664 -0.0195,1.98578 0.26996,4.04715 -0.92969,5.82812 -5.5899,8.2992 -7.56799,18.04416 -10.95898,27.22657 -4.02716,10.90509 -9.57135,21.3287 -18.12109,28.9414 -9.82013,8.74378 -21.81604,14.60022 -34.76172,17.97657 -1.75067,0.4566 -3.52985,1.25051 -5.15039,-0.83399 0.20898,-0.83209 0.27081,-1.86572 0.70898,-2.70117 4.79804,-9.14853 9.9502,-18.09894 15.80664,-26.60938 2.30994,-3.35675 5.66608,-5.48724 9.66992,-6.71289 3.48322,-1.06625 6.9256,-2.40295 10.17774,-4.03515 1.91589,-0.96161 4.66449,-2.22937 3.3457,-5.1836 -1.13293,-2.53775 -3.5852,-2.47094 -6.07422,-1.92578 -2.80682,0.61475 -5.56366,2.34571 -8.81054,0.79688 0.34307,-5.1818 1.57891,-9.81427 5.24804,-13.65625 3.1026,-3.24869 6.02661,-6.67304 8.94727,-10.08985 3.53607,-4.13693 5.85394,-8.87402 6.50586,-14.32226 0.22314,-1.86502 0.11505,-3.80081 -1.91016,-4.72656 -1.7168,-0.78476 -2.78161,0.54101 -3.84961,1.58593 -3.16864,3.1001 -4.7865,7.16275 -6.83594,10.9668 -1.60467,2.97848 -3.07623,6.1778 -6.85937,7.22266 -1.06018,-2.27567 -0.63934,-5.61551 -3.72656,-5.54883 -2.88849,0.0623 -3.66193,2.88235 -4.56446,5.27539 -1.28772,3.41446 -0.88519,6.9285 -0.80859,10.39258 0.18274,8.26596 -2.11231,15.68582 -6.60156,22.60937 -4.61933,7.12418 -9.01483,14.39865 -13.33985,21.70703 -5.47296,9.24832 -12.81347,16.65335 -22.07812,21.95508 -9.68244,5.54077 -20.18408,7.40357 -31.24219,5.32227 -1.63153,-0.30707 -3.37274,-0.92389 -3.78711,-2.81641 -0.39007,-1.78192 1.10034,-2.70703 2.31445,-3.51562 4.21381,-2.80631 7.42603,-6.67237 10.95118,-10.19922 7.86517,-7.86914 15.01178,-16.60782 25.91796,-20.68555 1.04535,-0.39087 2.0503,-1.19385 2.78516,-2.05273 1.91632,-2.23969 3.61224,-4.89814 1.09375,-7.51563 -2.31262,-2.40356 -4.47986,-0.34299 -6.57617,1.08399 -2.60419,1.77261 -4.41907,4.98202 -8.26758,4.95703 -0.39966,-2.01874 -0.61163,-3.83567 -1.13672,-5.55664 -0.71789,-2.35325 -2.09002,-4.46958 -4.83398,-4.27344 -2.76849,0.19787 -4.11383,2.57022 -4.05664,4.94531 0.32098,13.32486 -8.22589,20.76154 -17.83399,27.59766 -4.04101,2.87521 -8.2929,4.57428 -12.98633,1.82422 -4.84234,-2.83735 -7.99163,-6.68277 -7.89843,-12.86914 0.0799,-5.30851 2.33862,-9.57682 4.78125,-13.96485 12.73199,-22.8717 36.65643,-31.36273 60.5,-23.09375 3.91253,1.35681 7.8761,1.0972 11.86133,0.87891 2.55224,-0.1398 4.8153,-1.12174 4.83789,-3.98047 0.0248,-3.14572 -2.67603,-3.40967 -5.0293,-3.59766 -2.89392,-0.23123 -5.97272,0.29077 -8.17774,-2.13867 0.23395,-2.23264 1.97626,-2.82745 3.2168,-3.86328 5.35871,-4.47452 11.69428,-7.73523 16.30078,-13.15039 1.49164,-1.75345 2.8255,-3.7944 1.16407,-5.7832 -1.58838,-1.9014 -3.97413,-1.31385 -5.95704,-0.15821 -1.28607,0.74951 -2.56311,1.61191 -3.60742,2.66016 -3.42914,3.4422 -7.25982,6.38293 -11.24414,9.11328 -9.24457,6.33505 -19.80737,7.39233 -30.83203,7.5 5.18787,-7.11414 10.25922,-14.15463 16.39258,-20.09961 17.0849,-16.56012 37.19903,-23.76886 60.9668,-17.67578 6.05706,1.55279 11.90509,0.979 17.52539,-1.39648 2.1347,-0.90229 5.10754,-2.15772 4.13476,-5.3711 -0.97272,-3.2135 -3.81976,-2.32501 -6.33594,-2.125 -3.94055,0.3132 -8.04254,1.52799 -11.73046,-0.79297 0.30914,-1.90524 1.5838,-2.2445 2.49218,-2.88476 5.85132,-4.12424 11.7464,-8.18598 17.61133,-12.29102 1.875,-1.31241 3.61707,-3.20428 2.32813,-5.36328 -1.35889,-2.27618 -3.85395,-1.28461 -5.82422,-0.29492 -4.75104,2.38644 -9.97473,4.05755 -13.88672,7.80078 -6.15997,5.89416 -13.50855,8.98108 -21.82227,9.98633 -6.48883,0.78451 -12.89691,2.72421 -19.5,2.04297 -0.0943,-0.81922 -0.25873,-1.19312 -0.14843,-1.44727 9.26806,-21.36316 25.83984,-33.66278 48.21679,-38.63086 6.4798,-1.43863 13.02149,-2.61575 19.56055,-3.76562 5.73144,-1.00782 11.48309,-2.04923 17.2207,0.17382 6.1687,2.39002 12.62677,2.94407 19.16211,2.54688 4.61963,-0.28073 8.86395,0.66351 12.99805,2.74805 4.80615,2.42346 9.89001,3.92346 15.39844,3.38867 3.60107,-0.34961 8.45868,0.0166 8.27539,-4.88672 -0.17682,-4.73142 -5.0821,-3.62549 -8.36719,-3.89453 -4.07062,-0.33341 -8.10193,-0.61673 -11.66016,-3.38281 1.49768,-2.17661 3.45929,-3.10816 5.4336,-3.9336 4.14325,-1.73227 8.36737,-3.27478 12.48828,-5.05664 2.52679,-1.09259 5.19244,-2.79806 4.15234,-5.90625 -1.00482,-3.00268 -4.16662,-2.99719 -6.80469,-2.3457 -5.36883,1.3258 -10.35449,3.64654 -15.03515,6.59179 -4.547,2.86115 -9.37567,5.12821 -14.60156,6.33985 -5.40369,1.25284 -10.75947,1.32812 -15.9961,-2.02735 4.20624,-4.28839 8.70239,-7.86053 11.91016,-12.35351 6.39282,-8.95404 14.81744,-14.63956 25.02148,-18.15039 2.99781,-1.03143 5.81299,-2.51853 7.99414,-4.95117 1.41626,-1.57962 2.48029,-3.43082 1.32422,-5.41993 -1.26361,-2.17391 -3.49963,-1.60183 -5.36523,-0.88476 -2.32447,0.8934 -4.47705,2.23431 -6.79883,3.13672 -4.19434,1.63016 -8.01685,4.3613 -13.05859,4.88867 0.40564,-1.96051 0.68609,-3.41135 1.00781,-4.85352 1.15448,-5.17538 3.41693,-10.08973 3.70703,-15.46484 0.11963,-2.21677 0.017,-4.84436 -2.37305,-5.52539 -2.70062,-0.76947 -4.1643,1.63785 -5.13867,3.76172 -1.87329,4.08343 -3.21448,8.35617 -4.19531,12.76367 -1.61121,7.24002 -1.32916,15.15485 -6.23438,21.3125 -14.48211,18.1799 -34.16333,24.63831 -57.83984,24.74219 6.3941,-9.66248 10.34869,-20.00696 20.00586,-26.3086 9.72876,-6.34838 17.44201,-14.90429 25.12695,-23.44921 2.58161,-2.87052 4.24903,-6.34876 5.26758,-10.11329 0.4148,-1.53283 -0.18243,-2.55094 -1.32812,-3.44726 -1.08704,-0.85039 -2.13007,-0.67462 -3.24024,-0.0586 -1.92651,1.06894 -3.45319,2.5479 -4.85937,4.23829 -3.08759,3.71138 -6.05268,7.57013 -9.4961,10.92968 -5.49243,5.35865 -11.34772,10.34201 -18.32226,14.79297 -1.86444,-18.48599 0.55432,-34.21257 17.01953,-44.67773 3.88049,-2.4664 7.78277,-5.20464 10.5039,-9.14258 1.46582,-2.12132 2.90381,-4.32243 0.6875,-6.73828 -2.30395,-2.5114 -4.40539,-0.54613 -6.11718,0.79883 -5.62836,4.42236 -11.1081,9.03437 -16.60743,13.61914 -4.04638,3.37355 -5.36865,3.01642 -6.40039,-2.22266 -1.03723,-5.2668 -0.32495,-10.63095 -0.43164,-15.95117 -0.0467,-2.33221 0.3227,-5.22873 -2.48828,-5.90234 -2.90582,-0.69632 -4.34949,1.92121 -5.50781,4.14648 -2.69629,5.17949 -1.81165,10.68536 -1.23242,16.13672 0.71563,6.73637 4.66534,13.17247 3.10351,20.00586 -2.31665,10.13618 -3.33819,20.33191 -3.22656,30.65234 0.064,5.91196 -1.44855,11.21729 -4.7832,15.97461 -2.57581,3.67478 -5.62494,7.02118 -8.16406,10.71875 -6.04139,8.79758 -14.52949,14.77161 -23.28321,21.24024 -2.50378,-7.19532 -1.47235,-14.07569 -1.32812,-20.78125 0.28619,-13.30234 2.43188,-26.17508 11.30078,-36.96875 1.77771,-2.16343 3.16638,-4.70749 4.39844,-7.24024 1.48614,-3.05517 2.77789,-7.35342 -0.13672,-9.1582 -3.53437,-2.18851 -5.17383,2.28638 -6.8125,4.73437 -5.05902,7.55713 -9.9253,15.24283 -15.26758,23.5 -5.00189,-13.44406 -1.93817,-24.83377 5.38281,-35.48828 4.90436,-7.13753 10.03192,-14.12195 15.06641,-21.16992 1.75421,-2.45581 3.14459,-5.08858 4.12109,-7.95312 0.54321,-1.5936 0.35938,-2.95955 -0.92383,-4.07618 -1.48065,-1.28848 -3.18603,-1.20216 -4.59375,-0.11523 -1.56231,1.20625 -3.07476,2.60742 -4.21875,4.20312 -4.46008,6.22133 -8.71948,12.58577 -13.15625,18.82422 -1.38543,1.94802 -2.5542,4.332 -5.82812,4.62696 -1.81494,-8.047 0.14972,-15.10511 4.64062,-21.67774 4.0459,-5.9214 7.90253,-11.96492 10.15039,-18.83984 0.97779,-2.99047 2.29102,-7.01985 -1.30859,-8.375 -3.47577,-1.30855 -4.82672,2.67618 -5.94531,5.40039 -4.40424,10.72621 -12.2063,19.33342 -17.53711,29.29297 -2.38471,-0.41942 -3.05286,-2.07955 -4.09961,-3.32422 -7.71497,-9.17363 -7.7099,-19.39858 -4.11328,-30.11328 1.11712,-3.32822 1.84649,-7.54323 -1.57227,-8.92969 -3.68384,-1.49397 -5.8136,2.65163 -6.91406,5.58789 -4.58099,12.22284 -5.06323,24.25749 2.3457,35.84961 2.92945,4.5835 7.29187,7.74554 10.58203,11.93555 5.20087,6.6232 7.1247,13.95953 6.10547,22.375 -0.77612,6.40741 -2.06591,13.31243 0.77735,19.24023 5.15796,10.75372 5.77325,22.00742 6.26171,33.53906 0.30524,7.20795 -0.027,14.27515 -1.08593,21.35352 -2.97547,19.8884 -16.18415,32.99429 -30.2793,45.49023 -0.14123,0.12525 -0.59668,-0.10431 -1.4043,-0.27148 -0.13781,-7.32697 0.23407,-14.79743 -0.97851,-22.18359 -0.84528,-5.14905 1.28448,-9.51053 4.5664,-13.26172 3.98432,-4.55405 6.54956,-9.90259 6.98829,-15.73047 0.62262,-8.27051 0.70507,-16.56995 2.37109,-24.74414 0.22437,-1.10111 0.14917,-2.41233 -0.24024,-3.45703 -0.66552,-1.78577 -1.05908,-4.27585 -3.5332,-4.24024 -1.9743,0.0284 -3.19201,1.81561 -3.70898,3.62891 -1.45648,5.10934 -3.34522,10.22452 -3.10742,15.58593 0.44311,9.99113 -2.89631,18.65778 -8.60743,26.53516 -3.17352,4.37729 -4.66247,9.09976 -4.48632,14.46289 0.16955,5.16254 0.10101,10.33267 0.29101,15.49414 0.48004,13.03769 -2.90051,24.71375 -12.17578,34.2168 -4.6507,4.76501 -9.51105,9.35998 -16.375,12.61133 -0.0601,-7.40705 1.54773,-13.36194 4.70508,-18.98828 2.36017,-4.20572 4.79016,-8.40488 6.70703,-12.81641 1.47687,-3.39896 2.40765,-7.97046 -1.7793,-9.57031 -4.17785,-1.59638 -5.13147,2.9816 -6.41015,5.97265 -0.98108,2.29505 -1.79053,4.67145 -2.90039,6.90039 -1.07337,2.15552 -1.60871,4.76163 -4.28321,6.04883 -2.26947,-2.30478 -2.01849,-5.16519 -2.09375,-7.9414 -0.0517,-1.9043 -0.29577,-3.81894 -2.5664,-4.29493 -2.36487,-0.49578 -3.7641,1.01911 -4.71485,2.89063 -0.84179,1.65707 -1.04577,3.43338 -0.7207,5.33984 1.0329,6.0568 2.04639,12.1225 2.86523,18.21094 1.61377,11.9986 0.43592,23.22421 -8.77343,32.39063 -7.0752,7.04229 -16.19654,5.73495 -19.60547,-3.16016 -0.81879,-2.13651 -1.20789,-4.50253 -1.41992,-6.79688 -0.78565,-8.49868 -0.25287,-16.98947 1.14453,-25.36718 1.47979,-8.87204 3.18023,-17.86331 9.77539,-24.66211 4.07348,-4.19928 7.74377,-8.70331 11.47656,-13.17578 5.6123,-6.72434 12.15472,-11.76075 21.35742,-12.46289 2.77661,-0.21186 5.66901,-0.86692 8.1836,-2.02344 2.48919,-1.14493 6.6278,-2.03491 5.41601,-5.89844 -1.14245,-3.64243 -4.92163,-2.694 -7.82226,-2.13672 -2.3783,0.457 -4.67987,1.06494 -7.47461,0.6543 0.74572,-1.63904 1.19775,-2.88306 1.8457,-4.01367 4.19598,-7.32157 10.7157,-12.70169 16.14062,-18.98633 5.92817,-6.86759 8.18885,-15.14939 10.35352,-23.48633 0.6795,-2.61697 -0.0574,-6.28082 -3.25,-7.0293 -2.85773,-0.66995 -4.07373,2.39957 -4.99023,4.70118 -1.72187,4.32479 -2.98652,8.84707 -4.90821,13.07421 -2.01062,4.42286 -3.92376,9.07996 -8.41406,11.99805 -1.32135,-1.92023 -0.81244,-3.51431 -0.43359,-5.10742 0.69226,-2.91074 1.33923,-5.83261 2.07422,-8.73242 0.5451,-2.15085 0.26342,-4.20072 -1.70899,-5.25391 -2.04224,-1.09051 -3.88177,0.10516 -5.29687,1.66797 -2.08612,2.30386 -3.18665,5.03427 -3.18946,8.17383 -0.004,4.49994 0.14026,9.00598 -0.0508,13.49804 -0.37274,8.767 -5.37714,14.8808 -11.19726,20.35352 -1.74811,-0.76431 -1.97004,-1.76474 -2.30664,-2.70117 -1.51679,-4.21976 -0.45209,-8.59467 -0.7754,-12.88672 -0.16375,-2.17334 -0.7741,-4.09305 -3.1914,-4.40234 -2.31372,-0.29605 -3.68726,1.15927 -4.42383,3.2539 -1.13464,3.2269 -0.98694,6.48722 -0.66602,9.85742 0.46991,4.93412 3.09894,10.15473 1.13672,14.73047 -3.63592,8.4787 -10.33136,14.85141 -17.39843,20.68946 -0.15369,0.12698 -0.60712,-0.11103 -1,-0.19532 -1.00507,-2.11111 -1.87342,-4.48327 -1.22461,-6.70117 1.28845,-4.40472 0.1961,-8.57559 -0.44727,-12.83008 -2.34235,-15.48993 -0.93634,-30.39706 8.58398,-43.37304 8.69678,-11.85349 19.05176,-22.48328 30.50782,-31.50586 9.74627,-7.67603 21.60803,-11.66773 34.67187,-9.36914 3.42493,0.60263 7.01898,0.74252 10.4375,-0.12305 2.2638,-0.57318 4.82019,-1.79544 4.50196,-4.56836 -0.26539,-2.31308 -2.83344,-2.51102 -4.80665,-2.70898 -5.26544,-0.5282 -10.54168,-0.9469 -16.55664,-1.47461 1.96473,-2.55411 3.48322,-4.67882 5.15821,-6.67188 2.58752,-3.07893 4.78027,-6.4012 6.56445,-9.99609 0.90723,-1.82808 1.93103,-3.86267 -0.29492,-5.33399 -1.98279,-1.31051 -3.90466,-0.3112 -5.36914,1.21289 -2.0741,2.15857 -4.56958,4.17116 -5.88281,6.75586 -5.9563,11.72371 -15.96772,17.3364 -28.76172,19.53907 1.74048,-7.62265 4.20868,-14.88086 10.33984,-20.33008 5.63983,-5.01254 10.12598,-11.03691 14.9082,-16.80078 1.81208,-2.18396 3.37397,-4.57477 3.95118,-7.42188 0.29583,-1.45943 0.59857,-3.08917 -0.77149,-4.18945 -1.62091,-1.30176 -3.19476,-0.3712 -4.57422,0.55859 -2.96411,1.99784 -4.74847,5.07712 -6.9707,7.76953 -3.18488,3.85884 -5.40057,8.75278 -11.16797,11.08985 0.58283,-5.18694 1.05243,-9.80831 0.63477,-14.42188 -0.16877,-1.86389 -0.83973,-3.67157 -3.00586,-4.11328 -2.29743,-0.46849 -3.31177,1.19533 -4.09766,2.89453 -0.83685,1.80936 -1.17877,3.75485 -1.54102,5.73828 -1.43707,7.87065 -0.66607,15.90255 -2.31445,23.79493 -3.95843,18.95358 -16.31469,32.38678 -29.05664,45.64648 -0.89654,0.93298 -1.99341,2.02866 -3.48242,1.27344 -1.39929,-0.70966 -1.36145,-2.17066 -1.36133,-3.51758 9.8e-4,-11.33313 -0.51153,-22.69696 0.16211,-33.99023 0.64716,-10.84884 4.24738,-20.95743 12.5332,-28.57032 4.48377,-4.11963 8.24781,-8.63768 11.16211,-13.95312 5.55219,-10.12656 12.76361,-18.42734 23.42383,-23.77539 10.07538,-5.05466 17.14447,-13.57938 22.92578,-23.14844 1.52912,-2.53087 2.08197,-5.26157 1.69531,-8.15039 -0.45141,-3.37375 -2.17059,-3.83476 -4.78906,-1.88867 -1.79901,1.33706 -2.79492,3.27722 -3.88867,5.14257 -6.72736,11.47388 -17.67248,17.84083 -29.02148,24.82422 -0.71241,-8.00346 1.39441,-14.74199 2.39843,-21.59765 0.48737,-3.32813 0.91431,-6.57889 -2.17187,-9.02735 -3.90405,1.25743 -4.96961,4.57112 -5.8418,7.72071 -1.05932,3.82539 -1.73932,7.778 -2.29101,11.71679 -1.38068,9.85718 -1.85541,19.94439 -8.25782,28.33985 -3.93774,5.16354 -7.63836,10.5209 -11.78125,15.51172 -2.20678,2.65854 -4.31482,5.86622 -8.16406,6.37109 -1.47742,-1.5148 -1.18951,-3.09343 -1.04101,-4.5293 1.26855,-12.25866 1.97699,-24.53743 2.02734,-36.86914 0.014,-3.4405 0.88769,-6.90649 1.61328,-10.30859 1.38287,-6.48387 5.45947,-11.27059 10.14453,-15.68164 5.98535,-5.63521 9.67499,-12.69444 11.84961,-20.50977 0.57581,-2.0695 1.31787,-4.96942 -1.43945,-6.22851 -2.41492,-1.10274 -4.1192,0.95936 -5.42774,2.59961 -1.64709,2.06453 -2.89502,4.4492 -4.31445,6.69531 -3.79114,5.99911 -8.30524,11.36589 -13.23633,16.30469 -2.3999,-1.61948 -3.06158,-3.42647 -3.54687,-5.41993 -1.25678,-5.1624 -2.53644,-10.32252 -3.97071,-15.4375 -0.89355,-3.1867 -1.46194,-6.51837 -3.32617,-9.36132 -0.83249,-1.26953 -1.81381,-2.5608 -3.55273,-2.27149 z"
     inkscape:label="tree"
     style="display:inline;fill:#000000;fill-opacity:1;stroke:none" /><circle
     style="display:inline;fill:none;fill-opacity:1;stroke:#000000;stroke-width:16;stroke-dasharray:none;stroke-opacity:1"
     id="path17"
     cx="511.53845"
     cy="507.38461"
     r="411.69232" /></g><text
   xml:space="preserve"
   style="font-style:normal;font-variant:normal;font-weight:300;font-stretch:normal;font-size:50.6667px;line-height:0;font-family:Poppins;-inkscape-font-specification:'Poppins Light';text-align:start;letter-spacing:2.23px;writing-mode:lr-tb;direction:ltr;text-anchor:start;fill:#000000;fill-opacity:1;stroke:none;stroke-width:4;stroke-opacity:1"
   id="text2"
   y="958"
   x="452.7692"><tspan
     sodipodi:role="line"
     id="tspan2"
     x="452.7692"
     y="958">UBDM</tspan></text></svg>
